<svg xmlns="http://www.w3.org/2000/svg" width="20" height="20" fill="currentColor" viewBox="0 0 20 20">
  <path fill="currentColor" d="M6.867 4.75a3.338 3.338 0 0 1 .908-2.297A3.026 3.026 0 0 1 9.962 1.5c.82.001 1.607.343 2.187.952.58.609.907 1.434.908 2.295a3.327 3.327 0 0 1-.849 2.24 3.022 3.022 0 0 1-2.087 1.002 2.108 2.108 0 0 0-.303-.002C8.122 7.885 6.867 6.475 6.867 4.75Zm3.257 4.74a4.418 4.418 0 0 0 3.095-1.443 4.866 4.866 0 0 0 1.267-3.297c0-2.62-2.029-4.75-4.524-4.75S5.438 2.13 5.438 4.75c0 2.57 1.915 4.65 4.41 4.74a.732.732 0 0 1 .21 0h.066ZM9.962 20c-1.752 0-3.505-.47-4.838-1.41-1.2-.84-1.867-1.98-1.867-3.21s.667-2.38 1.877-3.23c2.676-1.86 7.009-1.86 9.666 0 1.2.84 1.857 1.98 1.867 3.21 0 1.24-.667 2.38-1.867 3.23-1.333.94-3.086 1.41-4.838 1.41Zm-4.037-6.601c-.918.646-1.24 1.374-1.24 1.981 0 .605.32 1.324 1.231 1.962l.004.003c1.05.74 2.51 1.155 4.042 1.155 1.531 0 2.99-.414 4.041-1.154.912-.647 1.233-1.365 1.235-1.98-.006-.62-.33-1.338-1.23-1.968-1.046-.732-2.502-1.143-4.034-1.143-1.531 0-2.992.41-4.05 1.144Z"/>
</svg>
