<svg width="19" height="19" viewBox="0 0 19 19" fill="none" xmlns="http://www.w3.org/2000/svg">
<path fill-rule="evenodd" clip-rule="evenodd" d="M4.21889 0C4.6331 0 4.96889 0.335786 4.96889 0.75V1.42856H13.0225V0.75C13.0225 0.335786 13.3583 0 13.7725 0C14.1867 0 14.5225 0.335786 14.5225 0.75V1.54671C16.1399 1.963 17.335 3.43122 17.335 5.17856V14.4167C17.335 16.4877 15.656 18.1667 13.585 18.1667H4.58496C2.51388 18.1667 0.834961 16.4877 0.834961 14.4167V5.17856C0.834961 3.49616 1.94286 2.07253 3.46889 1.59744V0.75C3.46889 0.335786 3.80468 0 4.21889 0ZM4.58496 2.92856C3.34232 2.92856 2.33496 3.93592 2.33496 5.17856V5.49979C2.39489 5.48436 2.45772 5.47616 2.52246 5.47616H15.6475C15.7122 5.47616 15.7751 5.48436 15.835 5.49979V5.17856C15.835 3.93593 14.8276 2.92856 13.585 2.92856H4.58496ZM15.835 6.95253C15.7751 6.96796 15.7122 6.97616 15.6475 6.97616H2.52246C2.45772 6.97616 2.39489 6.96796 2.33496 6.95253V14.4167C2.33496 15.6593 3.34232 16.6667 4.58496 16.6667H13.585C14.8276 16.6667 15.835 15.6593 15.835 14.4167V6.95253Z" fill="currentColor"/>
</svg>
