<svg width="18" height="18" viewBox="0 0 18 18" fill="none" xmlns="http://www.w3.org/2000/svg">
<path d="M4.33984 0.25C4.14093 0.25 3.95017 0.329018 3.80951 0.46967C3.66886 0.610322 3.58984 0.801088 3.58984 1V1.8457C2.08809 2.26429 0.955078 3.58869 0.955078 5.21875V14.5938C0.955078 16.5524 2.55895 18.1562 4.51758 18.1562H13.8926C15.8512 18.1562 17.4551 16.5524 17.4551 14.5938V5.21875C17.4551 3.52568 16.2326 2.1647 14.6426 1.80859V1C14.6426 0.801088 14.5636 0.610322 14.4229 0.46967C14.2823 0.329018 14.0915 0.25 13.8926 0.25C13.6937 0.25 13.5029 0.329018 13.3622 0.46967C13.2216 0.610322 13.1426 0.801088 13.1426 1V1.65625H5.08984V1C5.08984 0.801088 5.01083 0.610322 4.87017 0.46967C4.72952 0.329018 4.53876 0.25 4.33984 0.25ZM4.51758 3.15625H13.8926C15.0406 3.15625 15.9551 4.07077 15.9551 5.21875V5.67773C15.8944 5.65742 15.8314 5.64495 15.7676 5.64063H2.64258C2.57682 5.65804 2.51375 5.68433 2.45508 5.71875V5.21875C2.45508 4.07078 3.36961 3.15625 4.51758 3.15625ZM15.9551 6.95312V14.5938C15.9551 15.7417 15.0405 16.6562 13.8926 16.6562H4.51758C3.36961 16.6562 2.45508 15.7417 2.45508 14.5938V7.0625C2.51375 7.09692 2.57682 7.12321 2.64258 7.14062H15.7676C15.8407 7.08976 15.9042 7.02627 15.9551 6.95312ZM9.67383 9.32031C9.57534 9.32031 9.47781 9.33971 9.38682 9.3774C9.29582 9.41509 9.21314 9.47034 9.1435 9.53998C9.07385 9.60963 9.01861 9.69231 8.98092 9.7833C8.94323 9.87429 8.92383 9.97182 8.92383 10.0703V10.1406C8.92383 10.3395 9.00285 10.5303 9.1435 10.671C9.28415 10.8116 9.47492 10.8906 9.67383 10.8906C9.87274 10.8906 10.0635 10.8116 10.2042 10.671C10.3448 10.5303 10.4238 10.3395 10.4238 10.1406V10.0703C10.4238 9.97182 10.4044 9.87429 10.3667 9.7833C10.329 9.69231 10.2738 9.60963 10.2042 9.53998C10.1345 9.47034 10.0518 9.41509 9.96084 9.3774C9.86985 9.33971 9.77232 9.32031 9.67383 9.32031ZM13.4238 9.32031C13.3253 9.32031 13.2278 9.33971 13.1368 9.3774C13.0458 9.41509 12.9631 9.47034 12.8935 9.53998C12.8239 9.60963 12.7686 9.69231 12.7309 9.7833C12.6932 9.87429 12.6738 9.97182 12.6738 10.0703V10.1406C12.6738 10.3395 12.7528 10.5303 12.8935 10.671C13.0341 10.8116 13.2249 10.8906 13.4238 10.8906C13.6227 10.8906 13.8135 10.8116 13.9542 10.671C14.0948 10.5303 14.1738 10.3395 14.1738 10.1406V10.0703C14.1738 9.97182 14.1544 9.87429 14.1167 9.7833C14.079 9.69231 14.0238 9.60963 13.9542 9.53998C13.8845 9.47034 13.8018 9.41509 13.7108 9.3774C13.6198 9.33971 13.5223 9.32031 13.4238 9.32031ZM5.45508 13.1406C5.25617 13.1406 5.0654 13.2196 4.92475 13.3603C4.7841 13.5009 4.70508 13.6917 4.70508 13.8906V13.9609C4.70508 14.1598 4.7841 14.3506 4.92475 14.4913C5.0654 14.6319 5.25617 14.7109 5.45508 14.7109C5.65399 14.7109 5.84476 14.6319 5.98541 14.4913C6.12606 14.3506 6.20508 14.1598 6.20508 13.9609V13.8906C6.20508 13.6917 6.12606 13.5009 5.98541 13.3603C5.84476 13.2196 5.65399 13.1406 5.45508 13.1406ZM9.67383 13.1406C9.47492 13.1406 9.28415 13.2196 9.1435 13.3603C9.00285 13.5009 8.92383 13.6917 8.92383 13.8906V13.9609C8.92383 14.1598 9.00285 14.3506 9.1435 14.4913C9.28415 14.6319 9.47492 14.7109 9.67383 14.7109C9.87274 14.7109 10.0635 14.6319 10.2042 14.4913C10.3448 14.3506 10.4238 14.1598 10.4238 13.9609V13.8906C10.4238 13.6917 10.3448 13.5009 10.2042 13.3603C10.0635 13.2196 9.87274 13.1406 9.67383 13.1406Z" fill="currentColor"/>
</svg>
