<svg xmlns="http://www.w3.org/2000/svg" width="20" height="20" fill="currentColor" viewBox="0 0 20 20">
  <path d="M7.5 3c-1.807 0-3.479.328-4.727.89C1.595 4.42.5 5.307.5 6.562v3.125c0 1.257 1.094 2.144 2.272 2.674.77.346 1.703.604 2.728.75v.326c0 1.257 1.094 2.144 2.272 2.674 1.249.561 2.92.889 4.728.889 1.807 0 3.48-.328 4.728-.89 1.178-.53 2.272-1.416 2.272-2.672v-3.126c0-1.104-.857-1.922-1.822-2.447-.852-.464-1.953-.8-3.178-.977v-.325c0-1.256-1.095-2.143-2.273-2.673C10.98 3.328 9.307 3 7.5 3ZM2 9.688v-.866c.246.156.507.294.773.413.443.2.94.37 1.477.506v1.57a7.045 7.045 0 0 1-.862-.318C2.304 10.505 2 9.986 2 9.687Zm11-3.104c-.041 1.144-2.488 2.066-5.5 2.066S2.041 7.728 2 6.584v-.029C2 5.398 4.462 4.46 7.5 4.46s5.5.938 5.5 2.095v.028Zm-7.25 5.048v-1.613c.561.07 1.148.106 1.75.106.602 0 1.189-.036 1.75-.106v1.613a12.71 12.71 0 0 1-1.75.118 12.71 12.71 0 0 1-1.75-.118Zm5-.321V9.74a9.02 9.02 0 0 0 1.477-.506A6.16 6.16 0 0 0 13 8.822v.866c0 .298-.304.817-1.388 1.305-.26.117-.549.223-.862.318Zm3.75-1.623V8.405c.998.163 1.843.44 2.46.776.823.447 1.04.876 1.04 1.13 0 .3-.304.818-1.388 1.306a8.12 8.12 0 0 1-1.79.544 12.326 12.326 0 0 1-2.619.21l.025-.011c1.178-.53 2.272-1.417 2.272-2.674Zm2.728 3.298c.265-.12.526-.257.772-.413v.864c0 .3-.304.818-1.388 1.306-.26.117-.548.223-.862.318v-1.57a9.008 9.008 0 0 0 1.478-.505Zm-2.978.783v1.613a12.71 12.71 0 0 1-1.75.118 12.71 12.71 0 0 1-1.75-.118v-1.613c.56.07 1.148.106 1.75.106.602 0 1.189-.036 1.75-.106Zm-5-.277v1.569a7.045 7.045 0 0 1-.862-.318C7.304 14.255 7 13.736 7 13.437v-.195a14.774 14.774 0 0 0 1.361-.017c.28.1.578.189.889.267Z"/>
</svg>
