<svg xmlns="http://www.w3.org/2000/svg" width="22" height="22" fill="currentColor" viewBox="0 0 22 22">
  <path d="M3.4 2.15c-.69 0-1.25.56-1.25 1.25v8.8c0 .248.202.45.45.45H5a.75.75 0 0 1 0 1.5H2.6A1.95 1.95 0 0 1 .65 12.2V3.4A2.75 2.75 0 0 1 3.4.65h8.8a1.95 1.95 0 0 1 1.95 1.95V5a.75.75 0 0 1-1.5 0V2.6a.45.45 0 0 0-.45-.45H3.4ZM7.85 11A3.15 3.15 0 0 1 11 7.85h7.2A3.15 3.15 0 0 1 21.35 11v7.2a3.15 3.15 0 0 1-3.15 3.15H11a3.15 3.15 0 0 1-3.15-3.15V11ZM11 9.35A1.65 1.65 0 0 0 9.35 11v7.2c0 .91.739 1.65 1.65 1.65h7.2a1.65 1.65 0 0 0 1.65-1.65V11a1.65 1.65 0 0 0-1.65-1.65H11Z"/>
</svg>
