<svg width="19" height="19" viewBox="0 0 19 19" fill="none" xmlns="http://www.w3.org/2000/svg">
<path fill-rule="evenodd" clip-rule="evenodd" d="M3.67647 2.88315C2.19829 2.88315 1 4.08144 1 5.55962L1.00001 13.4404C1.00001 14.9185 2.19832 16.1169 3.67648 16.1169H9.05902C9.31767 14.9026 10.3962 13.9919 11.6875 13.9919C12.9788 13.9919 14.0573 14.9026 14.316 16.1169H15.3235C16.8017 16.1169 18 14.9185 18 13.4404V5.55962C18 4.08145 16.8017 2.88315 15.3235 2.88315H14.316C14.0573 4.09747 12.9788 5.00815 11.6875 5.00815C10.3962 5.00815 9.31767 4.09747 9.05902 2.88315H3.67647ZM0 5.55962C0 3.52916 1.64601 1.88315 3.67647 1.88315H9.5009C9.77158 1.88315 9.99311 2.09855 10.0007 2.36912C10.0262 3.27855 10.7718 4.00815 11.6875 4.00815C12.6032 4.00815 13.3488 3.27855 13.3743 2.36912C13.3819 2.09855 13.6034 1.88315 13.8741 1.88315H15.3235C17.3539 1.88315 19 3.52915 19 5.55962V13.4404C19 15.4708 17.3539 17.1169 15.3235 17.1169H13.8741C13.6034 17.1169 13.3819 16.9015 13.3743 16.6309C13.3488 15.7215 12.6032 14.9919 11.6875 14.9919C10.7718 14.9919 10.0262 15.7215 10.0007 16.6309C9.99311 16.9015 9.77158 17.1169 9.5009 17.1169H3.67648C1.64602 17.1169 1.00136e-05 15.4708 1.00136e-05 13.4404L0 5.55962ZM11.4996 6.46116C11.7757 6.46116 11.9996 6.68502 11.9996 6.96116V7.12269C11.9996 7.39883 11.7757 7.62269 11.4996 7.62269C11.2235 7.62269 10.9996 7.39883 10.9996 7.12269V6.96116C10.9996 6.68502 11.2235 6.46116 11.4996 6.46116ZM11.4996 8.95293C11.7757 8.95293 11.9996 9.17679 11.9996 9.45293V9.61446C11.9996 9.8906 11.7757 10.1145 11.4996 10.1145C11.2235 10.1145 10.9996 9.8906 10.9996 9.61446V9.45293C10.9996 9.17679 11.2235 8.95293 11.4996 8.95293ZM11.5 11.4554C11.7761 11.4554 12 11.6792 12 11.9554V12.1169C12 12.393 11.7761 12.6169 11.5 12.6169C11.2239 12.6169 11 12.393 11 12.1169V11.9554C11 11.6792 11.2239 11.4554 11.5 11.4554Z" fill="currentColor"/>
</svg>
