<svg xmlns="http://www.w3.org/2000/svg" width="119" height="119" fill="currentColor" viewBox="0 0 119 119">
  <path fill="currentColor" d="M116.775 43.772v25.356s.107 25.009-6.989 36.968a.96.96 0 0 1-.807.441c-7.367.006-51.106.006-63.335.006a.965.965 0 0 1-.962-.932.966.966 0 0 1 .109-.476c.008-.013.014-.029.02-.042 4.35-9.422 5.816-23.869 6.287-31.256a.963.963 0 0 0-1.92-.123c-.46 7.214-1.86 21.32-6.098 30.536a2.889 2.889 0 0 0 2.562 4.218c12.23 0 55.972 0 63.337-.006.988 0 1.906-.506 2.436-1.342l.013-.021c7.303-12.275 7.272-37.977 7.272-37.977v-25.35a.969.969 0 0 0-.962-.932.964.964 0 0 0-.963.932Zm-67.382-27.87v1.288a1 1 0 0 0 .02.202c.02.103.06.202.116.291l.014.025a.965.965 0 0 0 .812.445s.963-.08.963-.98v-1.271c0-.532.43-.963.962-.963h37.748a.963.963 0 0 0 0-1.926H52.28a2.889 2.889 0 0 0-2.887 2.889Zm67.99 23.406a.964.964 0 0 0 1.078-.269.969.969 0 0 0 .112-1.105c-5.431-9.493-12.872-17.731-22.298-24.73a.962.962 0 0 0-1.515.97c1.42 6.78 2.116 13.639 1.43 20.653a2.879 2.879 0 0 0 3.314 3.143c6.174-.953 12.196-.906 17.879 1.338ZM38.311 24.002c7.732-2.623 16.63-.854 22.79 5.305 7.236 7.237 8.412 18.255 3.526 26.72a.969.969 0 0 0-.085.772l3.032 9.612a.366.366 0 0 1-.09.368l-.258.258a.288.288 0 0 1-.285.07l-9.66-3.048a.96.96 0 0 0-.77.084c-8.466 4.887-19.484 3.712-26.72-3.525-8.64-8.64-8.64-22.67 0-31.311a.963.963 0 1 0-1.364-1.361c-9.39 9.391-9.39 24.64 0 34.034 7.763 7.76 19.524 9.108 28.674 4.04l9.26 2.923a2.212 2.212 0 0 0 2.226-.545l.258-.258a2.284 2.284 0 0 0 .564-2.306l-2.905-9.216c5.065-9.149 3.717-20.912-4.043-28.672-6.694-6.694-16.364-8.617-24.768-5.768a.964.964 0 0 0 .618 1.824ZM21.895 13.374l7.7 9.688c.663.832 1.874.97 2.705.31.832-.66.97-1.873.31-2.705l-7.7-9.688a1.926 1.926 0 0 0-3.015 2.395Zm-20.63 4.818L21.39 29.745a1.927 1.927 0 0 0 2.857-2.171 1.923 1.923 0 0 0-.942-1.167L3.185 14.854a1.927 1.927 0 0 0-2.818 2.17c.133.494.456.913.899 1.168ZM4.15 39.626h13.477a1.926 1.926 0 0 0 0-3.85H4.15a1.926 1.926 0 0 0 0 3.85Zm28.724 9.396a3.697 3.697 0 1 0 0-7.394 3.697 3.697 0 0 0 0 7.394Zm12.32 0a3.697 3.697 0 1 0 .001-7.394 3.697 3.697 0 0 0 0 7.394Zm12.323 0a3.697 3.697 0 1 0 0-7.394 3.697 3.697 0 0 0 0 7.394Z"/>
</svg>

