<svg xmlns="http://www.w3.org/2000/svg" width="128" height="128" fill="currentColor" viewBox="0 0 128 128">
  <path fill="currentColor" d="M60.993 10.355c0-1.135.865-2.069 1.97-2.177C65.026 2.651 70.186.021 73.968 0c1.927-.01 3.52.656 4.388 1.822.62.83.918 1.925.682 3.292a1.095 1.095 0 0 1-2.157-.372c.116-.665.024-1.207-.278-1.612-.51-.682-1.491-.95-2.624-.943-2.917.017-6.785 1.976-8.64 5.98h12.487a2.188 2.188 0 1 1 0 4.376h-.006c.668 1.106 1.048 2.09 1.205 2.942.232 1.254.015 2.28-.481 3.085-.823 1.336-2.505 2.108-4.58 2.098-3.772-.024-8.911-2.64-10.983-8.134a2.188 2.188 0 0 1-1.987-2.179ZM76.72 15.29c-.266-.808-.766-1.72-1.535-2.746h-9.827c1.555 3.316 4.496 5.214 7.122 5.77 1.004.211 1.956.226 2.75.03.632-.158 1.157-.445 1.45-.92.324-.527.33-1.242.04-2.134Zm12.182-4.7c1.793 1.237 3.266 3.194 4.134 5.5a1.094 1.094 0 0 1-2.047.77c-.703-1.868-1.877-3.47-3.328-4.469a1.094 1.094 0 1 1 1.24-1.803v.001Zm1.025 19.32c1.96-1.894 3.11-4.073 3.63-6.288a1.095 1.095 0 0 0-2.131-.499c-.43 1.84-1.391 3.642-3.017 5.21a1.093 1.093 0 1 0 1.518 1.576Zm-4.458 3.036c-1.817.873-3.98 1.582-6.531 2.06a1.092 1.092 0 0 1-1.147-1.703 1.094 1.094 0 0 1 .742-.444c2.338-.44 4.322-1.085 5.99-1.886a1.094 1.094 0 0 1 .946 1.973ZM65.919 35.51c2.585.195 4.952.236 7.113.144a1.095 1.095 0 0 0-.09-2.185c-2.084.087-4.365.046-6.86-.142a1.096 1.096 0 0 0-.163 2.183Zm-11.334 1.443c1.757-.698 3.756-1.18 5.974-1.402a1.09 1.09 0 0 0 .939-.772 1.094 1.094 0 0 0-.73-1.364c-.138-.04-.282-.055-.425-.04-2.44.244-4.636.778-6.565 1.546a1.092 1.092 0 0 0-.613 1.42c.224.56.86.835 1.42.612Zm-35.69 73.251v-12.27a1.094 1.094 0 1 1 2.188 0v12.27c0 1.448.952 2.726 2.339 3.143l39.375 11.813a3.29 3.29 0 0 0 1.886 0l39.374-11.813a3.288 3.288 0 0 0 2.339-3.143V94.215l-7.24 2.353-.19.061-.77.25-.18.06-19.587 6.363a3.28 3.28 0 0 1-3.732-1.279l-8.765-12.935a1.093 1.093 0 1 1 1.81-1.227l8.767 12.934c.273.403.78.578 1.244.427l39.364-12.79a1.098 1.098 0 0 0 .569-1.652c-3.094-4.589-9.644-14.296-10.895-16.15L63.74 56.62 26.972 68.586a1.094 1.094 0 0 1-.676-2.08l35.72-11.63-9.771-14.37a1.096 1.096 0 0 0-1.243-.426l-39.366 12.79a1.097 1.097 0 0 0-.57 1.654l9.62 14.26 43.055 13.97 37.188-12.068a1.092 1.092 0 0 1 1.203.31 1.1 1.1 0 0 1 .264.816 1.084 1.084 0 0 1-.404.756c-.115.092-.247.16-.389.2L64.435 84.83c-3.885 5.73-7.769 11.462-11.652 17.193a3.284 3.284 0 0 1-3.732 1.28L9.687 90.513A3.274 3.274 0 0 1 7.6 88.46a3.278 3.278 0 0 1 .38-2.903l8.37-12.407a1.094 1.094 0 1 1 1.814 1.222L9.794 86.78a1.095 1.095 0 0 0 .569 1.651l39.364 12.791c.464.151.97-.024 1.245-.427l11.047-16.299L19.652 70.75a1.112 1.112 0 0 1-.57-.429l-9.83-14.573a3.286 3.286 0 0 1 1.707-4.957l39.366-12.79a3.283 3.283 0 0 1 3.728 1.275l10.38 15.266 42.609 13.872 9.37-13.889a1.102 1.102 0 0 0 .126-.968 1.09 1.09 0 0 0-.695-.685l-39.366-12.79a1.092 1.092 0 0 0-1.243.424L67.583 51.76a1.095 1.095 0 0 1-1.81-1.23l7.653-11.254a3.283 3.283 0 0 1 3.728-1.275l39.366 12.79a3.293 3.293 0 0 1 2.089 2.054 3.292 3.292 0 0 1-.383 2.903l-9.415 13.96 10.688 15.85c.576.852.718 1.93.381 2.902a3.28 3.28 0 0 1-2.087 2.052l-9.21 2.992v16.7a5.46 5.46 0 0 1-1.082 3.264 5.461 5.461 0 0 1-2.816 1.973c-8.79 2.638-33.512 10.056-39.375 11.812a5.434 5.434 0 0 1-3.14 0c-5.863-1.756-30.587-9.174-39.376-11.812a5.467 5.467 0 0 1-3.899-5.237Zm44.845-29.75 33.134-10.75L63.74 58.918 30.606 69.704l33.134 10.75ZM52.798 55.365a19.98 19.98 0 0 1-1.518-2.496 1.095 1.095 0 0 0-1.95.993 22.085 22.085 0 0 0 1.685 2.772c.35.492 1.033.606 1.525.258.492-.35.608-1.035.258-1.527Zm-3.066-10.679a11.993 11.993 0 0 0 .032 3.634 1.094 1.094 0 0 1-2.16.34 14.263 14.263 0 0 1-.038-4.29 1.094 1.094 0 1 1 2.166.316Z"/>
</svg>
