<svg xmlns="http://www.w3.org/2000/svg" width="21" height="21" fill="currentColor" viewBox="0 0 21 21">
  <path d="M3.031.65A2.894 2.894 0 0 0 .148 3.533v4.268a.75.75 0 1 0 1.5 0V3.533c0-.773.61-1.383 1.383-1.383H7.3a.75.75 0 0 0 0-1.5H3.03ZM13.7.65a.75.75 0 1 0 0 1.5h4.266c.773 0 1.383.61 1.383 1.383v4.268a.752.752 0 0 0 1.037.693.75.75 0 0 0 .463-.693V3.533c0-1.583-1.3-2.883-2.883-2.883h-4.266ZM6.3 6.246a.75.75 0 0 0-.75.75v1.17a.75.75 0 0 0 1.5 0v-1.17a.75.75 0 0 0-.75-.75Zm8.4 0a.75.75 0 0 0-.75.75v1.17a.75.75 0 1 0 1.5 0v-1.17a.75.75 0 0 0-.75-.75Zm-4.201.584a.75.75 0 0 0-.75.75v3.025c0 .107-.042.21-.125.291l-.248.243a.75.75 0 1 0 1.047 1.074l.248-.242c.367-.358.578-.852.578-1.366V7.58a.75.75 0 0 0-.75-.75Zm-9.6 6.62a.75.75 0 0 0-.75.75v4.267c0 1.583 1.3 2.883 2.883 2.883H7.3a.75.75 0 1 0 0-1.5H3.03c-.773 0-1.383-.61-1.383-1.383v-4.268a.75.75 0 0 0-.75-.75Zm19.2 0a.75.75 0 0 0-.75.75v4.267c0 .773-.61 1.383-1.383 1.383h-4.266a.75.75 0 1 0 0 1.5h4.266c1.583 0 2.883-1.3 2.883-2.883v-4.268a.75.75 0 0 0-.75-.75Zm-6.393.429a.75.75 0 0 0-.57.064c-.807.448-1.95.702-3.014.702-1.064 0-2.04-.273-2.51-.637a.752.752 0 0 0-1.204.687.749.749 0 0 0 .284.498c.899.697 2.14.952 3.43.952s2.638-.277 3.742-.89a.75.75 0 0 0-.158-1.376Z"/>
</svg>
