<svg xmlns="http://www.w3.org/2000/svg" width="60" height="60" fill="currentColor" viewBox="0 0 60 60">
  <path fill="currentColor" d="M19.847 18.396c-.553.407-.91 1.104-.887 2.057a1 1 0 1 1-2 .047c-.041-1.738.692-2.97 1.7-3.713 1.68-1.24 4.186-1.074 5.55.462.585.658.978 1.567.988 2.745.016 2.003-.832 3.213-1.752 4.427l-.098.128c-.658.864-1.337 1.756-1.418 3.239a1 1 0 1 1-1.997-.11c.112-2.047 1.015-3.273 1.919-4.466l.062-.081c.651-.857 1.295-1.704 1.284-3.122-.005-.61-.18-1.093-.483-1.433-.704-.793-2-.82-2.868-.18Zm1.862 13.69a1.23 1.23 0 0 1-2.007-1.341 1.233 1.233 0 0 1 1.137-.76 1.23 1.23 0 0 1 .87 2.1ZM42.055 1.515l-3 5a1.002 1.002 0 0 1-1.828-.272.999.999 0 0 1 .113-.757l3-5a1 1 0 0 1 1.715 1.029Zm12.732.295-11 8a1 1 0 1 1-1.176-1.618l11-8a1 1 0 0 1 1.176 1.618ZM53.44 13.97l-8 2a1 1 0 0 1-.485-1.94l8-2a1.001 1.001 0 0 1 .844 1.777 1 1 0 0 1-.359.163ZM38.722 28.117a17.902 17.902 0 0 1-1.505 3.891l-.003.006a17.897 17.897 0 0 1-3.19 4.314 17.966 17.966 0 0 1-4.282 3.172l-.041.022a.488.488 0 0 0-.039.02c-6.79 3.563-15.386 2.492-21.092-3.214-7.025-7.024-7.025-18.43 0-25.455 7.024-7.024 18.43-7.024 25.455 0a17.949 17.949 0 0 1 5.263 13.2.5.5 0 0 0 1 .026 18.949 18.949 0 0 0-5.556-13.934c-7.415-7.414-19.455-7.414-26.87 0-7.415 7.416-7.415 19.457 0 26.871 6.003 6.005 15.04 7.146 22.197 3.428a16.795 16.795 0 0 1 3.939.358 5 5 0 0 0 1.443 3.992.5.5 0 0 0 .707-.706 4 4 0 0 1-1.097-3.596c.514-2.112 1.953-2.871 3.125-3.15a4 4 0 0 1 3.629 1.09l14.414 14.413c-.05.18-.119.356-.203.523-.387.724-1.18 1.729-2.191 2.74-1.011 1.013-2.015 1.803-2.74 2.19a2.934 2.934 0 0 1-.523.204L38.677 46.638a.5.5 0 0 0-.707.706L49.936 59.31c.21.213.638.314 1.22.082.794-.317 2.086-1.264 3.376-2.554 1.29-1.292 2.238-2.585 2.555-3.379.233-.581.13-1.01-.08-1.22L42.512 37.745a5 5 0 0 0-3.995-1.444 16.95 16.95 0 0 1-.354-3.944 18.9 18.9 0 0 0 1.527-3.99.501.501 0 1 0-.968-.25Zm-6.817-15.122c-5.854-5.853-15.36-5.853-21.213 0a.5.5 0 0 1-.707-.706c6.244-6.244 16.383-6.244 22.627 0 6.244 6.243 6.244 16.383 0 22.627s-16.383 6.244-22.627 0c-5.12-5.12-6.042-12.855-2.768-18.917a.5.5 0 0 1 .88.475c-3.07 5.683-2.205 12.934 2.595 17.735 5.853 5.853 15.359 5.853 21.213 0 5.854-5.855 5.854-15.36 0-21.214Zm-21.316 3.829c.955-1.654 2.695-3.18 3.609-3.61a.5.5 0 0 1 .427.904c-.808.38-2.327 1.745-3.17 3.205-.831 1.44-1.283 3.09-1.285 4.22a.5.5 0 1 1-1-.002c.002-1.26.49-3.11 1.419-4.718Z"/>
</svg>
