<svg xmlns="http://www.w3.org/2000/svg" width="21" height="20" fill="currentColor" viewBox="0 0 21 20">
  <path d="M3.75.25a1.5 1.5 0 0 0-1.5 1.5v16.5a1.5 1.5 0 0 0 1.5 1.5h13.5a1.5 1.5 0 0 0 1.5-1.5v-12a.751.751 0 0 0-.219-.531l-5.25-5.25A.75.75 0 0 0 12.75.25h-9Zm0 1.5h8.69l4.81 4.81v11.69H3.75V1.75Zm9-1.5A.75.75 0 0 0 12 1v5.25a.75.75 0 0 0 .75.75H18a.75.75 0 1 0 0-1.5h-4.5V1a.75.75 0 0 0-.75-.75ZM7.5 10a.75.75 0 1 0 0 1.5h6a.75.75 0 1 0 0-1.5h-6Zm0 3a.75.75 0 1 0 0 1.5h6a.75.75 0 1 0 0-1.5h-6Z"/>
</svg>
