<svg xmlns="http://www.w3.org/2000/svg" width="20" height="20" fill="currentColor" viewBox="0 0 20 20">
  <path fill="currentColor" d="M14.5 3H16a3 3 0 0 0-6 0h1.5a1.5 1.5 0 1 1 3 0Zm-6 0H10a3 3 0 1 0-6 0h1.5a1.5 1.5 0 0 1 3 0ZM2 3C.904 3 0 3.904 0 5v1c0 1.096.904 2 2 2h16c1.096 0 2-.904 2-2V5c0-1.096-.904-2-2-2H2Zm0 1.5h16c.285 0 .5.215.5.5v1a.49.49 0 0 1-.5.5H2a.49.49 0 0 1-.5-.5V5c0-.285.215-.5.5-.5Zm0 2V16c0 2.2 1.8 4 4 4h8c2.2 0 4-1.8 4-4V6.5H2ZM3.5 8h13v8c0 1.39-1.11 2.5-2.5 2.5H6c-1.39 0-2.5-1.11-2.5-2.5V8Zm6.5.895a.99.99 0 0 0-.824.423l.824.567.898 1.308c.13.19.32.33.542.395l1.523.45-.97 1.257a1 1 0 0 0-.206.639l.045 1.586-1.496-.532a1 1 0 0 0-.672 0l-1.496.532.045-1.586a1 1 0 0 0-.207-.64l-.97-1.257 1.525-.45c.22-.064 1.42-1.572 1.549-1.762l-.902-.517-.93 1.32-1.524.45c-.658.194-.928 1.025-.51 1.569l.969 1.26-.043 1.585c-.02.686.688 1.2 1.334.97L10 15.93l1.496.533c.646.23 1.353-.285 1.334-.97l-.043-1.587.969-1.26c.418-.543.148-1.374-.51-1.568l-1.523-.45-.9-1.31A.99.99 0 0 0 10 8.895Z"/>
</svg>
