<svg xmlns="http://www.w3.org/2000/svg" width="21" height="21" fill="currentColor" viewBox="0 0 21 21">
  <path fill="currentColor" d="M1.95 7.2a.75.75 0 0 0 0 1.5V7.2Zm16.8 1.5a.75.75 0 1 0 0-1.5v1.5Zm-16.7 3.9a.75.75 0 1 0 0 1.5v-1.5Zm16.8 1.5a.75.75 0 1 0 0-1.5v1.5Zm.35-3.75a8.849 8.849 0 0 1-8.85 8.85v1.5c5.716 0 10.35-4.634 10.35-10.35h-1.5Zm-8.85 8.85a8.85 8.85 0 0 1-8.85-8.85H0C0 16.066 4.634 20.7 10.35 20.7v-1.5ZM1.5 10.35a8.85 8.85 0 0 1 8.85-8.85V0C4.634 0 0 4.634 0 10.35h1.5Zm8.85-8.85a8.85 8.85 0 0 1 8.85 8.85h1.5C20.7 4.634 16.066 0 10.35 0v1.5Zm0 17.7c-.332 0-.707-.15-1.114-.544-.41-.396-.814-1.006-1.169-1.819-.71-1.621-1.167-3.915-1.167-6.487H5.4c0 2.73.482 5.236 1.293 7.089.405.925.906 1.72 1.5 2.296.6.578 1.329.965 2.157.965v-1.5ZM6.9 10.35c0-2.573.458-4.866 1.167-6.488.355-.812.76-1.422 1.17-1.818.406-.394.781-.544 1.113-.544V0c-.828 0-1.558.387-2.156.965-.595.575-1.096 1.37-1.501 2.296C5.883 5.114 5.4 7.621 5.4 10.35h1.5Zm3.45 10.35c.828 0 1.558-.387 2.156-.965.595-.575 1.096-1.371 1.5-2.296.811-1.853 1.294-4.36 1.294-7.09h-1.5c0 2.573-.458 4.867-1.167 6.489-.356.812-.76 1.422-1.17 1.818-.406.393-.781.544-1.113.544v1.5Zm4.95-10.35c0-2.73-.483-5.236-1.293-7.089-.405-.925-.906-1.72-1.501-2.296C11.908.387 11.178 0 10.35 0v1.5c.332 0 .707.15 1.113.544.41.396.814 1.006 1.17 1.818.71 1.622 1.167 3.915 1.167 6.488h1.5ZM1.95 8.7h16.8V7.2H1.95v1.5Zm.1 5.4h16.8v-1.5H2.05v1.5Z"/>
</svg>
