<svg xmlns="http://www.w3.org/2000/svg" width="19" height="19" fill="currentColor" viewBox="0 0 19 19">
  <path fill="currentColor" d="M16.997 2.804a4.691 4.691 0 0 0-3.533-1.556c-1.932 0-3.155 1.128-3.84 2.074-.178.246-.33.492-.457.724a6.85 6.85 0 0 0-.456-.724c-.686-.946-1.909-2.074-3.84-2.074a4.693 4.693 0 0 0-3.534 1.556C.477 3.76 0 5.042 0 6.412c0 1.49.596 2.878 1.875 4.365 1.143 1.329 2.787 2.698 4.69 4.284.71.59 1.444 1.203 2.225 1.87l.023.02a.543.543 0 0 0 .708 0l.023-.02c.781-.667 1.515-1.28 2.225-1.87 1.903-1.585 3.548-2.955 4.69-4.284 1.28-1.487 1.875-2.874 1.875-4.365 0-1.37-.474-2.651-1.337-3.608Zm-5.925 11.458c-.612.51-1.241 1.034-1.905 1.598a248.965 248.965 0 0 0-1.905-1.598c-3.726-3.104-6.187-5.154-6.187-7.85 0-1.114.38-2.15 1.069-2.914a3.622 3.622 0 0 1 2.726-1.2c1.473 0 2.425.887 2.964 1.63.484.669.736 1.34.822 1.6a.526.526 0 0 0 .426.354.546.546 0 0 0 .596-.354c.086-.26.338-.931.822-1.6.54-.743 1.491-1.63 2.964-1.63a3.62 3.62 0 0 1 2.726 1.2c.69.765 1.07 1.8 1.07 2.914 0 2.696-2.462 4.746-6.188 7.85Z"/>
</svg>
