<svg xmlns="http://www.w3.org/2000/svg" width="20" height="20" fill="currentColor" viewBox="0 0 20 20">
  <path fill="currentColor" d="m11.417 2.018 5.754 4.03c.307.214.655.615.927 1.137s.402 1.036.402 1.414v6.78a3.12 3.12 0 0 1-3.115 3.12H4.615a3.128 3.128 0 0 1-3.115-3.13v-6.9c0-.344.116-.83.365-1.338.249-.506.567-.902.847-1.12l5.002-3.908c.989-.766 2.674-.806 3.703-.085Zm.861-1.23c-1.569-1.1-3.976-1.04-5.485.13l-5.005 3.91C.79 5.608 0 7.208 0 8.468v6.9c0 2.55 2.068 4.63 4.615 4.63h10.77A4.62 4.62 0 0 0 20 15.379v-6.78c0-1.35-.87-3.01-1.968-3.78L12.278.789Zm-1.57 10.503a1 1 0 0 1 .292.707v4a1 1 0 1 1-2 0v-4a1 1 0 0 1 1.707-.707h.001Z"/>
</svg>
