<svg xmlns="http://www.w3.org/2000/svg" width="32" height="32" fill="currentColor" viewBox="0 0 32 32">
  <path d="M13.386 22.714a.89.89 0 0 1 .889-.892h3.919c.49 0 .889.4.889.892v7.928a.89.89 0 0 1-.889.891h-3.92a.89.89 0 0 1-.888-.892v-7.927Zm1.778.892v6.144h2.141v-6.144h-2.141ZM9.76 10.849a.89.89 0 0 1 .889-.892h11.178c.49 0 .889.4.889.892v19.793a.89.89 0 0 1-.89.891H10.65a.89.89 0 0 1-.889-.892V10.85Zm1.778.892V29.75h9.4V11.74h-9.4Zm-.005 18.9a.89.89 0 0 1-.888.892H4.813a.89.89 0 0 1-.89-.892v-12.66a.89.89 0 0 1 .89-.892h5.833c.49 0 .888.4.888.892v12.66Zm-1.777-.891V18.873H5.702V29.75h4.055Zm18.785.892a.89.89 0 0 1-.889.891h-5.832a.89.89 0 0 1-.89-.892v-12.66a.89.89 0 0 1 .89-.892h5.832c.491 0 .89.4.89.892v12.66Zm-1.777-.892V18.873h-4.056V29.75h4.056ZM15.01 1.298c.5-1.022 1.95-1.017 2.449 0l.586 1.196 1.308.191c1.117.164 1.563 1.542.757 2.334l-.95.931.225 1.317c.19 1.118-.982 1.971-1.982 1.442l-1.169-.619-1.169.619c-.999.529-2.173-.321-1.982-1.441l.225-1.32-.948-.93c-.808-.792-.358-2.169.757-2.333l1.308-.191.585-1.196Zm.12 4.547-.153.894.842-.446a.886.886 0 0 1 .83 0l.842.446-.162-.95a.894.894 0 0 1 .255-.787l.686-.673-.945-.138a.889.889 0 0 1-.67-.49l-.42-.859-.421.86a.89.89 0 0 1-.67.489l-.944.138.686.673a.894.894 0 0 1 .243.843ZM9 5.772c.107-.333.41-.329.712-.372.136-.277.224-.566.573-.566.35 0 .439.29.574.566l.329.048c.389.057.545.538.264.814l-.239.233c.052.304.15.59-.133.795-.283.206-.525.024-.795-.118-.271.143-.512.324-.795.118-.283-.206-.185-.494-.133-.795-.22-.215-.466-.39-.358-.723ZM4.833 8.16c.108-.333.412-.329.713-.373l.147-.298a.476.476 0 0 1 .853 0l.147.298c.304.045.604.04.713.373.107.334-.14.508-.358.722l.056.33a.477.477 0 0 1-.469.558c-.147 0-.204-.047-.515-.21l-.295.155a.476.476 0 0 1-.69-.503l.057-.33c-.22-.214-.467-.388-.359-.722Zm16.063-2.387c.107-.333.411-.329.713-.372l.146-.3a.476.476 0 0 1 .854 0l.146.3c.304.044.606.039.713.372.108.334-.14.509-.358.723l.056.329a.477.477 0 0 1-.468.558c-.147 0-.205-.046-.516-.21l-.294.155a.476.476 0 0 1-.69-.503l.056-.33c-.22-.214-.467-.388-.358-.722ZM25.06 8.16c.107-.333.411-.329.713-.373l.146-.298a.476.476 0 0 1 .854 0l.146.298c.304.045.606.04.713.373.108.334-.14.508-.358.722l.056.33a.477.477 0 0 1-.468.558c-.147 0-.205-.047-.516-.21l-.294.155a.476.476 0 0 1-.69-.503l.056-.33c-.22-.214-.467-.388-.358-.722Zm-11.12 5.528a.89.89 0 0 1 .889-.892h2.824c.491 0 .89.4.89.892a.89.89 0 0 1-.89.892H14.83a.89.89 0 0 1-.89-.892Zm0 2.867a.89.89 0 0 1 .889-.892h2.824c.491 0 .89.4.89.892a.89.89 0 0 1-.89.892H14.83a.89.89 0 0 1-.89-.892Zm0 2.868a.89.89 0 0 1 .889-.892h2.824c.491 0 .89.4.89.892a.89.89 0 0 1-.89.892H14.83a.89.89 0 0 1-.89-.892Z"/>
</svg>
