<svg xmlns="http://www.w3.org/2000/svg" width="21" height="21" fill="currentColor" viewBox="0 0 21 21">
  <path d="M2.45 3.425A3.15 3.15 0 0 1 5.6.275h9.6a3.15 3.15 0 0 1 3.15 3.15v14.4a3.15 3.15 0 0 1-3.15 3.15H5.6a3.15 3.15 0 0 1-3.15-3.15v-14.4Zm3.15-1.65a1.65 1.65 0 0 0-1.65 1.65v14.4c0 .911.738 1.65 1.65 1.65h9.6a1.65 1.65 0 0 0 1.65-1.65v-14.4a1.65 1.65 0 0 0-1.65-1.65h-.6a.75.75 0 0 1 .024.866l-1.6 2.4a.75.75 0 0 1-.624.334h-4a.75.75 0 0 1-.624-.334l-1.6-2.4a.75.75 0 0 1 .023-.866h-.6Zm1.8 0a.752.752 0 0 1 .024.034L8.8 3.875h3.197l1.378-2.066a.7.7 0 0 1 .024-.034h-6Z"/>
</svg>
