<svg xmlns="http://www.w3.org/2000/svg" width="67" height="67" fill="currentColor" viewBox="0 0 67 67">
  <path fill="currentColor" d="m18.057 39.037-.496-.825-.022-.037-.013-.022-.5-.83.007-.004c-2.525-4.34-4.633-9.104-4.633-13.174C12.4 12.165 21.591 2.2 33.233 2.2c11.643 0 20.833 9.965 20.833 21.945 0 4.34-2.397 9.471-5.142 14.035-2.819 4.69-6.313 9.271-9.064 12.643a8.5 8.5 0 0 1-3.658 2.642c3.987.194 6.898.807 6.898 1.535 0 .883-4.298 1.6-9.6 1.6s-9.6-.717-9.6-1.6c0-.698 2.674-1.289 6.406-1.509l.025-.002a8.497 8.497 0 0 1-3.725-2.666c-2.583-3.167-5.823-7.4-8.543-11.79l-.006.004Zm15.398-8.507a7.5 7.5 0 1 0-.477-14.992 7.5 7.5 0 0 0 .477 14.992ZM33.233 4.2C22.807 4.2 14.4 13.155 14.4 24.145c0 3.743 2.122 8.458 4.856 13.003 2.75 4.574 6.176 9.073 8.9 12.41 2.656 3.256 7.498 3.256 10.155 0 2.723-3.337 6.15-7.836 8.9-12.41 2.733-4.545 4.855-9.26 4.855-13.003 0-10.99-8.407-19.945-18.833-19.945Zm-9.157 21.361a9.5 9.5 0 0 1 5.489-11.304h-.001a9.502 9.502 0 0 1 3.669-.724 9.5 9.5 0 1 1-9.157 12.028Zm-7.612 23.58a1 1 0 0 1-.798 1.247c-4.186.702-7.59 1.636-9.92 2.7-1.169.53-2.015 1.072-2.554 1.59-.538.517-.692.931-.692 1.241 0 .51.446 1.288 2.018 2.204 1.501.874 3.74 1.696 6.594 2.4C16.804 61.922 24.72 62.8 33.5 62.8c8.78 0 16.696-.878 22.388-2.28 2.854-.703 5.093-1.525 6.594-2.399 1.573-.916 2.018-1.694 2.018-2.204 0-.275-.12-.629-.523-1.068-.408-.444-1.055-.919-1.97-1.398-1.827-.956-4.526-1.83-7.913-2.545a1 1 0 0 1 .412-1.957c3.469.731 6.37 1.653 8.429 2.73 1.028.54 1.895 1.141 2.516 1.82.626.681 1.049 1.495 1.049 2.42 0 1.666-1.345 2.96-3.011 3.93-1.738 1.012-4.185 1.89-7.122 2.613-5.89 1.45-13.974 2.337-22.867 2.337s-16.977-.886-22.867-2.337c-2.937-.724-5.384-1.6-7.122-2.614C1.845 58.88.5 57.586.5 55.918c0-1.045.54-1.945 1.306-2.682.765-.736 1.835-1.39 3.11-1.97 2.556-1.165 6.152-2.136 10.418-2.852a1.002 1.002 0 0 1 1.13.726Z"/>
</svg>
