<svg xmlns="http://www.w3.org/2000/svg" width="22" height="22" fill="currentColor" viewBox="0 0 22 22">
  <path d="M2.24 5.269c-.058.17-.09.35-.09.54v9.39c0 .912.74 1.65 1.65 1.65h14.4a1.65 1.65 0 0 0 1.65-1.65V5.81c0-.077-.005-.153-.015-.227l-8.449 5.07a.75.75 0 0 1-.791-.012L2.24 5.268Zm1.134-1.055 7.64 4.912 7.96-4.776a1.643 1.643 0 0 0-.774-.191H3.8c-.147 0-.29.019-.426.055ZM.65 5.81a3.15 3.15 0 0 1 3.15-3.15h14.4a3.15 3.15 0 0 1 3.15 3.15v9.39a3.15 3.15 0 0 1-3.15 3.15H3.8A3.15 3.15 0 0 1 .65 15.2V5.81Z"/>
</svg>
