<svg xmlns="http://www.w3.org/2000/svg" width="22" height="22" fill="currentColor" viewBox="0 0 22 22">
  <path fill="currentColor" d="M7.5 8.375a3.75 3.75 0 1 1 7.5 0 3.75 3.75 0 0 1-7.5 0Zm3.75-2.25a2.25 2.25 0 1 0 0 4.5 2.25 2.25 0 0 0 0-4.5Zm0-4.5a6.75 6.75 0 0 0-6.75 6.75c0 3.105 1.734 5.932 3.566 8.04a23.644 23.644 0 0 0 3.184 3.023 23.633 23.633 0 0 0 3.184-3.023C16.266 14.306 18 11.48 18 8.374a6.75 6.75 0 0 0-6.75-6.75v.001Zm0 18.75-.43.614-.003-.002-.005-.003-.02-.014a10.157 10.157 0 0 1-.32-.238 25.148 25.148 0 0 1-3.538-3.334C5.016 15.193 3 12.02 3 8.375a8.25 8.25 0 1 1 16.5 0c0 3.645-2.016 6.818-3.934 9.023a25.157 25.157 0 0 1-3.538 3.334c-.106.08-.212.16-.32.238l-.02.014-.005.003-.002.002-.431-.614Zm0 0 .431.614a.753.753 0 0 1-.861 0l.43-.614Z"/>
</svg>
