<svg width="13" height="13" viewBox="0 0 13 13" fill="none" xmlns="http://www.w3.org/2000/svg">
<path d="M8.75001 0C8.58416 0 8.42013 0.0338453 8.26758 0.0976562C8.11384 0.161965 7.97514 0.255546 7.85938 0.373047L6.22266 2.00977L6.21876 2.01177L6.21676 2.01567L0.363246 7.86918C0.247923 7.98501 0.155955 8.12405 0.0937558 8.27539C0.0317975 8.42651 -0.000498092 8.58845 5.8075e-06 8.75195V11.543C5.8075e-06 11.8736 0.132051 12.1919 0.36524 12.4258C0.599713 12.6605 0.919065 12.793 1.25001 12.793H4.25001H11.75C11.9489 12.793 12.1397 12.714 12.2803 12.5733C12.421 12.4326 12.5 12.2419 12.5 12.043C12.5 11.8441 12.421 11.6533 12.2803 11.5126C12.1397 11.372 11.9489 11.293 11.75 11.293H6.06055L10.7773 6.57617L10.7832 6.57027L12.42 4.93355L12.4239 4.92965C12.5403 4.81395 12.6321 4.67624 12.6954 4.52536C12.7592 4.37281 12.793 4.20873 12.793 4.04293C12.793 3.87709 12.7592 3.71306 12.6954 3.56051C12.6321 3.40962 12.5403 3.27192 12.4239 3.15621L12.42 3.15232L9.64067 0.373018C9.52514 0.256074 9.38617 0.161965 9.23243 0.0976562C9.07934 0.0335146 8.91585 -9.99998e-08 8.75001 0ZM8.75001 1.60352L11.1895 4.04297L10.25 4.98047L7.81251 2.54297L8.75001 1.60352ZM6.75001 3.60547L9.18751 6.04297L3.93751 11.293H1.50001V8.85352L6.75001 3.60547Z" fill="currentColor"/>
</svg>
