<svg xmlns="http://www.w3.org/2000/svg" width="20" height="20" fill="currentColor" viewBox="0 0 20 20">
  <path fill="currentColor" d="M3.754 0c-.478 0-.89.229-1.21.528a.762.762 0 0 0-.015.015L.967 2.102a2.925 2.925 0 0 0-.85 1.826c-.08.972.11 1.984.559 3.186.724 1.952 1.82 3.77 3.422 5.697l.004.002a21.102 21.102 0 0 0 7.01 5.478c.975.466 2.322 1.043 3.845 1.141.104.007.19.006.26.006a3.075 3.075 0 0 0 2.295-.99c.176-.208 1.396-1.422 1.396-1.422a.746.746 0 0 0 .149-.21s.157-.314.236-.724c.08-.41.12-1.064-.39-1.566l-2.52-2.516.016.016c-.226-.247-.616-.576-1.213-.576-.613 0-.998.337-1.221.56l-.9.896c-.076.078-.097.096-.164.096-.03 0-.048 0-.12-.035.026.013-.02-.01-.023-.014a6.597 6.597 0 0 0-.484-.26 5.709 5.709 0 0 1-.497-.269h-.002c-1.394-.88-2.663-2.031-3.884-3.533l-.002-.002c-.663-.84-1.073-1.51-1.365-2.215a.472.472 0 0 1-.028-.146c.002-.02-.012-.03.082-.123l.004-.004a.75.75 0 0 0 .137-.192c-.13.26-.215.27-.117.172l-.02.02c.163-.146.13-.114.21-.18.08-.065.116-.11.28-.28l.016-.015c.139-.134.267-.265.389-.387.324-.324.584-.745.584-1.238s-.26-.916-.584-1.24L6.234 1.823l-.001-.002-.006-.006c-.15-.153-.294-.298-.428-.436-.27-.282-.548-.557-.832-.826L4.953.539C4.735.321 4.343 0 3.753 0Zm0 1.5c-.012 0 .064.025.139.1l.013.014c.279.263.55.533.816.81.148.152.295.298.436.443a.862.862 0 0 0 .008.008l1.25 1.248c.16.16.145.205.145.178 0-.027.016.017-.145.178-.14.138-.263.267-.383.383a.816.816 0 0 0-.015.015c-.194.198-.216.214-.176.182.04-.033-.062.047-.27.232a.758.758 0 0 0-.03.028c.018-.017-.036.053-.034.046-.287.296-.464.662-.502.99-.028.268.005.54.094.794l.013.04a.757.757 0 0 0 .018.05c.357.862.86 1.669 1.584 2.585l.012.014.002.002c1.306 1.605 2.7 2.876 4.246 3.852.229.145.445.252.629.343.164.083.303.154.392.21.02.011.04.023.063.033-.072-.036-.056-.022.05.03h.002c.24.12.518.194.79.194.692 0 1.148-.457 1.226-.535l.897-.894c.088-.088.198-.123.162-.123-.03 0 .047.024.105.087a.84.84 0 0 0 .024.026l.015.014 2.518 2.513.002.002c-.036-.036.007.027-.03.215-.028.146-.065.223-.087.275-.154.15-.968.936-1.34 1.368-.342.365-.625.488-1.176.488-.07 0-.126 0-.16-.002h-.002c-1.195-.076-2.374-.558-3.293-.996l-.004-.002a19.578 19.578 0 0 1-6.508-5.09C3.73 10.019 2.738 8.365 2.08 6.59v-.002c-.401-1.073-.526-1.833-.47-2.533v-.002c.034-.378.149-.62.417-.889L3.57 1.621l.006-.004c.122-.11.189-.117.178-.117Z"/>
</svg>
