<svg xmlns="http://www.w3.org/2000/svg" width="22" height="22" fill="currentColor" viewBox="0 0 22 22">
  <path d="M12.18.66a.75.75 0 1 0-.25 1.48 9.652 9.652 0 0 1 5.224 2.704 9.59 9.59 0 0 1 2.708 5.21.75.75 0 0 0 1.478-.251 11.106 11.106 0 0 0-3.129-6.024A11.17 11.17 0 0 0 12.18.66ZM4.305 1.912c-.478 0-.89.229-1.21.527a.72.72 0 0 0-.015.016L1.518 4.014a2.925 2.925 0 0 0-.85 1.826c-.08.971.11 1.984.559 3.185.724 1.953 1.82 3.772 3.422 5.698l.004.002A21.1 21.1 0 0 0 11.66 20.2l.002.002c.976.466 2.322 1.043 3.846 1.14.104.008.191.007.26.007a3.075 3.075 0 0 0 2.293-.99c.177-.208 1.398-1.422 1.398-1.422a.751.751 0 0 0 .149-.21s.157-.314.236-.724c.08-.41.12-1.065-.389-1.567l-2.52-2.515.015.015c-.226-.246-.616-.576-1.213-.576-.614 0-.998.338-1.221.56l-.899.897c-.077.078-.098.096-.166.096-.03 0-.047 0-.119-.035.029.014-.021-.011-.021-.012-.167-.1-.33-.184-.486-.262a5.764 5.764 0 0 1-.499-.269c-1.394-.88-2.663-2.03-3.884-3.531l-.002-.002c-.663-.84-1.073-1.512-1.366-2.217a.472.472 0 0 1-.027-.147c.002-.018-.008-.031.08-.12l.002-.003a.75.75 0 0 0 .14-.195c-.13.26-.214.27-.116.172l-.024.023c.173-.154.133-.116.215-.183.08-.066.114-.11.28-.28l.015-.013c.14-.135.266-.265.389-.387.324-.324.584-.747.584-1.24 0-.494-.26-.915-.584-1.238l-1.25-1.248c-.15-.154-.294-.298-.428-.436a24.024 24.024 0 0 0-.832-.826l-.014-.014c-.218-.218-.61-.539-1.2-.539Zm0 1.5c-.013 0 .064.025.139.1l.013.013a22.415 22.415 0 0 1 .816.81c.148.153.295.299.436.444a.822.822 0 0 0 .008.008l1.25 1.248c.161.16.145.205.145.178 0-.027.016.017-.145.178-.139.138-.263.267-.383.382a.743.743 0 0 0-.015.016c-.194.198-.216.216-.176.184.04-.033-.062.045-.27.23l-.029.03c.018-.019-.038.056-.037.05-.284.295-.462.658-.5.985a1.833 1.833 0 0 0 .094.793l.013.04a.753.753 0 0 0 .018.05c.357.862.86 1.669 1.584 2.585l.012.014.002.002c1.305 1.605 2.7 2.876 4.246 3.852.229.145.445.252.629.343a5.764 5.764 0 0 1 .45.24c-.066-.033-.04-.015.057.034.24.12.517.193.79.193.692 0 1.148-.457 1.226-.535l.896-.895c.088-.087.199-.123.163-.123-.03 0 .047.024.105.088a.803.803 0 0 0 .024.026l.01.01 2.523 2.517.002.004c-.036-.036.007.024-.03.213-.028.146-.065.223-.087.275-.154.15-.968.937-1.34 1.367-.342.366-.625.489-1.176.489-.069 0-.127 0-.16-.002h-.002c-1.195-.076-2.374-.558-3.293-.996l-.004-.002A19.572 19.572 0 0 1 5.8 13.762c-1.52-1.83-2.511-3.485-3.17-5.26V8.5c-.401-1.073-.526-1.833-.469-2.533v-.002c.033-.378.148-.62.416-.889l1.543-1.543.006-.004c.122-.11.189-.117.178-.117Zm7.69 1.174a.75.75 0 0 0-.249 1.48 5.054 5.054 0 0 1 2.756 1.428 5.058 5.058 0 0 1 1.43 2.75.75.75 0 0 0 1.478-.256 6.587 6.587 0 0 0-1.85-3.556 6.578 6.578 0 0 0-3.566-1.846Z"/>
</svg>
