<svg xmlns="http://www.w3.org/2000/svg" width="20" height="20" fill="currentColor" viewBox="0 0 20 20">
  <path fill="currentColor" d="m14.128 6.908-2.5-5.417a.418.418 0 0 0-.479-.23l-1.667.418c-.2.05-.333.24-.313.445l.417 4.167a.416.416 0 1 0 .829-.082l-.38-3.809.982-.246 2.354 5.104a.418.418 0 0 0 .77-.03.419.419 0 0 0-.013-.32Zm4.33 2.278a.417.417 0 0 0-.47.164c-.072.044-.455.234-1.738.234a.417.417 0 0 0 0 .833c1.5 0 2.334-.238 2.48-.71a.416.416 0 0 0-.273-.52l.001-.001Zm-4.333.633a.414.414 0 0 0-.247-.215c-.107-.035-2.646-.854-3.878-.854-.21 0-.39.159-.414.368L8.752 16.2a.416.416 0 0 0 .332.458l2.084.416a.417.417 0 0 0 .473-.262l2.499-6.667a.413.413 0 0 0-.015-.327v.001Zm-3.14 6.37-1.36-.272.743-6.31c.874.093 2.176.462 2.837.66l-2.22 5.922Zm2.029-9.511c-2.981-.717-6.42-1.132-7.326-1.234l-1.566-3.13a.416.416 0 0 0-.473-.218l-1.667.417a.416.416 0 0 0-.315.404v2.375c-.4-.074-.92-.098-1.279.155C.211 5.57 0 5.812 0 6.25c0 .189 0 .743 1.477 1.754L.855 9.868a.414.414 0 0 0 .395.549h2.083a.42.42 0 0 0 .373-.23l.376-.754c1.737.785 3.55 1.39 5.41 1.806a.412.412 0 0 0 .497-.315.415.415 0 0 0-.315-.497 27.326 27.326 0 0 1-5.604-1.92.417.417 0 0 0-.552.19l-.442.887H1.828l.54-1.619a.417.417 0 0 0-.17-.482C1.108 6.78.843 6.353.833 6.25c0-.097.025-.116.035-.122.159-.111.694-.039 1.075.097a.41.41 0 0 0 .38-.051.414.414 0 0 0 .177-.34V3.242l1.027-.257L5.044 6.02a.418.418 0 0 0 .33.23c.04.004 4.05.423 7.451 1.241 3.066.689 6.342 2.148 6.342 4.177 0 .04-.008.055-.04.08-.444.363-2.347.2-5.651-.486a.416.416 0 1 0-.17.816c2.219.46 3.75.684 4.786.684.768 0 1.263-.123 1.562-.367a.914.914 0 0 0 .346-.727c0-3.173-5.352-4.622-6.986-4.99Zm-3.43 11.239H.416a.417.417 0 0 0 0 .833h9.166a.417.417 0 0 0 0-.833h.002Z"/>
</svg>
