<svg xmlns="http://www.w3.org/2000/svg" width="20" height="20" fill="currentColor" viewBox="0 0 20 20">
  <path d="M16.25 3.333c-2.356 0-5.06 1.236-5.175 1.288a.417.417 0 1 0 .35.757c.026-.012 2.654-1.211 4.825-1.211 2.125 0 2.917.51 2.917.833 0 1.554-13.045 6.667-15.834 6.667-.468 0-1.723 0-2.311-.107.273-.215.763-.52 1.252-.773a.417.417 0 0 0 .156-.602L.953 7.97l.38-.379 3.064 1.533a.418.418 0 0 0 .372 0l2.5-1.25a.417.417 0 1 0-.372-.745L4.583 8.284 1.437 6.71a.416.416 0 0 0-.481.078l-.834.834a.417.417 0 0 0-.052.526l1.412 2.118C0 11.093 0 11.504 0 11.666c0 .752 1.067.834 3.333.834C5.552 12.5 20 7.62 20 5c0-.502-.365-1.667-3.75-1.667Zm-3.753 2.032a.416.416 0 0 0-.294-.347l-8.334-2.5a.417.417 0 0 0-.414.104L1.788 4.288a.416.416 0 0 0 .089.657L7.71 8.278a.417.417 0 0 0 .42-.004l4.167-2.5a.418.418 0 0 0 .2-.409ZM7.91 7.435 2.763 4.492 3.87 3.388l7.19 2.157-3.148 1.89H7.91ZM18.75 3.75c-1.798 0-2.752.913-2.792.952a.417.417 0 0 0 .581.598c.031-.03.77-.717 2.211-.717a.417.417 0 0 0 0-.833Zm-2.094 9.898-1.25-5a.417.417 0 0 0-.809.202l1.169 4.676-1.07.535-3.54-4.325a.416.416 0 1 0-.645.527l3.75 4.584a.414.414 0 0 0 .51.108l1.667-.833a.417.417 0 0 0 .218-.474Zm-7.073 3.019H.417a.417.417 0 0 0 0 .833h9.166a.417.417 0 0 0 0-.833Z"/>
</svg>
