<svg xmlns="http://www.w3.org/2000/svg" width="17" height="17" fill="currentColor" viewBox="0 0 17 17">
  <path d="M3.8 2c-.207 0-.55.231-.55.75v12.069l.99-.686a.75.75 0 0 1 .854 0l1.74 1.205 1.74-1.205a.75.75 0 0 1 .853 0l1.74 1.205 1.74-1.205a.75.75 0 0 1 .853 0l.99.686V2.75c0-.519-.343-.75-.55-.75H3.8Zm-2.05.75C1.75 1.612 2.57.5 3.8.5h10.4c1.23 0 2.05 1.112 2.05 2.25v13.5a.75.75 0 0 1-1.177.617l-1.74-1.205-1.74 1.205a.75.75 0 0 1-.853 0L9 15.662l-1.74 1.205a.75.75 0 0 1-.854 0l-1.74-1.205-1.74 1.205a.75.75 0 0 1-1.176-.617V2.75Zm3 2.5a.75.75 0 0 1 .75-.75h7a.75.75 0 0 1 0 1.5h-7a.75.75 0 0 1-.75-.75Zm0 4a.75.75 0 0 1 .75-.75h7a.75.75 0 0 1 0 1.5h-7a.75.75 0 0 1-.75-.75Z"/>
</svg>
