<svg xmlns="http://www.w3.org/2000/svg" width="17" height="17" fill="currentColor" viewBox="0 0 17 17">
  <path fill="currentColor" d="M7.803.208a.75.75 0 0 1 1.036 0l4 3.82a.75.75 0 0 1-1.036 1.085l-2.732-2.61v8.247a.75.75 0 0 1-1.5 0V2.503l-2.73 2.61a.75.75 0 0 1-1.037-1.085l4-3.82Zm-6.518 10.01a.75.75 0 0 1 .75.75v3.089c0 .272.107.53.295.72.188.19.442.295.705.295h10.5a.994.994 0 0 0 .705-.295c.188-.19.295-.448.295-.72v-3.088a.75.75 0 1 1 1.5 0v3.088a2.523 2.523 0 0 1-1.54 2.323c-.305.127-.63.192-.96.193h-10.5a2.492 2.492 0 0 1-1.77-.74 2.522 2.522 0 0 1-.73-1.776v-3.088a.75.75 0 0 1 .75-.75Z"/>
</svg>
