<svg xmlns="http://www.w3.org/2000/svg" width="22" height="22" fill="currentColor" viewBox="0 0 22 22">
  <path d="M4.44 4.36a.75.75 0 0 1 1.031.01l3.806 3.668a.75.75 0 0 1-1.04 1.08L5.7 6.675V16.91a.75.75 0 0 1-1.5 0V6.63l-2.69 2.498a.75.75 0 0 1-1.021-1.1L4.44 4.36ZM11.507 6.095a.75.75 0 0 1 .75-.75h8.558a.75.75 0 0 1 0 1.5h-8.558a.75.75 0 0 1-.75-.75Zm.058 4.815a.75.75 0 0 1 .75-.75h6.114a.75.75 0 0 1 0 1.5h-6.114a.75.75 0 0 1-.75-.75Zm0 4.815a.75.75 0 0 1 .75-.75h3.668a.75.75 0 0 1 0 1.5h-3.668a.75.75 0 0 1-.75-.75Z"/>
</svg>
