<svg xmlns="http://www.w3.org/2000/svg" width="22" height="22" fill="currentColor" viewBox="0 0 22 22">
  <path d="M4.806 4.25a.75.75 0 0 1 .75.75v10.28l2.69-2.498a.75.75 0 1 1 1.02 1.1l-3.95 3.668a.75.75 0 0 1-1.03-.01L.48 13.872a.75.75 0 0 1 1.04-1.08l2.536 2.443V5a.75.75 0 0 1 .75-.75Zm6.885 1.377a.75.75 0 0 1 .75-.75H21a.75.75 0 0 1 0 1.5h-8.559a.75.75 0 0 1-.75-.75Zm0 4.815a.75.75 0 0 1 .75-.75h6.114a.75.75 0 0 1 0 1.5H12.44a.75.75 0 0 1-.75-.75Zm0 4.815a.75.75 0 0 1 .75-.75h3.668a.75.75 0 0 1 0 1.5h-3.668a.75.75 0 0 1-.75-.75Z"/>
</svg>
