<svg xmlns="http://www.w3.org/2000/svg" width="18" height="18" fill="currentColor" viewBox="0 0 18 18">
  <path d="M1.5 3.125A1.377 1.377 0 0 0 .125 4.5v1.934a1.369 1.369 0 0 0 1.107 1.35L1.22 7.78A1.76 1.76 0 0 1 2.61 9.5a1.754 1.754 0 0 1-1.392 1.719l.013-.002a1.367 1.367 0 0 0-1.107 1.35V14.5A1.377 1.377 0 0 0 1.5 15.875h15a1.377 1.377 0 0 0 1.375-1.375v-1.934a1.37 1.37 0 0 0-1.107-1.35l.013.003A1.76 1.76 0 0 1 15.39 9.5a1.753 1.753 0 0 1 1.392-1.719l-.013.002a1.366 1.366 0 0 0 1.107-1.35V4.5A1.377 1.377 0 0 0 16.5 3.125h-15Zm.125 1.5H5.75v9.75H1.625v-1.744c.685-.17 1.314-.53 1.76-1.08a3.26 3.26 0 0 0 0-4.102c-.446-.55-1.074-.91-1.76-1.08V4.625Zm5.625 0h9.125v1.744c-.686.17-1.314.53-1.76 1.08a3.259 3.259 0 0 0 0 4.102c.446.55 1.074.91 1.76 1.08v1.744H7.25v-9.75Z"/>
</svg>
