<svg width="16" height="16" viewBox="0 0 16 16" fill="none" xmlns="http://www.w3.org/2000/svg">
<path d="M8.00004 1.25C6.07296 1.25 4.50004 2.82293 4.50004 4.75C4.50004 6.67707 6.07296 8.25 8.00004 8.25C9.92711 8.25 11.5 6.67707 11.5 4.75C11.5 2.82293 9.92711 1.25 8.00004 1.25ZM8.00004 2.25C9.38667 2.25 10.5 3.36337 10.5 4.75C10.5 6.13663 9.38667 7.25 8.00004 7.25C6.6134 7.25 5.50004 6.13663 5.50004 4.75C5.50004 3.36337 6.6134 2.25 8.00004 2.25ZM8.00004 10.6465C4.1121 10.6465 1.48802 11.9599 0.269574 13.9922C0.235572 14.0486 0.213043 14.1111 0.20328 14.1762C0.193518 14.2414 0.196713 14.3078 0.212683 14.3716C0.228653 14.4355 0.257083 14.4956 0.296341 14.5485C0.335599 14.6013 0.384912 14.6459 0.441449 14.6797C0.555166 14.7477 0.691248 14.7679 0.819794 14.7356C0.94834 14.7034 1.05883 14.6215 1.127 14.5078C2.11757 12.8556 4.33467 11.6465 8.00004 11.6465C11.6654 11.6465 13.8825 12.8556 14.8731 14.5078C14.9413 14.6215 15.0517 14.7034 15.1803 14.7356C15.3088 14.7679 15.4449 14.7477 15.5586 14.6797C15.6152 14.6459 15.6645 14.6013 15.7037 14.5485C15.743 14.4956 15.7714 14.4355 15.7874 14.3716C15.8034 14.3078 15.8066 14.2414 15.7968 14.1762C15.787 14.1111 15.7645 14.0486 15.7305 13.9922C14.5121 11.9599 11.888 10.6465 8.00004 10.6465Z" fill="currentColor"/>
</svg>
