<?xml version="1.0" standalone="no"?>
<!DOCTYPE svg PUBLIC "-//W3C//DTD SVG 1.1//EN" "http://www.w3.org/Graphics/SVG/1.1/DTD/svg11.dtd" >
<svg xmlns="http://www.w3.org/2000/svg">
<metadata>
<json>
<![CDATA[
{
	"fontFamily": "font-sj-icon-outline",
	"majorVersion": 1,
	"minorVersion": 0,
	"version": "Version 1.0",
	"fontId": "font-sj-icon-outline",
	"psName": "font-sj-icon-outline",
	"subFamily": "Regular",
	"fullName": "font-sj-icon-outline",
	"description": "Font generated by IcoMoon."
}
]]>
</json>
</metadata>
<defs>
<font id="font-sj-icon-outline" horiz-adv-x="1024">
<font-face units-per-em="1024" ascent="960" descent="-64" />
<missing-glyph horiz-adv-x="1024" />
<glyph unicode="&#x20;" horiz-adv-x="512" d="" />
<glyph unicode="&#xe900;" glyph-name="empty-reward" data-tags="empty-reward" d="M487.944 877.16c0 9.080 6.92 16.552 15.76 17.416 16.504 44.216 57.784 65.256 88.040 65.424 15.416 0.080 28.16-5.248 35.104-14.576 4.96-6.64 7.344-15.4 5.456-26.336-0.85-4.019-4.368-6.991-8.58-6.991-4.838 0-8.76 3.922-8.76 8.76 0 0.426 0.030 0.845 0.089 1.254l-0.006-0.047c0.928 5.32 0.192 9.656-2.224 12.896-4.080 5.456-11.928 7.6-20.992 7.544-23.336-0.136-54.28-15.808-69.12-47.84h99.896c9.667 0 17.504-7.837 17.504-17.504s-7.837-17.504-17.504-17.504h-0.048c5.344-8.848 8.384-16.72 9.64-23.536 1.856-10.032 0.12-18.24-3.848-24.68-6.584-10.688-20.040-16.864-36.64-16.784-30.176 0.192-71.288 21.12-87.864 65.072-8.95 0.85-15.896 8.329-15.896 17.43 0 0.001 0 0.001 0 0.002v0zM613.76 837.68c-2.128 6.464-6.128 13.76-12.28 21.968h-78.616c12.44-26.528 35.968-41.712 56.976-46.16 8.032-1.688 15.648-1.808 22-0.24 5.056 1.264 9.256 3.56 11.6 7.36 2.592 4.216 2.64 9.936 0.32 17.072zM711.216 875.28c14.344-9.896 26.128-25.552 33.072-44 0.299-0.846 0.472-1.821 0.472-2.836 0-4.834-3.918-8.752-8.752-8.752-3.635 0-6.752 2.216-8.075 5.371l-0.021 0.058c-5.624 14.944-15.016 27.76-26.624 35.752-2.304 1.6-3.793 4.232-3.793 7.212 0 4.834 3.919 8.753 8.753 8.753 1.854 0 3.573-0.576 4.989-1.56l-0.029 0.019v-0.008zM719.416 720.72c15.68 15.152 24.88 32.584 29.040 50.304 0.105 0.51 0.166 1.096 0.166 1.696 0 4.838-3.922 8.76-8.76 8.76-4.021 0-7.41-2.709-8.439-6.402l-0.015-0.062c-3.44-14.72-11.128-29.136-24.136-41.68-1.654-1.595-2.681-3.829-2.681-6.304 0-4.834 3.919-8.753 8.753-8.753 2.359 0 4.501 0.933 6.075 2.451l-0.003-0.003zM683.752 696.432c-14.536-6.984-31.84-12.656-52.248-16.48-0.636-0.166-1.366-0.261-2.119-0.261-4.825 0-8.736 3.911-8.736 8.736 0 1.936 0.63 3.725 1.695 5.173l-0.017-0.024c1.385 1.902 3.481 3.215 5.89 3.547l0.046 0.005c18.704 3.52 34.576 8.68 47.92 15.088 1.107 0.543 2.408 0.86 3.784 0.86 4.834 0 8.752-3.919 8.752-8.752 0-3.458-2.005-6.447-4.917-7.869l-0.052-0.023zM527.352 675.92c20.68-1.56 39.616-1.888 56.904-1.152 4.468 0.437 7.931 4.175 7.931 8.721 0 4.8-3.86 8.698-8.645 8.759h-0.006c-16.672-0.696-34.92-0.368-54.88 1.136-0.060 0.001-0.13 0.002-0.201 0.002-4.842 0-8.768-3.926-8.768-8.768 0-4.453 3.32-8.131 7.62-8.694l0.044-0.005zM436.68 664.376c14.056 5.584 30.048 9.44 47.792 11.216 3.571 0.356 6.483 2.819 7.496 6.114l0.016 0.062c0.238 0.759 0.375 1.631 0.375 2.536 0 3.929-2.589 7.253-6.153 8.36l-0.062 0.017c-1.104 0.32-2.256 0.44-3.4 0.32-19.52-1.952-37.088-6.224-52.52-12.368-3.264-1.315-5.525-4.456-5.525-8.125 0-1.165 0.228-2.277 0.642-3.294l-0.021 0.058c1.792-4.48 6.88-6.68 11.36-4.896zM151.16 78.368v98.16c0 4.834 3.918 8.752 8.752 8.752s8.752-3.918 8.752-8.752v0-98.16c0-11.584 7.616-21.808 18.712-25.144l315-94.504c2.258-0.701 4.854-1.104 7.544-1.104s5.286 0.404 7.73 1.154l-0.186-0.049 314.992 94.504c10.903 3.362 18.693 13.341 18.712 25.142v127.914l-223.736-72.696c-2.428-0.819-5.224-1.292-8.131-1.292-8.999 0-16.94 4.53-21.667 11.434l-0.058 0.090-70.12 103.48c-0.943 1.375-1.507 3.076-1.507 4.908 0 4.831 3.916 8.747 8.747 8.747 2.999 0 5.645-1.509 7.221-3.809l0.019-0.030 70.136-103.472c2.184-3.224 6.24-4.624 9.952-3.416l314.912 102.32c3.532 1.192 6.029 4.475 6.029 8.341 0 1.817-0.552 3.505-1.497 4.906l0.020-0.031c-24.752 36.712-77.152 114.368-87.16 129.2l-344.408 112.080-294.144-95.728c-0.738-0.225-1.586-0.354-2.464-0.354-4.834 0-8.752 3.918-8.752 8.752 0 3.778 2.394 6.997 5.748 8.223l0.061 0.019 285.76 93.040-78.168 114.96c-1.6 2.327-4.248 3.833-7.247 3.833-0.964 0-1.891-0.155-2.759-0.443l0.062 0.018-314.928-102.32c-3.542-1.183-6.049-4.47-6.049-8.342 0-1.824 0.556-3.518 1.509-4.921l-0.020 0.031 76.96-114.080 344.44-111.76 297.504 96.544c0.897 0.341 1.935 0.538 3.019 0.538 2.633 0 4.994-1.165 6.596-3.008l0.009-0.011c1.333-1.534 2.146-3.551 2.146-5.759 0-0.271-0.012-0.539-0.036-0.804l0.002 0.034c-0.214-2.457-1.422-4.595-3.215-6.035l-0.017-0.013c-0.92-0.736-1.976-1.28-3.112-1.6l-297.344-96.496c-31.080-45.84-62.152-91.696-93.216-137.544-4.792-6.995-12.738-11.524-21.742-11.524-2.9 0-5.691 0.47-8.299 1.338l0.185-0.053-314.912 102.32c-7.865 2.606-13.965 8.617-16.64 16.24l-0.056 0.184c-0.912 2.553-1.439 5.498-1.439 8.567 0 5.468 1.674 10.546 4.537 14.748l-0.058-0.091 66.96 99.256c1.578 2.456 4.295 4.059 7.388 4.059 4.834 0 8.752-3.918 8.752-8.752 0-1.907-0.61-3.672-1.645-5.109l0.018 0.026-66.96-99.264c-0.931-1.37-1.486-3.061-1.486-4.882 0-3.865 2.503-7.145 5.976-8.308l0.062-0.018 314.912-102.328c3.712-1.208 7.76 0.192 9.96 3.416l88.376 130.392-338.936 109.968c-1.896 0.638-3.462 1.839-4.541 3.402l-0.019 0.030-78.64 116.584c-2.801 4.116-4.472 9.196-4.472 14.667 0 11.601 7.515 21.447 17.942 24.936l0.186 0.054 314.928 102.32c2.423 0.814 5.213 1.284 8.113 1.284 8.986 0 16.918-4.513 21.653-11.396l0.058-0.089 83.040-122.128 340.872-110.976 74.96 111.112c0.928 1.375 1.482 3.069 1.482 4.892 0 1.021-0.174 2.002-0.493 2.914l0.019-0.062c-0.906 2.604-2.939 4.61-5.498 5.462l-0.062 0.018-314.928 102.32c-0.812 0.275-1.747 0.434-2.719 0.434-2.991 0-5.632-1.504-7.206-3.796l-0.019-0.030-61.208-90.032c-1.613-2.17-4.169-3.561-7.051-3.561-4.838 0-8.76 3.922-8.76 8.76 0 1.72 0.496 3.324 1.352 4.677l-0.021-0.036 61.224 90.032c4.793 6.972 12.725 11.484 21.711 11.484 2.9 0 5.69-0.47 8.298-1.338l-0.185 0.053 314.928-102.32c7.86-2.624 13.959-8.632 16.655-16.248l0.057-0.184c0.899-2.542 1.419-5.474 1.419-8.527 0-5.482-1.675-10.573-4.541-14.789l0.059 0.092-75.32-111.68 85.504-126.8c4.608-6.816 5.744-15.44 3.048-23.216-2.739-7.799-8.837-13.805-16.511-16.362l-0.185-0.054-73.68-23.936v-133.6c0-0.003 0-0.007 0-0.011 0-9.836-3.251-18.912-8.737-26.213l0.081 0.112c-5.561-7.423-13.279-12.958-22.219-15.702l-0.309-0.082c-70.32-21.104-268.096-80.448-315-94.496-3.758-1.176-8.080-1.854-12.56-1.854s-8.802 0.678-12.868 1.936l0.308-0.082c-46.904 14.048-244.696 73.392-315.008 94.496-18.191 5.572-31.191 22.216-31.192 41.896v0zM509.92 316.368l265.072 86-265.072 86.288-265.072-86.288 265.072-86zM422.384 517.080c-4.14 5.727-8.171 12.261-11.724 19.083l-0.42 0.885c-1.529 2.692-4.377 4.478-7.642 4.478-4.838 0-8.76-3.922-8.76-8.76 0-1.328 0.296-2.588 0.825-3.716l-0.023 0.054c4.406-8.558 8.881-15.815 13.839-22.7l-0.359 0.524c2.8-3.936 8.264-4.848 12.2-2.064 3.936 2.8 4.864 8.28 2.064 12.216zM397.856 602.512c-0.626-4.117-0.983-8.867-0.983-13.701 0-5.428 0.451-10.75 1.317-15.932l-0.077 0.561c0.040-0.315 0.063-0.68 0.063-1.050 0-4.834-3.918-8.752-8.752-8.752-4.243 0-7.781 3.019-8.582 7.026l-0.009 0.056c-0.925 5.459-1.454 11.747-1.454 18.159 0 5.701 0.418 11.305 1.225 16.782l-0.075-0.621c0.639 4.261 4.274 7.492 8.664 7.492 4.836 0 8.756-3.92 8.756-8.756 0-0.446-0.033-0.884-0.098-1.312l0.006 0.048z" />
<glyph unicode="&#xe901;" glyph-name="account-user" data-tags="account-user" d="M351.59 716.8c0 0.129-0.001 0.281-0.001 0.433 0 45.393 17.697 86.653 46.569 117.257l-0.078-0.084c28.127 29.859 67.845 48.531 111.926 48.793h0.049c41.984-0.051 82.278-17.562 111.974-48.742s46.438-73.421 46.49-117.504c0.002-0.303 0.003-0.661 0.003-1.020 0-43.755-16.497-83.656-43.61-113.824l0.138 0.156c-26.615-29.643-64.275-48.909-106.449-51.284l-0.406-0.018c-2.535 0.212-5.487 0.333-8.467 0.333-2.479 0-4.939-0.084-7.376-0.248l0.33 0.018c-86.835 5.222-151.091 77.414-151.091 165.734zM518.349 474.112c62.937 2.561 118.892 30.46 158.303 73.702l0.161 0.18c40.231 44.089 64.873 103.007 64.873 167.679 0 0.396-0.001 0.792-0.003 1.188v-0.061c0 134.144-103.885 243.2-231.629 243.2s-231.629-109.056-231.629-243.2c0-131.584 98.048-238.080 225.792-242.688 1.615 0.247 3.479 0.388 5.376 0.388s3.761-0.141 5.582-0.413l-0.206 0.025h3.379zM510.054-64c-89.702 0-179.456 24.064-247.706 72.192-61.44 43.008-95.59 101.376-95.59 164.352s34.15 121.856 96.102 165.376c137.011 95.232 358.861 95.232 494.899 0 61.44-43.008 95.078-101.376 95.59-164.352 0-63.488-34.15-121.856-95.59-165.376-68.25-48.128-158.003-72.192-247.706-72.192zM303.36 273.971c-47.002-33.075-63.488-70.349-63.488-101.427 0-30.976 16.384-67.789 63.027-100.454l0.205-0.154c53.76-37.888 128.512-59.136 206.95-59.136 78.387 0 153.088 21.197 206.899 59.085 46.694 33.126 63.13 69.888 63.232 101.376-0.307 31.744-16.896 68.506-62.976 100.762-53.555 37.478-128.102 58.522-206.541 58.522-78.387 0-153.19-20.992-207.36-58.573z" />
<glyph unicode="&#xe902;" glyph-name="calendar-1" data-tags="calendar-1" d="M227.376 960c22.324 0 40.421-18.097 40.421-40.421v-36.571h434.047v36.571c0 22.324 18.098 40.421 40.421 40.421s40.421-18.097 40.421-40.421v-42.938c87.169-22.436 151.579-101.565 151.579-195.738v-497.887c0-111.616-90.489-202.105-202.105-202.105h-485.055c-111.62 0-202.105 90.489-202.105 202.105v497.887c0 90.673 59.71 167.399 141.955 193.004v45.673c0 22.324 18.097 40.421 40.421 40.421zM247.105 802.166c-66.972 0-121.263-54.291-121.263-121.263v-17.313c3.23 0.832 6.616 1.274 10.105 1.274h707.371c3.487 0 6.877-0.442 10.105-1.274v17.313c0 66.971-54.294 121.263-121.263 121.263h-485.055zM853.423 585.295c-3.228-0.832-6.618-1.274-10.105-1.274h-707.371c-3.489 0-6.875 0.442-10.105 1.274v-402.279c0-66.97 54.291-121.263 121.263-121.263h485.055c66.97 0 121.263 54.294 121.263 121.263v402.279z" />
<glyph unicode="&#xe903;" glyph-name="calendar-2" data-tags="calendar-2" d="M246.889 945.778c-11.316 0-22.168-4.495-30.17-12.497s-12.497-18.854-12.497-30.17v-48.111c-85.433-23.813-149.889-99.157-149.889-191.889v-533.336c0-111.423 91.242-202.661 202.667-202.661h533.334c111.423 0 202.667 91.238 202.667 202.661v533.336c0 96.317-69.547 173.742-160 194v46c0 11.316-4.494 22.168-12.498 30.17-7.999 8.002-18.853 12.497-30.168 12.497s-22.17-4.495-30.174-12.497c-7.999-8.002-12.493-18.854-12.493-30.17v-37.333h-458.113v37.333c0 11.316-4.495 22.168-12.497 30.17s-18.854 12.497-30.17 12.497zM257 780.444h533.334c65.308 0 117.333-52.026 117.333-117.333v-26.111c-3.453 1.155-7.037 1.865-10.667 2.111h-746.668c-3.741-0.99-7.329-2.486-10.667-4.444v28.444c0 65.307 52.027 117.333 117.333 117.333zM907.668 564.445v-434.67c0-65.303-52.031-117.328-117.333-117.328h-533.334c-65.307 0-117.333 52.025-117.333 117.328v428.447c3.338-1.958 6.926-3.454 10.667-4.444h746.668c4.159 2.893 7.771 6.505 10.667 10.667zM550.333 429.778c-5.603 0-11.151-1.104-16.328-3.248s-9.88-5.287-13.842-9.249c-3.962-3.962-7.105-8.666-9.249-13.842s-3.248-10.725-3.248-16.327v-3.999c0-11.315 4.495-22.17 12.497-30.174 8.001-7.999 18.854-12.493 30.17-12.493s22.168 4.494 30.172 12.493c7.999 8.004 12.493 18.859 12.493 30.174v3.999c0 5.602-1.104 11.151-3.248 16.327s-5.285 9.88-9.244 13.842c-3.965 3.962-8.67 7.105-13.844 9.249-5.176 2.144-10.725 3.248-16.328 3.248zM763.665 429.778c-5.604 0-11.15-1.104-16.327-3.248s-9.882-5.287-13.841-9.249c-3.959-3.962-7.105-8.666-9.25-13.842s-3.248-10.725-3.248-16.327v-3.999c0-11.315 4.494-22.17 12.498-30.174 7.999-7.999 18.853-12.493 30.168-12.493s22.17 4.494 30.174 12.493c7.999 8.004 12.493 18.859 12.493 30.174v3.999c0 5.602-1.104 11.151-3.248 16.327s-5.285 9.88-9.244 13.842c-3.965 3.962-8.67 7.105-13.847 9.249s-10.724 3.248-16.327 3.248zM310.333 212.446c-11.316 0-22.168-4.494-30.17-12.498-8.001-7.999-12.497-18.853-12.497-30.168v-3.999c0-11.315 4.495-22.17 12.497-30.174 8.001-7.999 18.854-12.493 30.17-12.493s22.168 4.494 30.17 12.493c8.001 8.004 12.497 18.859 12.497 30.174v3.999c0 11.315-4.495 22.17-12.497 30.168-8.001 8.004-18.854 12.498-30.17 12.498zM550.333 212.446c-11.316 0-22.168-4.494-30.17-12.498-8.001-7.999-12.497-18.853-12.497-30.168v-3.999c0-11.315 4.495-22.17 12.497-30.174 8.001-7.999 18.854-12.493 30.17-12.493s22.168 4.494 30.172 12.493c7.999 8.004 12.493 18.859 12.493 30.174v3.999c0 11.315-4.494 22.17-12.493 30.168-8.004 8.004-18.856 12.498-30.172 12.498z" />
<glyph unicode="&#xe904;" glyph-name="check-circle" data-tags="check-circle" d="M725.675 629.76h-53.589c-12.165-0.018-22.931-5.994-29.537-15.167l-0.074-0.108-179.627-249.173-81.408 112.981c-6.688 9.215-17.41 15.149-29.519 15.189h-53.595c-7.509 0-11.776-8.448-7.509-14.507l142.507-197.461c6.678-9.218 17.41-15.145 29.525-15.145s22.847 5.927 29.452 15.040l0.073 0.106 240.64 333.653c1.094 1.487 1.751 3.355 1.751 5.376 0 5.028-4.064 9.107-9.087 9.131h-0.002v0.085zM512 960c-282.77 0-512-229.23-512-512s229.23-512 512-512v0c282.77 0 512 229.23 512 512s-229.23 512-512 512v0zM512 22.869c-234.804 0.049-425.131 190.406-425.131 425.216 0 234.84 190.376 425.216 425.216 425.216 0.030 0 0.060 0 0.090 0h-0.005c234.804-0.049 425.131-190.406 425.131-425.216 0-234.84-190.376-425.216-425.216-425.216-0.030 0-0.060 0-0.090 0h0.005z" />
<glyph unicode="&#xe905;" glyph-name="check" data-tags="check" d="M969.367 775.379c8.163-8.173 13.212-19.459 13.212-31.925s-5.049-23.751-13.212-31.925v0l-579.765-579.765c-8.173-8.163-19.459-13.212-31.925-13.212s-23.751 5.049-31.925 13.212l-289.972 289.852c-7.512 8.046-12.125 18.883-12.125 30.798 0 24.95 20.226 45.176 45.176 45.176 11.915 0 22.752-4.612 30.824-12.149l-0.026 0.024 257.928-257.867 547.84 547.78c8.173 8.163 19.459 13.212 31.925 13.212s23.751-5.049 31.925-13.212v0z" />
<glyph unicode="&#xe906;" glyph-name="chevron-down" data-tags="chevron-down" d="M18.773 726.187c11.579 11.565 27.568 18.717 45.227 18.717s33.648-7.152 45.227-18.718l381.439-381.439 381.44 381.44c11.716 12.548 28.356 20.37 46.823 20.37 35.346 0 64-28.654 64-64 0-18.467-7.822-35.107-20.333-46.789l-0.037-0.034-426.667-426.667c-11.579-11.565-27.568-18.717-45.227-18.717s-33.648 7.152-45.227 18.718l-426.666 426.666c-11.565 11.579-18.717 27.568-18.717 45.227s7.152 33.648 18.718 45.227l-0.001-0.001z" />
<glyph unicode="&#xe907;" glyph-name="chevron-left" data-tags="chevron-left" d="M796.16-6.827c-11.579-11.565-27.568-18.717-45.227-18.717s-33.648 7.152-45.227 18.718l-409.599 409.599c-11.565 11.579-18.717 27.568-18.717 45.227s7.152 33.648 18.718 45.227l409.599 409.599c11.398 10.643 26.751 17.177 43.63 17.177 35.346 0 64-28.654 64-64 0-16.879-6.534-32.232-17.211-43.667l0.034 0.037-364.373-364.373 364.373-364.373c11.565-11.579 18.717-27.568 18.717-45.227s-7.152-33.648-18.718-45.227l0.001 0.001z" />
<glyph unicode="&#xe908;" glyph-name="chevron-right" data-tags="chevron-right" d="M296.107 902.827c11.579 11.565 27.568 18.717 45.227 18.717s33.648-7.152 45.227-18.718l409.599-409.599c11.565-11.579 18.717-27.568 18.717-45.227s-7.152-33.648-18.718-45.227l-409.599-409.599c-11.398-10.643-26.751-17.177-43.63-17.177-35.346 0-64 28.654-64 64 0 16.879 6.534 32.232 17.211 43.667l-0.034-0.037 364.373 364.373-364.373 364.373c-11.565 11.579-18.717 27.568-18.717 45.227s7.152 33.648 18.718 45.227l-0.001-0.001z" />
<glyph unicode="&#xe909;" glyph-name="chevron-up" data-tags="chevron-up" d="M964.181 210.773c-11.579-11.565-27.568-18.717-45.227-18.717s-33.648 7.152-45.227 18.718l-381.439 381.439-381.44-381.44c-11.716-12.548-28.356-20.37-46.823-20.37-35.346 0-64 28.654-64 64 0 18.467 7.822 35.107 20.333 46.789l0.037 0.034 426.667 426.667c11.579 11.565 27.568 18.717 45.227 18.717s33.648-7.152 45.227-18.718l426.666-426.666c11.565-11.579 18.717-27.568 18.717-45.227s-7.152-33.648-18.718-45.227l0.001 0.001z" />
<glyph unicode="&#xe90a;" glyph-name="clock" data-tags="clock" d="M12.8 448c0 275.712 223.488 499.2 499.2 499.2s499.2-223.488 499.2-499.2-223.488-499.2-499.2-499.2-499.2 223.488-499.2 499.2zM512 870.4c-233.285 0-422.4-189.115-422.4-422.4s189.115-422.4 422.4-422.4v0c233.285 0 422.4 189.115 422.4 422.4s-189.115 422.4-422.4 422.4v0zM512 755.2c21.208 0 38.4-17.192 38.4-38.4v0-230.4h230.4c21.208 0 38.4-17.192 38.4-38.4s-17.192-38.4-38.4-38.4v0h-268.8c-21.208 0-38.4 17.192-38.4 38.4v0 268.8c0 21.208 17.192 38.4 38.4 38.4v0z" />
<glyph unicode="&#xe90b;" glyph-name="coins" data-tags="coins" d="M384 806.4c-92.518 0-178.125-16.794-242.022-45.568-60.314-27.136-116.378-72.55-116.378-136.806v-160c0-64.358 56.013-109.773 116.326-136.909 39.424-17.715 87.194-30.925 139.674-38.4v-16.691c0-64.358 56.013-109.773 116.326-136.909 63.949-28.723 149.504-45.517 242.074-45.517 92.518 0 178.176 16.794 242.074 45.568 60.314 27.136 116.326 72.499 116.326 136.806v160.051c0 56.525-43.878 98.406-93.286 125.286-43.622 23.757-99.994 40.96-162.714 50.022v16.64c0 64.307-56.064 109.722-116.378 136.858-63.846 28.774-149.504 45.568-242.022 45.568zM102.4 463.974v44.339c12.595-7.987 25.958-15.053 39.578-21.146 22.682-10.24 48.128-18.944 75.622-25.907v-80.384c-17.61 5.245-32.249 10.78-46.399 17.202l2.265-0.92c-55.501 24.986-71.066 51.558-71.066 66.867zM665.6 622.899c-2.099-58.573-127.386-105.779-281.6-105.779s-279.501 47.206-281.6 105.779v1.485c0 59.238 126.054 107.264 281.6 107.264s281.6-48.026 281.6-107.264v-1.434zM294.4 364.442v82.586c28.723-3.584 58.778-5.427 89.6-5.427s60.877 1.843 89.6 5.427v-82.586c-26.58-3.846-57.271-6.043-88.476-6.043-0.395 0-0.791 0-1.186 0.001h0.061c-0.334-0.001-0.729-0.001-1.124-0.001-31.204 0-61.896 2.196-91.928 6.443l3.452-0.4zM550.4 380.877v80.435c29.266 7.341 54.449 16.209 78.532 27.082l-2.91-1.175c15.474 6.926 28.46 13.97 40.858 21.855l-1.28-0.761v-44.339c0-15.258-15.565-41.83-71.066-66.816-13.312-5.99-28.109-11.418-44.134-16.282zM742.4 463.974v65.69c51.098-8.346 94.362-22.528 125.952-39.731 42.138-22.886 53.248-44.851 53.248-57.856 0-15.36-15.565-41.882-71.066-66.867-26.331-11.819-57.057-21.471-89.075-27.453l-2.573-0.399c-35.238-6.983-75.753-10.978-117.2-10.978-5.94 0-11.861 0.082-17.762 0.245l0.87-0.019 1.28 0.563c60.314 27.136 116.326 72.55 116.326 136.909zM882.074 295.117c13.568 6.144 26.931 13.158 39.526 21.146v-44.237c0-15.36-15.565-41.882-71.066-66.867-13.312-5.99-28.058-11.418-44.134-16.282v80.384c29.28 7.315 54.482 16.167 78.584 27.029l-2.91-1.173zM729.6 255.027v-82.586c-26.58-3.846-57.271-6.043-88.476-6.043-0.395 0-0.791 0-1.186 0.001h0.061c-0.334-0.001-0.729-0.001-1.124-0.001-31.204 0-61.896 2.196-91.928 6.443l3.452-0.4v82.586c28.672-3.584 58.778-5.427 89.6-5.427s60.877 1.843 89.6 5.427zM473.6 269.21v-80.333c-17.61 5.245-32.249 10.78-46.399 17.202l2.265-0.92c-55.501 24.986-71.066 51.558-71.066 66.867v9.984c7.573-0.272 16.47-0.427 25.404-0.427 15.577 0 31.044 0.471 46.388 1.399l-2.108-0.102c14.336-5.12 29.594-9.677 45.517-13.67z" />
<glyph unicode="&#xe90c;" glyph-name="copy-right" data-tags="copy-right" d="M158.255 859.927c-32.116 0-58.182-26.065-58.182-58.182v-409.6c0-11.543 9.402-20.945 20.945-20.945h111.709c19.28 0 34.909-15.629 34.909-34.909s-15.629-34.909-34.909-34.909v0h-111.709c-50.127 0-90.764 40.636-90.764 90.764v0 409.6c0 70.692 57.308 128 128 128v0h409.6c50.127 0 90.764-40.636 90.764-90.764v-111.709c0-19.28-15.629-34.909-34.909-34.909s-34.909 15.629-34.909 34.909v0 111.709c0 11.568-9.378 20.945-20.945 20.945v0h-409.6zM365.382 448c0 80.975 65.643 146.618 146.618 146.618v0h335.127c80.975 0 146.618-65.643 146.618-146.618v0-335.127c0-80.975-65.643-146.618-146.618-146.618v0h-335.127c-80.975 0-146.618 65.643-146.618 146.618v0 335.127zM512 524.8c-42.415 0-76.8-34.385-76.8-76.8v0-335.127c0-42.356 34.397-76.8 76.8-76.8h335.127c42.415 0 76.8 34.385 76.8 76.8v0 335.127c0 42.415-34.385 76.8-76.8 76.8v0h-335.127z" />
<glyph unicode="&#xe90d;" glyph-name="discount-coupon" data-tags="discount-coupon" d="M198.142 804.613c-79.666 0-144.248-64.582-144.248-144.248l0.001-424.733c0-79.662 64.583-144.249 144.248-144.249h290.091c13.94 65.444 72.067 114.526 141.661 114.526s127.72-49.082 141.662-114.526h54.299c79.667 0 144.249 64.587 144.249 144.249v424.733c0 79.666-64.582 144.248-144.249 144.248h-54.299c-13.943-65.445-72.068-114.526-141.662-114.526s-127.721 49.081-141.661 114.526h-290.091zM0 660.366c0 109.431 88.711 198.142 198.142 198.142h313.906c14.588 0 26.528-11.609 26.937-26.191 1.374-49.013 41.558-88.335 90.91-88.335s89.535 39.322 90.91 88.335c0.41 14.582 12.347 26.191 26.937 26.191h78.115c109.428 0 198.144-88.711 198.144-198.142v-424.733c0-109.428-88.716-198.144-198.144-198.144h-78.115c-14.589 0-26.527 11.609-26.937 26.193-1.374 49.012-41.558 88.333-90.91 88.333s-89.535-39.322-90.91-88.333c-0.409-14.584-12.348-26.193-26.937-26.193h-313.906c-109.431 0-198.142 88.716-198.142 198.144l-0.001 424.733zM619.768 611.777c14.88 0 26.947-12.065 26.947-26.947v-8.706c0-14.882-12.067-26.947-26.947-26.947s-26.947 12.065-26.947 26.947v8.706c0 14.882 12.067 26.947 26.947 26.947zM619.768 477.484c14.88 0 26.947-12.065 26.947-26.947v-8.706c0-14.882-12.067-26.95-26.947-26.95s-26.947 12.067-26.947 26.95v8.706c0 14.882 12.067 26.947 26.947 26.947zM619.789 342.614c14.88 0 26.947-12.062 26.947-26.947v-8.704c0-14.88-12.067-26.947-26.947-26.947s-26.947 12.067-26.947 26.947v8.704c0 14.886 12.067 26.947 26.947 26.947z" />
<glyph unicode="&#xe90e;" glyph-name="download" data-tags="download" d="M512 960c23.564 0 42.667-19.103 42.667-42.667v0-494.364l151.154 151.154c7.811 8.365 18.904 13.58 31.215 13.58 23.564 0 42.667-19.103 42.667-42.667 0-12.311-5.214-23.405-13.555-31.192l-0.025-0.023-223.972-224.085c-7.694-7.765-18.361-12.573-30.151-12.573s-22.457 4.808-30.148 12.57l-224.031 224.031c-7.419 7.667-11.991 18.127-11.991 29.656 0 23.564 19.103 42.667 42.667 42.667 11.514 0 21.963-4.561 29.639-11.975l151.199-151.142v494.364c0 23.564 19.103 42.667 42.667 42.667v0zM85.333 320c0 23.564-19.103 42.667-42.667 42.667s-42.667-19.103-42.667-42.667v0-298.667c0-47.128 38.205-85.333 85.333-85.333v0h853.333c47.128 0 85.333 38.205 85.333 85.333v0 298.667c0 23.564-19.103 42.667-42.667 42.667s-42.667-19.103-42.667-42.667v0-298.667h-853.333v298.667z" />
<glyph unicode="&#xe90f;" glyph-name="empty" data-tags="empty" d="M1004.854 583.34v-218.189s0.921-215.203-60.141-318.111c-1.492-2.296-4.043-3.793-6.944-3.795v0c-63.393-0.052-439.769-0.052-545-0.052-4.477 0.012-8.121 3.565-8.278 8.006v0.014c-0.002 0.075-0.004 0.164-0.004 0.253 0 1.405 0.348 2.728 0.964 3.888l-0.022-0.045c0.069 0.112 0.12 0.25 0.172 0.361 37.432 81.077 50.047 205.394 54.1 268.959 0.001 0.044 0.001 0.095 0.001 0.146 0 4.577-3.71 8.287-8.287 8.287-4.255 0-7.761-3.207-8.233-7.337l-0.004-0.038c-3.958-62.077-16.005-183.459-52.474-262.764-1.756-3.32-2.787-7.258-2.787-11.436 0-13.72 11.115-24.844 24.831-24.86h0.001c105.24 0 481.641 0 545.018 0.052 8.502 0 16.401 4.354 20.962 11.548l0.112 0.181c62.843 105.627 62.576 326.794 62.576 326.794v218.138c-0.175 4.447-3.808 7.99-8.275 8.020h-0.003c-4.483-0.002-8.134-3.56-8.286-8.006v-0.014zM425.029 823.163v-11.083c0-0.008 0-0.017 0-0.026 0-0.606 0.063-1.198 0.182-1.768l-0.010 0.056c0.172-0.886 0.516-1.738 0.998-2.504l0.12-0.215c1.498-2.315 4.066-3.826 6.987-3.829v0s8.287 0.688 8.287 8.433v10.937c0 4.578 3.7 8.287 8.278 8.287h324.823c4.577 0 8.287 3.71 8.287 8.287s-3.71 8.287-8.287 8.287h-324.823c-13.722-0.010-24.843-11.136-24.843-24.86v0zM1010.086 621.753c0.889-0.355 1.919-0.56 2.997-0.56 2.504 0 4.75 1.11 6.271 2.865l0.009 0.010c1.256 1.452 2.022 3.358 2.022 5.443 0 1.493-0.392 2.894-1.080 4.107l0.022-0.041c-46.734 81.688-110.764 152.576-191.875 212.803-1.36 1.019-3.076 1.632-4.935 1.632-4.572 0-8.278-3.706-8.278-8.278 0-0.602 0.064-1.19 0.186-1.755l-0.010 0.054c12.219-58.342 18.208-117.364 12.305-177.72-0.086-0.773-0.134-1.669-0.134-2.577 0-13.682 11.092-24.774 24.774-24.774 1.369 0 2.712 0.111 4.021 0.325l-0.143-0.019c53.128 8.201 104.947 7.796 153.85-11.514zM329.668 753.462c66.534 22.571 143.102 7.349 196.109-45.65 62.266-62.275 72.386-157.085 30.341-229.927-0.698-1.193-1.11-2.627-1.11-4.158 0-0.887 0.139-1.742 0.395-2.545l-0.016 0.059 26.090-82.712c0.092-0.282 0.145-0.606 0.145-0.943 0-0.868-0.351-1.654-0.919-2.224v0l-2.22-2.22c-0.447-0.438-1.059-0.709-1.735-0.709-0.256 0-0.503 0.039-0.735 0.111l0.018-0.005-83.125 26.228c-0.745 0.244-1.603 0.385-2.493 0.385-1.522 0-2.947-0.411-4.172-1.129l0.039 0.021c-72.85-42.053-167.661-31.942-229.927 30.333-74.348 74.348-74.348 195.076 0 269.432 1.496 1.5 2.422 3.57 2.422 5.856 0 4.579-3.712 8.29-8.29 8.29-2.293 0-4.368-0.931-5.868-2.435v0c-80.801-80.81-80.801-212.028 0-292.864 66.801-66.775 168.005-78.375 246.741-34.764l79.683-25.153c1.706-0.555 3.668-0.875 5.706-0.875 5.251 0 10.006 2.126 13.449 5.565v0l2.22 2.22c3.565 3.558 5.77 8.477 5.77 13.911 0 2.119-0.335 4.159-0.956 6.071l0.039-0.139-24.998 79.304c43.585 78.728 31.985 179.949-34.79 246.724-57.602 57.602-140.813 74.15-213.13 49.634-3.109-1.244-5.265-4.231-5.265-7.722 0-4.581 3.714-8.295 8.295-8.295 0.815 0 1.603 0.118 2.347 0.337l-0.059-0.015zM188.407 844.916l66.259-83.366c5.705-7.159 16.126-8.347 23.277-2.668 7.159 5.679 8.347 16.117 2.668 23.277l-66.259 83.366c-3.060 3.621-7.605 5.905-12.683 5.905-9.153 0-16.573-7.42-16.573-16.573 0-3.748 1.244-7.206 3.343-9.983l-0.030 0.042zM10.885 803.457l173.176-99.414c2.458-1.522 5.44-2.424 8.632-2.424 9.158 0 16.582 7.424 16.582 16.582 0 1.611-0.23 3.168-0.658 4.64l0.029-0.117c-1.278 4.374-4.193 7.919-8.019 9.999l-0.087 0.043-173.133 99.414c-2.363 1.374-5.201 2.185-8.228 2.185-9.158 0-16.582-7.424-16.582-16.582 0-1.521 0.205-2.994 0.588-4.393l-0.027 0.116c1.144-4.251 3.924-7.856 7.736-10.051zM35.711 619.017h115.97c8.921 0.297 16.039 7.599 16.039 16.565s-7.119 16.268-16.012 16.564l-0.027 0.001h-115.97c-8.921-0.297-16.039-7.599-16.039-16.565s7.119-16.268 16.012-16.564l0.027-0.001zM282.882 538.164c17.57 0 31.813 14.243 31.813 31.813s-14.243 31.813-31.813 31.813v0c-17.57 0-31.813-14.243-31.813-31.813s14.243-31.813 31.813-31.813v0zM388.896 538.164c0.001 0 0.003 0 0.004 0 17.57 0 31.813 14.243 31.813 31.813 0 17.568-14.241 31.81-31.808 31.813v0c-17.57 0-31.813-14.243-31.813-31.813s14.243-31.813 31.813-31.813v0zM494.936 538.164c17.57 0 31.813 14.243 31.813 31.813s-14.243 31.813-31.813 31.813v0c-17.57 0-31.813-14.243-31.813-31.813s14.243-31.813 31.813-31.813v0z" />
<glyph unicode="&#xe910;" glyph-name="face-id" data-tags="face-id" d="M147.797 928.305c-77.518-0.304-140.277-63.063-140.58-140.552v-208.145c0-20.198 16.374-36.571 36.571-36.571s36.571 16.374 36.571 36.571v0 208.116c0 37.693 29.745 67.438 67.438 67.438h208.165c20.198 0 36.571 16.374 36.571 36.571s-16.374 36.571-36.571 36.571v0h-208.213zM668.038 928.305c-20.198 0-36.571-16.374-36.571-36.571s16.374-36.571 36.571-36.571v0h208.018c37.693 0 67.438-29.745 67.438-67.438v-208.116c0.080-20.191 16.467-36.528 36.669-36.528 5.012 0 9.788 1.005 14.139 2.825l-0.242-0.090c13.366 5.642 22.577 18.639 22.577 33.788 0 0.001 0 0.003 0 0.004v0 208.116c0 77.19-63.39 140.581-140.581 140.581h-208.018zM307.2 655.433c-20.198 0-36.571-16.374-36.571-36.571v0-57.051c0-20.198 16.374-36.571 36.571-36.571s36.571 16.374 36.571 36.571v0 57.051c0 20.198-16.374 36.571-36.571 36.571v0zM716.8 655.433c-20.198 0-36.571-16.374-36.571-36.571v0-57.051c0-20.198 16.374-36.571 36.571-36.571s36.571 16.374 36.571 36.571v0 57.051c0 20.198-16.374 36.571-36.571 36.571v0zM511.951 626.956c-20.198 0-36.571-16.374-36.571-36.571v0-147.505c0-5.218-2.048-10.24-6.095-14.19l-12.093-11.849c-7.001-6.675-11.354-16.072-11.354-26.487 0-20.198 16.374-36.571 36.571-36.571 10.087 0 19.221 4.084 25.837 10.689l-0.001-0.001 12.093 11.8c17.896 17.457 28.184 41.545 28.184 66.609v147.505c0 20.198-16.374 36.571-36.571 36.571v0zM43.837 304.152c-20.198 0-36.571-16.374-36.571-36.571v0-208.067c0-77.19 63.39-140.581 140.581-140.581h208.116c20.198 0 36.571 16.374 36.571 36.571s-16.374 36.571-36.571 36.571v0h-208.213c-37.693 0-67.438 29.745-67.438 67.438v208.116c0 20.198-16.374 36.571-36.571 36.571v0zM980.066 304.152c-20.198 0-36.571-16.374-36.571-36.571v0-208.067c0-37.693-29.745-67.438-67.438-67.438h-208.018c-20.198 0-36.571-16.374-36.571-36.571s16.374-36.571 36.571-36.571v0h208.018c77.19 0 140.581 63.39 140.581 140.581v208.116c0 20.198-16.374 36.571-36.571 36.571v0zM668.331 283.234c-3.033 0.908-6.519 1.43-10.127 1.43-6.483 0-12.572-1.687-17.852-4.646l0.185 0.095c-39.351-21.845-95.086-34.231-146.968-34.231s-99.474 13.312-122.392 31.061c-6.109 4.719-13.874 7.564-22.305 7.564-20.252 0-36.669-16.417-36.669-36.669 0-1.549 0.096-3.075 0.282-4.573l-0.018 0.179c1.287-9.924 6.392-18.46 13.768-24.223l0.081-0.061c43.837-33.987 104.35-46.421 167.253-46.421s128.634 13.507 182.467 43.398c11.28 6.374 18.77 18.285 18.77 31.946 0 16.601-11.061 30.619-26.216 35.085l-0.259 0.065z" />
<glyph unicode="&#xe911;" glyph-name="file-not-found" data-tags="file-not-found" d="M338.722 646.042c-9.438-6.946-15.531-18.842-15.138-35.106 0.003-0.119 0.005-0.26 0.005-0.401 0-9.428-7.643-17.071-17.071-17.071-9.287 0-16.842 7.416-17.066 16.65v0.021c-0.7 29.662 11.81 50.688 29.013 63.369 28.672 21.163 71.441 18.33 94.72-7.885 9.984-11.23 16.691-26.743 16.862-46.848 0.273-34.185-14.199-54.835-29.901-75.554l-1.673-2.185c-11.23-14.746-22.818-29.969-24.201-55.279-0.512-9.013-7.945-16.128-17.041-16.128-9.426 0-17.067 7.641-17.067 17.067 0 0.33 0.009 0.658 0.028 0.984l-0.002-0.045c1.911 34.935 17.323 55.859 32.751 76.22l1.058 1.382c11.11 14.626 22.101 29.082 21.914 53.282-0.085 10.411-3.072 18.654-8.243 24.457-12.015 13.534-34.133 13.995-48.947 3.072zM370.5 412.399c-3.802-3.818-9.063-6.181-14.876-6.181-11.594 0-20.992 9.398-20.992 20.992 0 2.915 0.594 5.69 1.667 8.213l-0.052-0.137c3.247 7.672 10.707 12.959 19.403 12.971h0.002c0.003 0 0.006 0 0.009 0 11.594 0 20.992-9.398 20.992-20.992 0-5.799-2.351-11.049-6.153-14.848v0zM717.739 934.144l-51.2-85.333c-3.050-4.973-8.456-8.239-14.626-8.239-7.946 0-14.625 5.419-16.546 12.762l-0.026 0.119c-0.323 1.241-0.509 2.666-0.509 4.135 0 3.245 0.906 6.278 2.48 8.86l-0.043-0.075 51.2 85.333c3.037 4.998 8.452 8.286 14.635 8.286 9.426 0 17.067-7.641 17.067-17.067 0-3.243-0.904-6.274-2.475-8.856l0.043 0.076zM935.031 929.109l-187.733-136.533c-2.777-2.038-6.263-3.262-10.035-3.262-9.427 0-17.069 7.642-17.069 17.069 0 5.655 2.75 10.668 6.986 13.774l0.048 0.033 187.733 136.533c2.777 2.038 6.263 3.262 10.035 3.262 9.427 0 17.069-7.642 17.069-17.069 0-5.655-2.75-10.668-6.986-13.774l-0.048-0.033zM912.043 721.579l-136.533-34.133c-1.158-0.28-2.488-0.441-3.855-0.441-9.426 0-17.067 7.641-17.067 17.067 0 7.853 5.304 14.467 12.524 16.456l0.12 0.028 136.533 34.133c1.302 0.356 2.797 0.56 4.339 0.56 9.435 0 17.084-7.649 17.084-17.084 0-5.651-2.744-10.661-6.971-13.771l-0.047-0.033c-1.74-1.267-3.791-2.23-6.011-2.759l-0.116-0.023zM660.855 480.137c-6.611-25.294-15.395-47.378-26.486-68.038l0.8 1.632-0.051-0.102c-15.096-28.234-33.219-52.476-54.434-73.617l-0.009-0.009c-21.017-21.059-45.072-39.073-71.455-53.333l-1.624-0.803-0.7-0.375c-0.275-0.126-0.493-0.24-0.706-0.363l0.040 0.021c-115.883-60.809-262.588-42.53-359.97 54.852-119.893 119.876-119.893 314.539 0 434.432 119.876 119.876 314.539 119.876 434.432 0 55.564-55.456 89.939-132.126 89.939-216.824 0-2.973-0.042-5.937-0.127-8.89l0.010 0.434c-0.002-0.066-0.003-0.144-0.003-0.222 0-4.714 3.822-8.536 8.536-8.536 4.636 0 8.409 3.696 8.533 8.303v0.011c0.078 2.653 0.123 5.775 0.123 8.907 0 89.415-36.288 170.355-94.94 228.895l-0.005 0.005c-126.549 126.532-332.032 126.532-458.581 0-126.549-126.566-126.549-332.066 0-458.598 102.451-102.485 256.683-121.958 378.829-58.505 2.338 0.068 5.089 0.107 7.849 0.107 21.029 0 41.529-2.265 61.269-6.563l-1.893 0.346c-0.227-2.338-0.357-5.053-0.357-7.8 0-23.56 9.548-44.889 24.985-60.331v0c1.515-1.4 3.549-2.259 5.783-2.259 4.713 0 8.533 3.821 8.533 8.533 0 2.23-0.855 4.26-2.256 5.78l0.005-0.006c-12.352 12.354-19.991 29.419-19.991 48.268 0 4.636 0.462 9.164 1.343 13.54l-0.073-0.437c8.772 36.045 33.331 48.998 53.333 53.76 4.11 0.879 8.832 1.383 13.672 1.383 18.847 0 35.91-7.637 48.263-19.986l245.999-245.982c-0.853-3.072-2.031-6.076-3.465-8.926-6.605-12.356-20.139-29.508-37.393-46.763-17.254-17.289-34.389-30.771-46.763-37.376-2.526-1.311-5.488-2.497-8.572-3.394l-0.354-0.088-202.837 202.82c-1.515 1.4-3.549 2.259-5.783 2.259-4.713 0-8.533-3.821-8.533-8.533 0-2.23 0.855-4.26 2.256-5.78l-0.005 0.006 204.22-204.22c3.584-3.635 10.889-5.359 20.821-1.399 13.551 5.41 35.601 21.572 57.617 43.588 22.016 22.050 38.195 44.117 43.605 57.668 3.977 9.916 2.219 17.237-1.365 20.821l-247.381 247.364c-15.443 15.449-36.781 25.004-60.351 25.004-2.757 0-5.484-0.131-8.174-0.386l0.343 0.026c-3.911 17.837-6.151 38.327-6.151 59.339 0 2.803 0.040 5.597 0.119 8.381l-0.009-0.409c10.366 19.484 19.277 42.13 25.555 65.846l0.506 2.25c0.274 0.802 0.433 1.726 0.433 2.686 0 4.722-3.828 8.55-8.55 8.55-4.163 0-7.632-2.976-8.394-6.916l-0.009-0.054zM544.512 738.219c-99.908 99.891-262.144 99.891-362.035 0-1.515-1.4-3.549-2.259-5.783-2.259-4.713 0-8.533 3.821-8.533 8.533 0 2.23 0.855 4.26 2.256 5.78l-0.005-0.006c106.564 106.564 279.603 106.564 386.167 0 106.564-106.547 106.564-279.603 0-386.167s-279.603-106.564-386.167 0c-87.381 87.381-103.117 219.392-47.241 322.85 1.472 2.688 4.281 4.48 7.509 4.48 4.713 0 8.533-3.821 8.533-8.533 0-1.485-0.379-2.881-1.046-4.098l0.022 0.044c-52.395-96.99-37.632-220.74 44.288-302.677 99.891-99.891 262.127-99.891 362.035 0 99.908 99.925 99.908 262.144 0 362.052zM180.719 672.87c16.299 28.228 45.995 54.272 61.594 61.611 1.023 0.468 2.219 0.741 3.479 0.741 4.713 0 8.533-3.821 8.533-8.533 0-3.325-1.902-6.206-4.676-7.614l-0.049-0.022c-13.79-6.485-39.714-29.781-54.101-54.699-14.182-24.576-21.897-52.736-21.931-72.021-0.010-4.705-3.826-8.516-8.533-8.516-4.713 0-8.533 3.821-8.533 8.533 0 0.006 0 0.012 0 0.018v-0.001c0.034 21.504 8.363 53.077 24.218 80.521z" />
<glyph unicode="&#xe912;" glyph-name="file-text" data-tags="file-text" d="M182.857 923.429c-40.396 0-73.143-32.747-73.143-73.143v0-804.571c0-40.396 32.747-73.143 73.143-73.143v0h658.286c40.396 0 73.143 32.747 73.143 73.143v0 585.143c0 0.013 0 0.029 0 0.045 0 10.089-4.080 19.225-10.68 25.848l-255.999 255.999c-6.615 6.599-15.745 10.679-25.827 10.679-0.023 0-0.046 0-0.069 0h-438.853zM182.857 850.286h423.741l234.545-234.545v-570.027h-658.286v804.571zM621.714 923.429c-20.198 0-36.571-16.374-36.571-36.571v0-256c0-20.198 16.374-36.571 36.571-36.571v0h256c20.198 0 36.571 16.374 36.571 36.571s-16.374 36.571-36.571 36.571v0h-219.429v219.429c0 20.198-16.374 36.571-36.571 36.571v0zM365.714 448c-20.198 0-36.571-16.374-36.571-36.571s16.374-36.571 36.571-36.571v0h292.571c20.198 0 36.571 16.374 36.571 36.571s-16.374 36.571-36.571 36.571v0h-292.571zM365.714 301.714c-20.198 0-36.571-16.374-36.571-36.571s16.374-36.571 36.571-36.571v0h292.571c20.198 0 36.571 16.374 36.571 36.571s-16.374 36.571-36.571 36.571v0h-292.571z" />
<glyph unicode="&#xe913;" glyph-name="filter" data-tags="filter" d="M25.6 721.067c0 23.564 19.103 42.667 42.667 42.667v0h887.467c23.564 0 42.667-19.103 42.667-42.667s-19.103-42.667-42.667-42.667v0h-887.467c-23.564 0-42.667 19.103-42.667 42.667v0zM162.133 448c0 23.564 19.103 42.667 42.667 42.667v0h614.4c23.564 0 42.667-19.103 42.667-42.667s-19.103-42.667-42.667-42.667v0h-614.4c-23.564 0-42.667 19.103-42.667 42.667v0zM366.933 174.933c0 23.564 19.103 42.667 42.667 42.667v0h204.8c23.564 0 42.667-19.103 42.667-42.667s-19.103-42.667-42.667-42.667v0h-204.8c-23.564 0-42.667 19.103-42.667 42.667v0z" />
<glyph unicode="&#xe914;" glyph-name="gift-star" data-tags="gift-star" d="M742.4 806.4h76.8c0 84.831-68.769 153.6-153.6 153.6s-153.6-68.769-153.6-153.6v0h76.8c0 42.415 34.385 76.8 76.8 76.8s76.8-34.385 76.8-76.8v0zM435.2 806.4h76.8c0 84.831-68.769 153.6-153.6 153.6s-153.6-68.769-153.6-153.6v0h76.8c0 42.415 34.385 76.8 76.8 76.8s76.8-34.385 76.8-76.8v0zM102.4 806.4c-56.115 0-102.4-46.285-102.4-102.4v-51.2c0-56.115 46.285-102.4 102.4-102.4h819.2c56.115 0 102.4 46.285 102.4 102.4v51.2c0 56.115-46.285 102.4-102.4 102.4h-819.2zM102.4 729.6h819.2c14.592 0 25.6-11.008 25.6-25.6v-51.2c0.003-0.154 0.005-0.335 0.005-0.517 0-13.856-11.232-25.088-25.088-25.088-0.182 0-0.363 0.002-0.544 0.006h-819.173c-0.154-0.003-0.335-0.005-0.517-0.005-13.856 0-25.088 11.232-25.088 25.088 0 0.182 0.002 0.363 0.006 0.544v-0.027 51.2c0 14.592 11.008 25.6 25.6 25.6zM102.4 627.2v-486.4c0-112.64 92.16-204.8 204.8-204.8h409.6c112.64 0 204.8 92.16 204.8 204.8v486.4h-819.2zM179.2 550.4h665.6v-409.6c0-71.168-56.832-128-128-128h-409.6c-71.168 0-128 56.832-128 128v409.6zM512 504.576c-0.189 0.003-0.412 0.004-0.635 0.004-17.128 0-32.271-8.495-41.447-21.502l-0.107-0.16 42.189-29.030 45.978-66.97c6.656-9.728 16.384-16.896 27.75-20.224l77.978-23.040-49.664-64.358c-6.595-8.532-10.571-19.38-10.571-31.156 0-0.549 0.009-1.095 0.026-1.64l-0.002 0.080 2.304-81.203-76.595 27.238c-5.121 1.886-11.035 2.977-17.203 2.977s-12.082-1.091-17.559-3.090l0.356 0.114-76.595-27.238 2.304 81.203c0.015 0.461 0.023 1.002 0.023 1.546 0 11.806-3.996 22.679-10.709 31.339l0.087-0.117-49.664 64.358 78.080 23.040c11.264 3.277 72.704 80.486 79.309 90.214l-46.182 26.47-47.616-67.584-78.029-23.040c-33.69-9.933-47.514-52.48-26.112-80.333l49.613-64.512-2.202-81.152c-1.024-35.123 35.226-61.44 68.301-49.664l76.595 27.238 76.595-27.29c33.075-11.776 69.274 14.592 68.301 49.664l-2.202 81.254 49.613 64.512c21.402 27.802 7.578 70.349-26.112 80.282l-77.978 23.040-46.080 67.072c-9.283 13.166-24.426 21.661-41.554 21.661-0.205 0-0.41-0.001-0.615-0.004h0.031z" />
<glyph unicode="&#xe915;" glyph-name="globe" data-tags="globe" d="M95.086 608.914c-20.198 0-36.571-16.374-36.571-36.571s16.374-36.571 36.571-36.571v0 73.143zM914.286 535.771c20.198 0 36.571 16.374 36.571 36.571s-16.374 36.571-36.571 36.571v0-73.143zM99.962 345.6c-20.198 0-36.571-16.374-36.571-36.571s16.374-36.571 36.571-36.571v0 73.143zM919.162 272.457c20.198 0 36.571 16.374 36.571 36.571s-16.374 36.571-36.571 36.571v0-73.143zM936.229 455.314c0-0.014 0-0.032 0-0.049 0-238.308-193.186-431.494-431.494-431.494-0.017 0-0.034 0-0.052 0h0.003v-73.143c278.723 0 504.686 225.963 504.686 504.686h-73.143zM504.686 23.771c-238.335 0-431.543 193.208-431.543 431.543v0h-73.143c0-278.723 225.963-504.686 504.686-504.686v73.143zM73.143 455.314c0 238.335 193.208 431.543 431.543 431.543v0 73.143c-278.723 0-504.686-225.963-504.686-504.686h73.143zM504.686 886.857c238.335 0 431.543-193.208 431.543-431.543h73.143c0 278.723-225.963 504.686-504.686 504.686v-73.143zM504.686 23.771c-16.189 0-34.475 7.314-54.321 26.526-19.992 19.31-39.692 49.054-57.003 88.698-34.621 79.043-56.905 190.903-56.905 316.318h-73.143c0-133.12 23.503-255.317 63.049-345.673 19.749-45.105 44.178-83.87 73.143-111.957 29.257-28.184 64.805-47.055 105.179-47.055v73.143zM336.457 455.314c0 125.464 22.333 237.275 56.905 316.367 17.31 39.595 37.059 69.339 57.051 88.649 19.797 19.212 38.083 26.526 54.272 26.526v73.143c-40.375 0-75.971-18.871-105.131-47.055-29.013-28.038-53.443-66.804-73.192-111.957-39.497-90.356-63.049-212.602-63.049-345.673h73.143zM504.686-49.371c40.375 0 75.971 18.871 105.131 47.055 29.013 28.038 53.443 66.853 73.143 111.957 39.546 90.356 63.098 212.602 63.098 345.722h-73.143c0-125.464-22.333-237.324-56.905-316.416-17.359-39.595-37.059-69.339-57.051-88.649-19.797-19.163-38.083-26.526-54.272-26.526v-73.143zM746.057 455.314c0 133.12-23.552 255.317-63.049 345.673-19.749 45.105-44.178 83.87-73.192 111.957-29.16 28.184-64.756 47.055-105.131 47.055v-73.143c16.189 0 34.475-7.314 54.272-26.526 19.992-19.31 39.692-49.054 57.051-88.649 34.621-79.092 56.905-190.903 56.905-316.367h73.143zM95.086 535.771h819.2v73.143h-819.2v-73.143zM99.962 272.457h819.2v73.143h-819.2v-73.143z" />
<glyph unicode="&#xe916;" glyph-name="heart" data-tags="heart" d="M916.049 808.879c-46.475 51.584-113.507 83.871-188.080 83.871-0.819 0-1.637-0.004-2.455-0.012l0.125 0.001c-104.125 0-170.038-60.793-206.956-111.778-9.593-13.258-17.785-26.516-24.63-39.020-8.308 15.142-16.446 27.893-25.311 40.080l0.735-1.061c-36.972 50.984-102.885 111.778-206.956 111.778-0.694 0.007-1.514 0.011-2.336 0.011-74.588 0-141.635-32.286-187.928-83.645l-0.2-0.226c-46.349-51.523-72.057-120.616-72.057-194.452 0-80.303 32.121-155.109 101.053-235.251 61.602-71.626 150.205-145.408 252.766-230.885 38.265-31.798 77.824-64.835 119.916-100.783l1.24-1.078c5.091-4.396 11.772-7.074 19.079-7.074s13.988 2.678 19.116 7.106l-0.038-0.032 1.24 1.078c42.092 35.948 81.651 68.985 119.916 100.783 102.562 85.423 191.219 159.259 252.766 230.885 68.985 80.141 101.053 154.893 101.053 235.251 0 73.836-25.546 142.875-72.057 194.452zM596.723 191.353c-32.984-27.486-66.883-55.727-102.669-86.124-14.32 12.586-47.727 40.749-81.273 68.752l-21.397 17.372c-200.812 167.289-333.447 277.773-333.447 423.074 0 60.039 20.48 115.874 57.613 157.049 35.881 39.784 87.608 64.682 145.151 64.682 0.621 0 1.241-0.003 1.861-0.009l-0.095 0.001c79.387 0 130.695-47.805 159.744-87.848 26.085-36.056 39.667-72.219 44.301-86.232 3.454-10.102 12.177-17.53 22.807-19.061l0.152-0.018c1.337-0.215 2.879-0.338 4.449-0.338 12.661 0 23.454 7.996 27.606 19.213l0.066 0.204c4.635 14.013 18.216 50.176 44.301 86.232 29.103 40.044 80.357 87.848 159.744 87.848 0.539 0.005 1.176 0.008 1.813 0.008 57.528 0 109.241-24.899 144.949-64.508l0.154-0.174c37.187-41.229 57.667-97.011 57.667-157.049 0-145.3-132.689-255.784-333.501-423.074z" />
<glyph unicode="&#xe917;" glyph-name="home" data-tags="home" d="M584.55 856.678l294.605-206.336c15.718-10.957 33.536-31.488 47.462-58.214s20.582-53.043 20.582-72.397v-347.136c0 0 0 0 0 0 0-88.134-71.374-159.598-159.474-159.744h-551.438c-88.164 0.378-159.488 71.936-159.488 160.152 0 0.036 0 0.073 0 0.109v-0.006 353.28c0 17.613 5.939 42.496 18.688 68.506 12.749 25.907 29.030 46.182 43.366 57.344l256.102 200.090c50.637 39.219 136.909 41.267 189.594 4.352zM628.634 919.654c-80.333 56.32-203.571 53.248-280.832-6.656l-256.256-200.192c-51.098-39.936-91.546-121.856-91.546-186.368v-353.28c0-130.56 105.882-237.056 236.288-237.056h551.424c130.512 0.146 236.259 105.965 236.288 236.49v347.139c0 69.12-44.544 154.112-100.762 193.536l-294.605 206.336zM548.25 381.901c9.238-9.261 14.95-22.042 14.95-36.158 0-0.014 0-0.028 0-0.043v0.002-204.8c0-28.277-22.923-51.2-51.2-51.2s-51.2 22.923-51.2 51.2v0 204.8c0.006 28.272 22.927 51.189 51.2 51.189 14.136 0 26.934-5.729 36.198-14.991h0.051z" />
<glyph unicode="&#xe918;" glyph-name="hotel" data-tags="hotel" d="M428.352 233.152c0 0.019 0 0.042 0 0.064 0 15.718 12.733 28.462 28.446 28.48h125.41c15.68 0 28.448-12.8 28.448-28.544v-253.696c0-0.010 0-0.021 0-0.032 0-15.718-12.733-28.462-28.446-28.48h-125.442c-15.702 0.036-28.416 12.773-28.416 28.48 0 0.023 0 0.045 0 0.068v-0.003 253.664zM485.248 204.608v-196.608h68.512v196.608h-68.512zM312.32 612.832c0 0.019 0 0.042 0 0.064 0 15.718 12.733 28.462 28.446 28.48h357.698c15.68 0 28.448-12.8 28.448-28.544v-633.376c0-0.009 0-0.021 0-0.032 0-15.729-12.751-28.48-28.48-28.48h-357.632c-15.715 0.018-28.448 12.762-28.448 28.48 0 0.023 0 0.045 0 0.068v-0.003 633.312zM369.216 584.288v-576.288h300.8v576.32h-300.8zM369.056-20.512c0-0.019 0-0.042 0-0.064 0-15.707-12.715-28.444-28.413-28.48h-186.627c0 0 0 0 0 0-15.729 0-28.48 12.751-28.48 28.48 0 0.023 0 0.045 0 0.068v-0.004 405.12c0 0.019 0 0.041 0 0.064 0 15.729 12.751 28.48 28.48 28.48 0 0 0 0 0 0h186.656c15.68 0 28.416-12.8 28.416-28.544v-405.12zM312.192 8v348.064h-129.728v-348.064h129.76zM913.312-20.544c0-0.010 0-0.021 0-0.032 0-15.718-12.733-28.462-28.446-28.48h-186.626c0 0 0 0 0 0-15.729 0-28.48 12.751-28.48 28.48 0 0.023 0 0.045 0 0.068v-0.004 405.12c0 0.019 0 0.041 0 0.064 0 15.729 12.751 28.48 28.48 28.48 0 0 0 0 0 0h186.624c15.712 0 28.48-12.8 28.48-28.544v-405.12zM856.448 8v348.064h-129.792v-348.064h129.792zM480.32 918.464c16 32.704 62.4 32.544 78.368 0l18.752-38.272 41.856-6.112c35.744-5.248 50.016-49.344 24.224-74.688l-30.4-29.792 7.2-42.144c6.080-35.776-31.424-63.072-63.424-46.144l-37.408 19.808-37.408-19.808c-31.968-16.928-69.536 10.272-63.424 46.112l7.2 42.24-30.336 29.76c-25.856 25.344-11.456 69.408 24.224 74.656l41.856 6.112 18.72 38.272zM484.16 772.96l-4.896-28.608 26.944 14.272c3.847 2.080 8.421 3.302 13.28 3.302s9.433-1.223 13.431-3.377l-0.151 0.074 26.944-14.272-5.184 30.4c-0.255 1.435-0.401 3.088-0.401 4.775 0 7.99 3.276 15.215 8.557 20.405l21.956 21.54-30.24 4.416c-9.481 1.429-17.32 7.364-21.366 15.514l-0.074 0.166-13.44 27.488-13.472-27.52c-4.132-8.3-11.967-14.22-21.283-15.628l-0.157-0.020-30.208-4.416 21.952-21.536c5.275-5.193 8.544-12.411 8.544-20.392 0-2.336-0.28-4.606-0.808-6.779l0.040 0.196zM288 775.296c3.424 10.656 13.12 10.528 22.784 11.904 4.352 8.864 7.168 18.112 18.336 18.112 11.2 0 14.048-9.28 18.368-18.112l10.528-1.536c12.448-1.824 17.44-17.216 8.448-26.048l-7.648-7.456c1.664-9.728 4.8-18.88-4.256-25.44-9.056-6.592-16.8-0.768-25.44 3.776-8.672-4.576-16.384-10.368-25.44-3.776s-5.92 15.808-4.256 25.44c-7.040 6.88-14.912 12.48-11.456 23.136zM154.656 698.88c3.456 10.656 13.184 10.528 22.816 11.936l4.704 9.536c2.548 5.059 7.7 8.468 13.648 8.468s11.1-3.41 13.608-8.381l0.040-0.087 4.704-9.536c9.728-1.44 19.328-1.28 22.816-11.936 3.424-10.688-4.48-16.256-11.456-23.104l1.792-10.56c0.141-0.779 0.222-1.676 0.222-2.592 0-8.418-6.814-15.244-15.228-15.264h-0.002c-4.704 0-6.528 1.504-16.48 6.72l-9.44-4.96c-2.051-1.097-4.487-1.741-7.072-1.741-8.412 0-15.232 6.82-15.232 15.232 0 0.921 0.082 1.822 0.238 2.698l-0.014-0.092 1.824 10.56c-7.040 6.848-14.944 12.416-11.488 23.104zM668.672 775.264c3.424 10.656 13.152 10.528 22.816 11.904l4.672 9.6c2.542 5.077 7.703 8.501 13.664 8.501s11.122-3.424 13.624-8.413l0.040-0.088 4.672-9.6c9.728-1.408 19.392-1.248 22.816-11.904 3.456-10.688-4.48-16.288-11.456-23.136l1.792-10.528c0.141-0.779 0.222-1.676 0.222-2.592 0-8.407-6.796-15.226-15.194-15.264h-0.004c-4.704 0-6.56 1.472-16.512 6.72l-9.408-4.96c-2.051-1.097-4.487-1.741-7.072-1.741-8.412 0-15.232 6.82-15.232 15.232 0 0.921 0.082 1.822 0.238 2.698l-0.014-0.092 1.792 10.56c-7.040 6.848-14.944 12.416-11.456 23.104zM801.92 698.88c3.424 10.656 13.152 10.528 22.816 11.936l4.672 9.536c2.542 5.077 7.703 8.501 13.664 8.501s11.122-3.424 13.624-8.413l0.040-0.088 4.672-9.536c9.728-1.44 19.392-1.28 22.816-11.936 3.456-10.688-4.48-16.256-11.456-23.104l1.792-10.56c0.141-0.779 0.222-1.676 0.222-2.592 0-8.407-6.796-15.226-15.194-15.264h-0.004c-4.704 0-6.56 1.504-16.512 6.72l-9.408-4.96c-2.051-1.097-4.487-1.741-7.072-1.741-8.412 0-15.232 6.82-15.232 15.232 0 0.921 0.082 1.822 0.238 2.698l-0.014-0.092 1.792 10.56c-7.040 6.848-14.944 12.416-11.456 23.104zM446.080 521.984c0 0.019 0 0.042 0 0.064 0 15.718 12.733 28.462 28.446 28.48h90.37c15.712 0 28.48-12.8 28.48-28.544 0-0.019 0-0.041 0-0.064 0-15.729-12.751-28.48-28.48-28.48 0 0 0 0 0 0h-90.336c0 0 0 0 0 0-15.729 0-28.48 12.751-28.48 28.48 0 0.023 0 0.045 0 0.068v-0.004zM446.080 430.24c0 0.019 0 0.042 0 0.064 0 15.718 12.733 28.462 28.446 28.48h90.37c15.712 0 28.48-12.8 28.48-28.544 0-0.019 0-0.041 0-0.064 0-15.729-12.751-28.48-28.48-28.48 0 0 0 0 0 0h-90.336c0 0 0 0 0 0-15.729 0-28.48 12.751-28.48 28.48 0 0.023 0 0.045 0 0.068v-0.004zM446.080 338.464c0 0.019 0 0.042 0 0.064 0 15.718 12.733 28.462 28.446 28.48h90.37c15.712 0 28.48-12.8 28.48-28.544 0-0.019 0-0.041 0-0.064 0-15.729-12.751-28.48-28.48-28.48 0 0 0 0 0 0h-90.336c0 0 0 0 0 0-15.729 0-28.48 12.751-28.48 28.48 0 0.023 0 0.045 0 0.068v-0.004z" />
<glyph unicode="&#xe919;" glyph-name="information-circle" data-tags="information-circle" d="M504.686 886.857c-238.335 0-431.543-193.208-431.543-431.543s193.208-431.543 431.543-431.543v0c238.335 0 431.543 193.208 431.543 431.543s-193.208 431.543-431.543 431.543v0zM0 455.314c0 278.723 225.963 504.686 504.686 504.686s504.686-225.963 504.686-504.686c0-278.723-225.963-504.686-504.686-504.686s-504.686 225.963-504.686 504.686zM504.686 667.429c20.198 0 36.571-16.374 36.571-36.571v0-2.048c0-20.198-16.374-36.571-36.571-36.571s-36.571 16.374-36.571 36.571v0 2.048c0 20.198 16.374 36.571 36.571 36.571v0zM504.686 491.886c20.198 0 36.571-16.374 36.571-36.571v0-234.057c0-20.198-16.374-36.571-36.571-36.571s-36.571 16.374-36.571 36.571v0 234.057c0 20.198 16.374 36.571 36.571 36.571v0z" />
<glyph unicode="&#xe91a;" glyph-name="iphone" data-tags="iphone" d="M119.467 792.99c0 84.831 68.769 153.6 153.6 153.6v0h468.114c84.831 0 153.6-68.769 153.6-153.6v0-702.171c0-84.831-68.769-153.6-153.6-153.6h-468.114c-84.831 0-153.6 68.769-153.6 153.6v0 702.171zM273.067 873.448c-44.435 0-80.457-36.022-80.457-80.457v0-702.171c0-44.422 35.986-80.457 80.457-80.457h468.114c44.435 0 80.457 36.022 80.457 80.457v0 702.171c0 44.435-36.022 80.457-80.457 80.457h-29.257c4.566-6.036 7.313-13.667 7.313-21.941 0-7.561-2.295-14.586-6.225-20.417l0.083 0.13-78.019-117.029c-6.652-9.876-17.791-16.286-30.427-16.286h-195.048c-12.637 0.001-23.776 6.411-30.345 16.156l-0.083 0.13-78.019 117.029c-3.862 5.708-6.166 12.746-6.166 20.321 0 8.258 2.737 15.878 7.354 21.999l-0.067-0.093h-29.257zM360.838 873.448c0.332-0.436 0.717-0.976 1.087-1.527l0.083-0.131 67.096-100.742h155.892l67.194 100.742c0.447 0.675 0.832 1.215 1.232 1.743l-0.062-0.085h-292.571z" />
<glyph unicode="&#xe91b;" glyph-name="location" data-tags="location" d="M275.976 363.375l-8.116 13.51-7.642 12.685 0.107 0.061c-38.591 66.331-70.809 139.142-70.809 201.346 0 183.097 140.471 335.398 318.403 335.398 177.947 0 318.403-152.301 318.403-335.398 0-66.331-36.635-144.751-78.588-214.505-43.084-71.68-96.485-141.694-138.53-193.23-14.503-17.955-33.372-31.828-55.016-40.081l-0.891-0.299c60.936-2.965 105.426-12.334 105.426-23.46 0-13.495-65.689-24.454-146.722-24.454s-146.722 10.958-146.722 24.454c0 10.668 40.868 19.701 97.907 23.063l0.382 0.031c-22.968 8.49-42.205 22.516-56.739 40.5l-0.192 0.246c-39.477 48.403-88.996 113.099-130.568 180.193l-0.092-0.061zM511.312 493.392c62.093 1.562 111.832 52.269 111.832 114.593 0 63.307-51.32 114.627-114.627 114.627-1.581 0-3.155-0.032-4.72-0.095l0.224 0.007c-61.342-2.483-110.131-52.813-110.131-114.539 0-63.307 51.32-114.627 114.627-114.627 0.983 0 1.962 0.012 2.939 0.037l-0.145-0.003zM507.919 895.809c-159.347 0-287.836-136.864-287.836-304.831 0-57.206 32.432-129.269 74.217-198.732 42.030-69.907 94.391-138.668 136.024-189.669 40.593-49.763 114.596-49.763 155.205 0 41.617 51.001 93.994 119.762 136.024 189.669 41.77 69.464 74.202 141.526 74.202 198.732 0 167.967-128.489 304.831-287.836 304.831zM367.968 569.336c-3.355 11.635-5.284 24.999-5.284 38.813 0 59.968 36.355 111.445 88.228 133.593l0.948 0.36h-0.015c16.429 6.998 35.541 11.066 55.603 11.066 0.166 0 0.332 0 0.498-0.001h-0.026c0.002 0 0.005 0 0.007 0 80.188 0 145.194-65.006 145.194-145.194s-65.006-145.194-145.194-145.194c-66.438 0-122.454 44.623-139.711 105.534l-0.248 1.023zM251.629 208.949c0.337-1.197 0.53-2.571 0.53-3.99 0-7.538-5.456-13.801-12.635-15.055l-0.091-0.013c-63.977-10.729-116.002-25.004-151.613-41.266-17.867-8.1-30.796-16.384-39.034-24.301-8.223-7.902-10.576-14.229-10.576-18.967 0-7.795 6.816-19.685 30.842-33.685 22.941-13.358 57.161-25.921 100.78-36.681 86.994-21.382 207.979-34.801 342.169-34.801s255.175 13.419 342.169 34.847c43.619 10.744 77.839 23.307 100.78 36.665 24.041 14 30.842 25.89 30.842 33.685 0 4.203-1.834 9.613-7.993 16.323-6.236 6.786-16.124 14.046-30.109 21.366-27.923 14.611-69.173 27.969-120.939 38.897-6.906 1.566-11.984 7.652-11.984 14.923 0 8.441 6.843 15.284 15.284 15.284 1.061 0 2.096-0.108 3.096-0.314l-0.099 0.017c53.019-11.172 97.356-25.264 128.825-41.724 15.712-8.253 28.962-17.439 38.453-27.816 9.568-10.408 16.032-22.849 16.032-36.986 0-25.462-20.556-45.239-46.019-60.064-26.563-15.467-63.962-28.886-108.85-39.936-90.020-22.161-213.573-35.718-349.49-35.718s-259.469 13.541-349.49 35.718c-44.888 11.065-82.287 24.454-108.85 39.951-25.462 14.795-46.019 34.571-46.019 60.064 0 15.971 8.253 29.727 19.96 40.991 11.692 11.249 28.045 21.244 47.532 30.109 39.065 17.805 94.025 32.646 159.224 43.589 0.749 0.13 1.612 0.204 2.492 0.204 7.030 0 12.953-4.737 14.753-11.192l0.026-0.108z" />
<glyph unicode="&#xe91c;" glyph-name="mail" data-tags="mail" d="M104.262 714.752c-2.7-7.913-4.189-16.291-4.189-25.135v-437.062c0-42.449 34.444-76.8 76.8-76.8h670.255c42.415 0 76.8 34.385 76.8 76.8v437.015c0 3.584-0.233 7.121-0.698 10.566l-393.263-235.985c-5.126-3.124-11.327-4.974-17.959-4.974-7.005 0-13.528 2.063-18.994 5.615l0.135-0.082-388.887 250.089zM157.044 763.857l355.607-228.631 370.502 222.301c-10.368 5.6-22.693 8.891-35.788 8.891-0.084 0-0.168 0-0.251 0h-670.242c-6.842 0-13.498-0.884-19.828-2.56zM30.255 689.571c0 80.975 65.643 146.618 146.618 146.618v0h670.255c80.975 0 146.618-65.643 146.618-146.618v0-437.062c0-80.975-65.643-146.618-146.618-146.618v0h-670.255c-80.975 0-146.618 65.643-146.618 146.618v0 437.062z" />
<glyph unicode="&#xe91d;" glyph-name="mappin" data-tags="mappin" d="M349.091 570.182c0 96.399 78.147 174.545 174.545 174.545s174.545-78.147 174.545-174.545v0c0-96.399-78.147-174.545-174.545-174.545s-174.545 78.147-174.545 174.545v0zM523.636 674.909c-57.839 0-104.727-46.888-104.727-104.727s46.888-104.727 104.727-104.727v0c57.839 0 104.727 46.888 104.727 104.727s-46.888 104.727-104.727 104.727v0zM523.636 884.364c-173.518 0-314.182-140.664-314.182-314.182v0c0-144.524 80.71-276.108 165.981-374.225 45.076-51.393 93.562-97.504 145.907-138.955l2.293-1.752c54.64 43.201 103.127 89.312 147.127 139.458l1.074 1.249c85.271 98.164 165.981 229.702 165.981 374.272 0 173.518-140.664 314.182-314.182 314.182v0-0.047zM523.636 11.636l-20.015-28.579-0.14 0.093-0.233 0.14-0.931 0.652c-6.32 4.504-11.169 8.14-15.945 11.867l1.050-0.789c-60.918 47.437-114.811 98.319-163.534 153.852l-1.144 1.331c-89.274 102.633-183.11 250.321-183.11 419.98 0 212.077 171.923 384 384 384s384-171.923 384-384v0c0-169.658-93.836-317.347-183.11-419.98-49.868-56.861-103.761-107.744-162.072-153.226l-2.605-1.956c-4.934-3.724-9.868-7.447-14.895-11.078l-0.931-0.652-0.233-0.14-0.093-0.093-20.061 28.579zM523.636 11.636l20.061-28.579c-5.589-3.937-12.538-6.293-20.038-6.293s-14.449 2.356-20.149 6.367l0.111-0.074 20.015 28.579z" />
<glyph unicode="&#xe91e;" glyph-name="pencil-underline" data-tags="pencil-underline" d="M689.232 960c-13.064 0-25.984-2.666-38.001-7.692-12.11-5.066-23.035-12.437-32.154-21.692l-128.923-128.923-0.307-0.158-0.158-0.307-461.077-461.076c-9.084-9.124-16.328-20.076-21.228-31.997-4.88-11.904-7.424-24.659-7.385-37.538v-219.849c0-26.041 10.401-51.113 28.769-69.537 18.469-18.487 43.624-28.924 69.693-28.924h827.076c15.667 0 30.696 6.223 41.771 17.306 11.083 11.083 17.306 26.104 17.306 41.771s-6.223 30.696-17.306 41.779c-11.075 11.075-26.104 17.298-41.771 17.298h-448.154l501.236 501.236c9.169 9.114 16.4 19.961 21.386 31.846 5.025 12.016 7.688 24.941 7.688 38.001 0 13.063-2.662 25.984-7.688 38-4.986 11.885-12.217 22.732-21.386 31.846l-0.307 0.306-218.926 218.923c-9.1 9.212-20.047 16.624-32.157 21.69-12.059 5.052-24.937 7.692-38 7.692zM689.232 833.692l192.157-192.154-74.004-73.846-191.999 192 73.846 74zM531.693 676l192-192-413.538-413.541h-192v192.156l413.538 413.385z" />
<glyph unicode="&#xe91f;" glyph-name="phone-call" data-tags="phone-call" d="M566.924 929.28c-1.749 0.31-3.763 0.488-5.818 0.488-19.292 0-34.932-15.639-34.932-34.932 0-17.237 12.485-31.558 28.905-34.414l0.209-0.030c95.853-16.655 179.152-61.623 243.14-125.845l0.014-0.014c64.351-63.719 109.399-146.825 125.658-239.829l0.387-2.673c3.366-16.043 17.397-27.917 34.202-27.917 19.28 0 34.909 15.629 34.909 34.909 0 1.654-0.115 3.282-0.338 4.875l0.021-0.184c-19.276 110.601-71.317 206.677-145.606 280.355l-0.035 0.035c-73.944 74.044-170.090 125.898-277.599 144.723l-3.116 0.452zM200.378 871.005c-22.249 0-41.425-10.659-56.32-24.529-0.222-0.23-0.45-0.472-0.674-0.718l-0.024-0.027-72.704-72.564c-22.094-22.018-36.664-51.573-39.528-84.48l-0.036-0.512c-3.724-45.196 5.12-92.346 26.019-148.247 33.699-90.903 84.713-175.569 159.279-265.216l0.186-0.093c88.613-105.73 197.213-191.531 320.388-252.271l5.756-2.566 0.093-0.093c45.428-21.69 108.079-48.547 179.014-53.062 4.841-0.372 8.89-0.326 12.102-0.326 0.452-0.005 0.986-0.008 1.52-0.008 41.555 0 78.974 17.709 105.121 45.993l0.087 0.095c8.239 9.681 65.071 66.188 65.071 66.188 2.788 2.767 5.111 5.997 6.844 9.567l0.091 0.208s7.308 14.615 10.985 33.699c3.724 19.084 5.585 49.571-18.106 72.937l-116.596 116.364c-10.519 11.45-28.672 26.81-56.46 26.81-28.579 0-46.452-15.732-56.832-26.065l-41.844-41.751c-3.584-3.631-4.561-4.468-7.727-4.468-1.396 0-2.188 0-5.539 1.629 1.35-0.652-0.977 0.512-0.977 0.559-7.773 4.655-15.36 8.564-22.621 12.195-9.415 4.501-17.024 8.671-24.398 13.188l1.172-0.668c-64.884 40.96-123.951 94.487-180.783 164.352l-0.093 0.093c-30.86 39.098-49.943 70.377-63.581 103.191-0.743 2.030-1.199 4.374-1.256 6.816v0.026c0.093 0.838-0.372 1.443 3.724 5.585l0.093 0.14c2.579 2.589 4.756 5.583 6.425 8.877l0.092 0.199c-6.051-12.102-9.961-12.567-5.399-8.006l-1.117-1.071c8.052 7.168 6.191 5.399 10.007 8.518 3.724 3.072 5.306 5.12 13.033 13.033l0.698 0.605c6.516 6.284 12.381 12.335 18.106 18.013 15.081 15.081 27.183 34.769 27.183 57.716 0 22.993-12.102 42.589-27.183 57.623l-58.182 58.089c-6.982 7.168-13.684 13.871-19.921 20.294-12.679 13.204-25.301 25.738-38.215 37.967l-0.511 0.48-0.652 0.652c-10.147 10.147-28.393 25.088-55.855 25.088zM200.378 801.187c-0.605 0 2.979-1.164 6.47-4.655l0.605-0.605c13.18-12.445 25.56-24.736 37.627-37.329l0.355-0.372c6.889-7.121 13.731-13.917 20.294-20.666 0.125-0.126 0.246-0.248 0.368-0.368l0.004-0.004 58.182-58.089c7.494-7.447 6.749-9.542 6.749-8.285s0.745-0.791-6.749-8.285c-6.47-6.423-12.241-12.428-17.827-17.78-0.222-0.229-0.45-0.472-0.674-0.718l-0.024-0.027c-9.030-9.216-10.054-10.054-8.192-8.564 1.862 1.536-2.886-2.095-12.567-10.705l-1.35-1.396c0.838 0.884-1.769-2.607-1.722-2.327-13.219-13.731-21.504-30.627-23.273-45.847-0.28-2.595-0.44-5.606-0.44-8.653 0-10.126 1.764-19.841 5.002-28.852l-0.187 0.595 0.605-1.862c0.328-1.031 0.612-1.803 0.922-2.561l-0.085 0.234c16.617-40.122 40.029-77.684 73.728-120.32l0.559-0.652 0.093-0.093c60.742-74.705 125.673-133.865 197.632-179.293 10.659-6.749 20.713-11.729 29.277-15.965 8.626-4.122 15.488-7.844 22.162-11.848l-1.217 0.677c-3.072 1.536-1.862 0.698 2.653-1.583 11.171-5.585 24.064-8.983 36.771-8.983 32.209 0 53.434 21.271 57.065 24.902l41.705 41.658c4.096 4.049 9.263 5.725 7.587 5.725-1.396 0 2.188-1.117 4.887-4.096 0.39-0.441 0.755-0.835 1.127-1.221l-0.010 0.011 0.465-0.465 117.527-117.341c-1.676 1.676 0.326-1.117-1.396-9.914-1.303-6.796-3.025-10.38-4.049-12.8-7.168-6.982-45.056-43.613-62.371-63.628-15.919-17.036-29.091-22.761-54.737-22.761-3.212 0-5.911 0-7.447 0.093h-0.093c-55.622 3.537-110.499 25.972-153.274 46.359l-0.186 0.093c-119.791 58.797-220.681 138.539-301.804 235.399l-1.161 1.424c-70.749 85.178-116.876 162.211-147.549 244.829v0.093c-18.665 49.943-24.483 85.318-21.83 117.9v0.093c1.536 17.594 6.889 28.858 19.363 41.379l71.82 71.82 0.279 0.186c5.679 5.12 8.797 5.446 8.285 5.446zM558.313 746.543c-1.742 0.308-3.748 0.484-5.795 0.484-19.29 0-34.928-15.638-34.928-34.928 0-17.243 12.495-31.568 28.925-34.414l0.208-0.030c50.607-8.684 94.583-32.456 128.261-66.449l0.018-0.018c33.987-33.624 57.778-77.492 66.356-126.59l0.204-1.41c2.944-16.549 17.222-28.951 34.397-28.951 19.28 0 34.909 15.629 34.909 34.909 0 2.105-0.186 4.167-0.543 6.169l0.031-0.211c-11.517 65.276-42.263 121.965-86.092 165.499l-0.017 0.017c-43.67 43.879-100.54 74.585-164.151 85.659l-1.83 0.264z" />
<glyph unicode="&#xe920;" glyph-name="phone" data-tags="phone" d="M192.205 960c-24.474 0-45.568-11.725-61.952-27.034-0.262-0.255-0.513-0.506-0.759-0.759l-0.009-0.009-79.974-79.821c-24.303-24.22-40.33-56.73-43.481-92.928l-0.039-0.563c-4.096-49.766 5.632-101.581 28.621-163.123 37.069-99.942 93.184-193.024 175.206-291.686l0.205-0.102c97.507-116.374 217.020-210.808 352.579-277.651l6.333-2.823c49.92-23.859 118.886-53.402 196.864-58.419 5.325-0.358 9.728-0.307 13.312-0.307 0.527-0.006 1.15-0.010 1.774-0.010 45.711 0 86.872 19.481 115.634 50.593l0.096 0.105c9.011 10.65 71.475 72.806 71.475 72.806 3.071 3.041 5.627 6.595 7.529 10.524l0.099 0.228s8.038 16.077 12.083 37.069c4.096 20.992 6.144 54.477-19.968 80.179l-128.205 128c-11.571 12.646-31.539 29.491-62.106 29.491-31.386 0-51.098-17.254-62.515-28.672l-46.080-45.875c-3.891-3.994-4.966-4.915-8.397-4.915-1.536 0-2.458 0-6.144 1.792 1.331-0.666-1.024 0.512-1.178 0.717-6.377 3.896-14.493 8.328-22.803 12.429l-1.978 0.883c-10.302 4.942-18.637 9.529-26.713 14.498l1.267-0.725h-0.102c-71.373 45.056-136.346 103.987-198.861 180.89l-0.102 0.102c-33.946 43.008-54.938 77.312-69.888 113.408-0.828 2.213-1.346 4.77-1.433 7.437l-0.001 0.038c0.102 1.024-0.614 1.536 4.198 6.298l0.205 0.205c2.768 2.81 5.11 6.051 6.914 9.611l0.101 0.219c-6.656-13.312-11.008-13.824-5.99-8.806l-1.024-1.024c8.346 7.475 6.656 5.837 10.752 9.216 4.096 3.328 5.939 5.632 14.336 14.336l0.819 0.768c7.117 6.861 13.67 13.568 19.917 19.814 16.589 16.589 29.901 38.144 29.901 63.386s-13.312 46.899-29.901 63.488l-64 63.795c-7.68 7.834-15.053 15.258-21.914 22.323-13.824 14.438-28.058 28.518-42.598 42.291l-0.717 0.717c-11.162 11.162-31.232 27.597-61.44 27.597zM192.205 883.2c-0.614 0 3.277-1.28 7.117-5.12l0.666-0.717c14.285-13.466 28.16-27.29 41.779-41.472 7.578-7.782 15.104-15.258 22.323-22.682 0.137-0.139 0.271-0.272 0.405-0.405l0.005-0.005 64-63.898c8.192-8.192 7.424-10.496 7.424-9.114s0.819-0.87-7.424-9.114c-7.168-7.066-13.466-13.67-19.61-19.61-0.262-0.256-0.512-0.506-0.759-0.759l-0.009-0.009c-9.933-10.138-11.059-10.957-9.011-9.318 2.048 1.69-3.174-2.406-13.824-11.878-0.553-0.49-1.053-0.957-1.541-1.438l0.005 0.005c0.922 0.87-1.843-2.714-1.741-2.355-14.694-15.155-23.757-33.894-25.702-50.688-1.434-13.722 0.256-27.648 4.813-40.653l0.666-2.048c0.361-1.136 0.674-1.985 1.015-2.819l-0.094 0.259c18.278-44.134 44.032-85.453 81.101-132.352l0.614-0.717 0.102-0.102c66.867-82.176 138.24-147.251 217.395-197.222 11.725-7.424 22.784-12.902 32.205-17.562 8.397-4.25 15.514-7.885 20.070-10.752 1.024-0.563 2.048-1.178 3.226-1.69-3.686 1.843-2.867 1.126 2.56-1.536h0.102c12.288-6.144 26.522-9.933 40.448-9.933 35.43 0 58.778 23.398 62.771 27.392l45.926 45.773c4.506 4.506 10.138 6.298 8.294 6.298-1.536 0 2.406-1.229 5.376-4.454 0.431-0.486 0.832-0.919 1.241-1.344l-0.013 0.013 0.768-0.717 129.024-128.768c-1.843 1.843 0.358-1.382-1.536-11.008-1.434-7.475-3.328-11.418-4.454-14.080-7.885-7.68-49.562-47.923-68.608-70.042-17.51-18.688-32-24.986-60.211-24.986-3.584 0-6.451 0-8.192 0.102h-0.102c-61.184 3.891-121.549 28.57-168.602 50.995l-0.205 0.102c-131.751 64.719-242.711 152.466-331.929 259.036l-1.28 1.572c-77.824 93.645-128.614 178.33-162.304 269.21v0.102c-20.531 54.938-26.931 93.85-24.064 129.69v0.102c1.741 19.354 7.629 31.744 21.35 45.517l79.002 79.002 0.307 0.205c6.246 5.632 9.677 5.99 9.114 5.99z" />
<glyph unicode="&#xe921;" glyph-name="plane-down" data-tags="plane-down" d="M723.354 606.31l-128 277.35c-3.483 7.38-10.863 12.395-19.414 12.395-1.814 0-3.576-0.226-5.258-0.651l0.148 0.032-85.35-21.402c-10.24-2.56-17.050-12.288-16.026-22.784l21.35-213.35c1.104-10.84 10.184-19.227 21.222-19.227 11.778 0 21.326 9.548 21.326 21.326 0 0.739-0.038 1.47-0.111 2.19l0.007-0.090-19.456 195.021 50.278 12.595 120.525-261.325c3.494-7.35 10.859-12.341 19.389-12.341 9.116 0 16.901 5.7 19.986 13.73l0.049 0.146c0.831 2.196 1.312 4.736 1.312 7.387 0 3.264-0.729 6.358-2.033 9.128l0.055-0.131zM945.050 489.677c-1.91 0.62-4.107 0.978-6.388 0.978-7.321 0-13.782-3.685-17.628-9.302l-0.047-0.073c-3.686-2.253-23.296-11.981-88.986-11.981-11.333-0.573-20.305-9.901-20.305-21.325s8.972-20.752 20.254-21.323l0.051-0.002c76.8 0 119.501 12.186 126.976 36.352 0.604 1.884 0.953 4.051 0.953 6.299 0 9.489-6.205 17.529-14.78 20.283l-0.151 0.042 0.051 0.051zM723.2 457.267c-2.551 5.225-7.035 9.175-12.497 10.965l-0.15 0.043c-5.478 1.792-135.475 43.725-198.554 43.725-10.752 0-19.968-8.141-21.197-18.842l-42.701-362.598c-0.098-0.768-0.154-1.656-0.154-2.558 0-10.296 7.305-18.886 17.015-20.868l0.137-0.023 106.701-21.299c1.272-0.269 2.734-0.424 4.232-0.424 9.092 0 16.857 5.684 19.936 13.692l0.049 0.146 127.949 341.35c0.866 2.221 1.368 4.793 1.368 7.482 0 3.37-0.788 6.556-2.191 9.384l0.055-0.123v-0.051zM562.432 131.123l-69.632 13.926 38.042 323.072c44.749-4.762 111.411-23.654 145.254-33.792l-113.664-303.206zM666.317 618.086c-152.627 36.71-328.704 57.958-375.091 63.181l-80.179 160.256c-3.571 7.048-10.762 11.795-19.061 11.795-1.831 0-3.608-0.231-5.304-0.666l0.148 0.032-85.35-21.35c-9.337-2.395-16.128-10.735-16.128-20.662 0-0.008 0-0.016 0-0.024v0.001-121.6c-20.48 3.789-47.104 5.018-65.485-7.936-9.062-6.298-19.866-18.688-19.866-41.114 0-9.677 0-38.042 75.622-89.805l-31.846-95.437c-0.734-2.060-1.159-4.437-1.159-6.913 0-11.707 9.49-21.197 21.197-21.197 0.065 0 0.131 0 0.196 0.001h106.64c8.296 0.032 15.481 4.756 19.041 11.656l0.056 0.12 19.251 38.605c88.934-40.192 181.76-71.168 276.992-92.467 1.447-0.354 3.109-0.558 4.818-0.558 10.088 0 18.523 7.082 20.603 16.546l0.026 0.14c0.335 1.413 0.527 3.034 0.527 4.701 0 10.107-7.057 18.566-16.512 20.718l-0.142 0.027c-109.255 24.944-204.986 58.732-295.356 101.934l8.432-3.63c-2.683 1.306-5.837 2.069-9.169 2.069-8.309 0-15.509-4.746-19.038-11.676l-0.056-0.121-22.63-45.414h-63.898l27.648 82.893c0.69 2.008 1.088 4.321 1.088 6.728 0 7.497-3.864 14.092-9.709 17.901l-0.082 0.050c-55.808 35.994-69.376 57.856-69.888 63.13 0 4.966 1.28 5.939 1.792 6.246 8.141 5.683 35.533 1.997 55.040-4.966 2.158-0.82 4.653-1.295 7.26-1.295 4.576 0 8.809 1.464 12.258 3.949l-0.062-0.043c5.508 3.882 9.062 10.216 9.062 17.38 0 0.010 0 0.020 0 0.030v-0.002 132.71l52.582 13.158 77.67-155.392c3.241-6.436 9.462-10.957 16.8-11.767l0.096-0.009c2.048-0.205 207.36-21.658 381.491-63.539 156.979-35.277 324.71-109.978 324.71-213.862 0-2.048-0.41-2.816-2.048-4.096-22.733-18.586-120.166-10.24-289.331 24.883-1.308 0.285-2.811 0.449-4.352 0.449-11.785 0-21.338-9.553-21.338-21.338 0-10.244 7.218-18.802 16.846-20.864l0.14-0.025c113.613-23.552 192-35.021 245.043-35.021 39.322 0 64.666 6.298 79.974 18.79 10.836 8.647 17.719 21.853 17.719 36.666 0 0.196-0.001 0.391-0.004 0.586v-0.030c0 162.458-274.022 236.646-357.683 255.488zM490.701 42.65h-469.402c-11.333-0.573-20.305-9.901-20.305-21.325s8.972-20.752 20.254-21.323l0.051-0.002h469.299c11.333 0.573 20.305 9.901 20.305 21.325s-8.972 20.752-20.254 21.323l-0.051 0.002h0.102z" />
<glyph unicode="&#xe922;" glyph-name="plane-up" data-tags="plane-up" d="M832 789.35c-120.627 0-259.072-63.283-264.96-65.946-7.409-3.457-12.452-10.843-12.452-19.408 0-11.792 9.559-21.35 21.35-21.35 3.275 0 6.377 0.737 9.151 2.055l-0.129-0.055c1.331 0.614 135.885 62.003 247.040 62.003 108.8 0 149.35-26.112 149.35-42.65 0-79.565-667.904-341.35-810.701-341.35-23.962 0-88.218 0-118.323 5.478 13.978 11.008 39.066 26.624 64.102 39.578 6.927 3.624 11.573 10.759 11.573 18.98 0 4.414-1.339 8.515-3.634 11.919l0.048-0.076-75.622 113.408 19.456 19.405 156.877-78.49c2.776-1.41 6.053-2.236 9.523-2.236s6.747 0.826 9.646 2.292l-0.122-0.056 128 64c7.646 3.362 12.888 10.87 12.888 19.602 0 11.792-9.559 21.35-21.35 21.35-3.894 0-7.544-1.042-10.687-2.863l0.103 0.055-118.477-59.136-161.075 80.589c-2.782 1.426-6.068 2.261-9.55 2.261-5.89 0-11.221-2.391-15.077-6.254v0l-42.701-42.701c-3.86-3.863-6.247-9.198-6.247-15.090 0-4.413 1.339-8.513 3.633-11.917l-0.048 0.076 72.294-108.442c-75.878-42.342-75.878-63.386-75.878-71.68 0-38.502 54.63-42.701 170.65-42.701 113.613 0 853.35 249.856 853.35 384 0 25.702-18.688 85.35-192 85.35zM639.846 685.312c-1.091 8.475-7.027 15.321-14.902 17.727l-0.151 0.040-426.701 128c-1.835 0.57-3.944 0.899-6.13 0.899-5.881 0-11.207-2.378-15.068-6.224l-85.349-85.298c-3.873-3.857-6.27-9.195-6.27-15.092 0-7.914 4.316-14.819 10.722-18.492l0.104-0.055 298.65-170.65c3.039-1.763 6.686-2.804 10.576-2.804 4.033 0 7.806 1.118 11.023 3.062l-0.096-0.054 213.35 128c6.271 3.807 10.397 10.6 10.397 18.355 0 0.911-0.057 1.809-0.167 2.69l0.011-0.105zM404.992 579.328l-263.526 150.682 56.678 56.525 368.128-110.438-161.28-96.768zM960 768c-92.058 0-140.902-46.746-142.95-48.742-3.78-3.849-6.114-9.13-6.114-14.956 0-11.792 9.559-21.35 21.35-21.35 5.61 0 10.714 2.163 14.524 5.701l-0.013-0.012c1.587 1.536 39.424 36.71 113.203 36.71 11.333 0.573 20.305 9.901 20.305 21.325s-8.972 20.752-20.254 21.323l-0.051 0.002zM852.787 261.222l-64 256c-2.539 9.159-10.802 15.77-20.608 15.77-11.792 0-21.35-9.559-21.35-21.35 0-1.689 0.196-3.331 0.567-4.907l-0.029 0.145 59.853-239.411-54.784-27.392-181.248 221.44c-3.94 4.796-9.872 7.832-16.512 7.832-11.776 0-21.323-9.547-21.323-21.323 0-5.136 1.816-9.848 4.84-13.528l-0.030 0.037 192-234.701c3.917-4.806 9.837-7.851 16.468-7.851 3.52 0 6.84 0.858 9.762 2.377l-0.118-0.056 85.35 42.65c7.051 3.584 11.798 10.785 11.798 19.094 0 1.838-0.232 3.621-0.669 5.322l0.032-0.148zM490.65 106.65h-469.299c-11.333-0.573-20.305-9.901-20.305-21.325s8.972-20.752 20.254-21.323l0.051-0.002h469.299c11.333 0.573 20.305 9.901 20.305 21.325s-8.972 20.752-20.254 21.323l-0.051 0.002z" />
<glyph unicode="&#xe923;" glyph-name="receipt-lines" data-tags="receipt-lines" d="M228.894 839.529c-12.469 0-33.129-13.914-33.129-45.176v-726.98l59.633 41.321c7.181 5.029 16.1 8.037 25.72 8.037s18.539-3.007 25.866-8.133l-0.146 0.097 104.809-72.584 104.809 72.584c7.175 5.016 16.082 8.016 25.69 8.016s18.515-2.999 25.837-8.113l-0.147 0.097 104.809-72.584 104.809 72.584c7.175 5.016 16.082 8.016 25.69 8.016s18.515-2.999 25.837-8.113l-0.147 0.097 59.633-41.321v726.98c0 31.262-20.661 45.176-33.129 45.176h-626.447zM105.412 794.353c0 68.548 49.393 135.529 123.482 135.529h626.447c74.089 0 123.482-66.982 123.482-135.529v-813.176c0-0.008 0-0.016 0-0.025 0-24.95-20.226-45.176-45.176-45.176-9.621 0-18.539 3.007-25.866 8.133l0.146-0.097-104.809 72.584-104.809-72.584c-7.175-5.016-16.082-8.016-25.69-8.016s-18.515 2.999-25.837 8.113l0.147-0.097-104.809 72.584-104.809-72.584c-7.181-5.029-16.1-8.037-25.72-8.037s-18.539 3.007-25.866 8.133l0.146-0.097-104.809 72.584-104.809-72.584c-7.169-5.004-16.065-7.995-25.66-7.995-24.945 0-45.167 20.217-45.176 45.159v813.177zM286.118 643.765c0 24.95 20.226 45.176 45.176 45.176v0h421.647c24.95 0 45.176-20.226 45.176-45.176s-20.226-45.176-45.176-45.176v0h-421.647c-24.95 0-45.176 20.226-45.176 45.176v0zM286.118 402.824c0 24.95 20.226 45.176 45.176 45.176v0h421.647c24.95 0 45.176-20.226 45.176-45.176s-20.226-45.176-45.176-45.176v0h-421.647c-24.95 0-45.176 20.226-45.176 45.176v0z" />
<glyph unicode="&#xe924;" glyph-name="search" data-tags="search" d="M454.4 947.2c-0.006 0-0.013 0-0.020 0-243.889 0-441.6-197.711-441.6-441.6s197.711-441.6 441.6-441.6c108.427 0 207.727 39.077 284.585 103.916l-0.661-0.543 207.36-207.36c6.897-6.662 16.301-10.767 26.664-10.767 21.208 0 38.4 17.192 38.4 38.4 0 10.376-4.115 19.79-10.802 26.701l-207.299 207.35c64.286 76.194 103.356 175.486 103.356 283.904 0 243.883-197.701 441.59-441.582 441.6h-0.001zM89.6 505.6c0 201.473 163.327 364.8 364.8 364.8s364.8-163.327 364.8-364.8v0c0-201.473-163.327-364.8-364.8-364.8s-364.8 163.327-364.8 364.8v0z" />
<glyph unicode="&#xe925;" glyph-name="share" data-tags="share" d="M470.016 947.471c8.095 7.741 19.092 12.506 31.202 12.506s23.107-4.765 31.219-12.522l-0.017 0.016 240.941-230.099c8.621-8.242 13.98-19.834 13.98-32.678 0-24.953-20.229-45.182-45.182-45.182-12.11 0-23.107 4.764-31.219 12.52l0.017-0.016-164.563 157.214v-496.76c0-24.95-20.226-45.176-45.176-45.176s-45.176 20.226-45.176 45.176v0 496.76l-164.442-157.214c-8.101-7.753-19.109-12.525-31.232-12.525-24.965 0-45.203 20.238-45.203 45.203 0 12.842 5.355 24.433 13.954 32.662l0.017 0.016 240.941 230.099zM77.402 344.516c24.95 0 45.176-20.226 45.176-45.176v0-186.067c0-16.384 6.445-31.925 17.769-43.369s26.624-17.769 42.466-17.769h632.471c16.612 0.029 31.632 6.819 42.461 17.764l0.005 0.005c11.324 11.445 17.769 26.985 17.769 43.369v186.007c0 24.95 20.226 45.176 45.176 45.176s45.176-20.226 45.176-45.176v0-186.007c-0.016-62.533-37.798-116.238-91.777-139.548l-0.986-0.379c-18.372-7.65-37.948-11.565-57.826-11.625h-632.471c-41.705 0.037-79.423 17.077-106.603 44.56l-0.014 0.014c-27.179 27.438-43.972 65.205-43.972 106.894 0 0.030 0 0.059 0 0.089v-0.005 186.007c0 24.95 20.226 45.176 45.176 45.176v0z" />
<glyph unicode="&#xe926;" glyph-name="sort-asc" data-tags="sort-asc" d="M206.662 757.062c6.211 5.777 14.565 9.323 23.748 9.323 9.421 0 17.97-3.732 24.25-9.798l-0.010 0.010 177.152-170.729c6.157-6.289 9.956-14.907 9.956-24.413 0-19.28-15.629-34.909-34.909-34.909-9.042 0-17.282 3.438-23.482 9.078l0.028-0.025-118.086 113.711v-476.393c0-19.28-15.629-34.909-34.909-34.909s-34.909 15.629-34.909 34.909v0 478.487l-125.207-116.271c-6.214-5.78-14.574-9.328-23.761-9.328-19.29 0-34.928 15.638-34.928 34.928 0 10.102 4.289 19.203 11.145 25.58l0.021 0.020 183.901 170.729zM535.599 676.305c0 19.28 15.629 34.909 34.909 34.909v0h398.336c19.28 0 34.909-15.629 34.909-34.909s-15.629-34.909-34.909-34.909v0h-398.336c-19.28 0-34.909 15.629-34.909 34.909v0zM538.298 452.189c0 19.28 15.629 34.909 34.909 34.909v0h284.579c19.28 0 34.909-15.629 34.909-34.909s-15.629-34.909-34.909-34.909v0h-284.579c-19.28 0-34.909 15.629-34.909 34.909v0zM538.298 228.073c0 19.28 15.629 34.909 34.909 34.909v0h170.729c19.28 0 34.909-15.629 34.909-34.909s-15.629-34.909-34.909-34.909v0h-170.729c-19.28 0-34.909 15.629-34.909 34.909v0z" />
<glyph unicode="&#xe927;" glyph-name="sort-desc" data-tags="sort-desc" d="M223.697 762.182c19.28 0 34.909-15.629 34.909-34.909v0-478.487l125.207 116.271c6.21 5.771 14.56 9.312 23.738 9.312 19.281 0 34.912-15.631 34.912-34.912 0-10.104-4.292-19.205-11.152-25.58l-0.022-0.020-183.855-170.729c-6.208-5.764-14.553-9.301-23.725-9.301-9.41 0-17.95 3.723-24.228 9.776l0.011-0.010-177.152 170.729c-6.157 6.289-9.956 14.907-9.956 24.413 0 19.28 15.629 34.909 34.909 34.909 9.042 0 17.282-3.438 23.482-9.078l-0.028 0.025 118.039-113.711v476.393c0 19.28 15.629 34.909 34.909 34.909v0zM544.163 698.089c0 19.28 15.629 34.909 34.909 34.909v0h398.383c19.28 0 34.909-15.629 34.909-34.909s-15.629-34.909-34.909-34.909v0h-398.383c-19.28 0-34.909 15.629-34.909 34.909v0zM544.163 473.972c0 19.28 15.629 34.909 34.909 34.909v0h284.579c19.28 0 34.909-15.629 34.909-34.909s-15.629-34.909-34.909-34.909v0h-284.625c-19.28 0-34.909 15.629-34.909 34.909v0zM544.163 249.856c0 19.28 15.629 34.909 34.909 34.909v0h170.729c19.28 0 34.909-15.629 34.909-34.909s-15.629-34.909-34.909-34.909v0h-170.729c-19.28 0-34.909 15.629-34.909 34.909v0z" />
<glyph unicode="&#xe928;" glyph-name="ticket" data-tags="ticket" d="M85.333 782.222c-43.175-0.065-78.158-35.047-78.222-78.216v-110.029c-0.001-0.107-0.001-0.232-0.001-0.359 0-37.74 26.844-69.21 62.479-76.358l0.498-0.083-0.683 0.228c45.51-10.039 79.057-50.024 79.076-97.847v-0.002c0-0.047 0-0.102 0-0.157 0-47.816-33.633-87.776-78.532-97.515l-0.658-0.12 0.74 0.114c-36.126-7.184-62.977-38.63-62.977-76.348 0-0.159 0-0.318 0.001-0.477v0.024-109.966c0.065-43.195 35.080-78.19 78.276-78.222h853.337c43.175 0.065 78.158 35.047 78.222 78.216v110.029c0 0.093 0.001 0.202 0.001 0.312 0 37.751-26.84 69.233-62.478 76.405l-0.499 0.084 0.74-0.171c-45.515 10.012-79.080 49.975-79.132 97.786v0.006c0 0.060 0 0.132 0 0.203 0 47.805 33.636 87.753 78.533 97.47l0.657 0.119-0.74-0.114c36.122 7.16 62.978 38.594 62.978 76.301 0 0.175-0.001 0.351-0.002 0.526v-0.027 109.966c-0.065 43.195-35.080 78.19-78.276 78.222h-853.337zM92.444 696.889h234.667v-554.667h-234.667v99.214c38.969 9.671 74.752 30.151 100.124 61.44 25.722 31.58 41.303 72.31 41.303 116.679s-15.581 85.1-41.57 117.018l0.267-0.338c-25.372 31.289-61.099 51.769-100.124 61.44v99.214zM412.444 696.889h519.111v-99.214c-39.026-9.671-74.752-30.151-100.124-61.44-25.732-31.576-41.319-72.307-41.319-116.679s15.588-85.103 41.586-117.017l-0.266 0.337c25.372-31.289 61.099-51.769 100.124-61.44v-99.214h-519.111v554.667z" />
<glyph unicode="&#xe929;" glyph-name="user" data-tags="user" d="M512.003 880c-123.333 0-224-100.668-224-224s100.667-224 224-224c123.332 0 223.997 100.668 223.997 224s-100.665 224-223.997 224zM512.003 816c88.744 0 159.997-71.256 159.997-160s-71.253-160-159.997-160c-88.745 0-160 71.256-160 160s71.255 160 160 160zM512.003 278.624c-248.828 0-416.769-84.058-494.75-214.125-2.176-3.61-3.618-7.61-4.243-11.776-0.625-4.173-0.42-8.422 0.602-12.506 1.022-4.090 2.842-7.936 5.354-11.322 2.513-3.379 5.669-6.234 9.287-8.397 7.278-4.352 15.987-5.645 24.214-3.578 8.227 2.061 15.298 7.302 19.661 14.579 63.396 105.741 205.291 183.123 439.875 183.123s376.477-77.382 439.876-183.123c4.365-7.277 11.43-12.518 19.661-14.579 8.224-2.067 16.934-0.774 24.211 3.578 3.622 2.163 6.778 5.018 9.286 8.397 2.515 3.386 4.333 7.232 5.357 11.322 1.024 4.083 1.229 8.333 0.602 12.506-0.627 4.166-2.067 8.166-4.243 11.776-77.978 130.067-245.92 214.125-494.749 214.125z" />
<glyph unicode="&#xe92a;" glyph-name="view-file" data-tags="view-file" d="M242.347 857.6c-32.047 0-58.027-25.979-58.027-58.027v0-655.36c0-32.085 25.941-58.027 58.027-58.027h491.52c32.047 0 58.027 25.979 58.027 58.027v0 655.36c0 32.047-25.979 58.027-58.027 58.027v0h-491.52zM81.92 799.573c0 88.601 71.825 160.427 160.427 160.427v0h491.52c88.601 0 160.427-71.825 160.427-160.427v0-655.36c0-88.601-71.825-160.427-160.427-160.427v0h-491.52c-88.601 0-160.427 71.825-160.427 160.427v0 655.36zM273.067 690.347c0 28.277 22.923 51.2 51.2 51.2v0h327.68c28.277 0 51.2-22.923 51.2-51.2s-22.923-51.2-51.2-51.2v0h-327.68c-28.277 0-51.2 22.923-51.2 51.2v0zM273.067 526.507c0 28.277 22.923 51.2 51.2 51.2v0h327.68c28.277 0 51.2-22.923 51.2-51.2s-22.923-51.2-51.2-51.2v0h-327.68c-28.277 0-51.2 22.923-51.2 51.2v0zM273.067 362.667c0 28.277 22.923 51.2 51.2 51.2v0h163.84c28.277 0 51.2-22.923 51.2-51.2s-22.923-51.2-51.2-51.2v0h-163.84c-28.277 0-51.2 22.923-51.2 51.2v0z" />
</font>
</defs>
</svg>
