<svg xmlns="http://www.w3.org/2000/svg" width="20" height="20" fill="currentColor" viewBox="0 0 20 20">
  <path fill="currentColor" d="M5.438 4.75C5.438 2.13 7.467 0 9.962 0s4.524 2.13 4.524 4.75a4.866 4.866 0 0 1-1.267 3.297 4.418 4.418 0 0 1-3.095 1.443h-.067a.732.732 0 0 0-.21 0C7.354 9.4 5.439 7.32 5.439 4.75Zm-.304 7.4c2.676-1.86 7.009-1.86 9.666 0 1.2.84 1.857 1.98 1.867 3.21 0 1.24-.667 2.38-1.867 3.23-1.333.94-3.086 1.41-4.838 1.41-1.752 0-3.505-.47-4.838-1.41-1.2-.84-1.867-1.98-1.867-3.21s.667-2.38 1.877-3.23Z"/>
</svg>
