<svg width="23" height="23" viewBox="0 0 23 23" fill="none" xmlns="http://www.w3.org/2000/svg">
<path d="M11.5 1.10001C12.1305 1.10001 12.7351 1.3435 13.1809 1.77692C13.6267 2.21033 13.8771 2.79817 13.8771 3.41112C13.8771 4.02406 13.6267 4.6119 13.1809 5.04532C12.7351 5.47874 12.1305 5.72223 11.5 5.72223C10.8695 5.72223 10.2649 5.47874 9.81913 5.04532C9.37333 4.6119 9.12289 4.02406 9.12289 3.41112C9.12289 2.79817 9.37333 2.21033 9.81913 1.77692C10.2649 1.3435 10.8695 1.10001 11.5 1.10001ZM9.71713 6.87779H13.2829C13.9133 6.87779 14.518 7.12128 14.9638 7.55469C15.4096 7.98811 15.66 8.57595 15.66 9.1889V15.5444H13.8771V21.9H9.12289V15.5444H7.34003V9.1889C7.34003 8.57595 7.59048 7.98811 8.03628 7.55469C8.48208 7.12128 9.08672 6.87779 9.71713 6.87779Z" fill="currentColor"/>
</svg>
