<svg width="15" height="15" viewBox="0 0 15 15" fill="none" xmlns="http://www.w3.org/2000/svg">
<path fill-rule="evenodd" clip-rule="evenodd" d="M4.03031 0.569676C4.3232 0.862569 4.3232 1.33744 4.03031 1.63034L2.91064 2.75001H13.9C14.3142 2.75001 14.65 3.08579 14.65 3.50001C14.65 3.91422 14.3142 4.25001 13.9 4.25001H2.91064L4.03031 5.36968C4.3232 5.66257 4.3232 6.13744 4.03031 6.43034C3.73741 6.72323 3.26254 6.72323 2.96965 6.43034L0.569646 4.03034C0.276752 3.73744 0.276752 3.26257 0.569646 2.96968L2.96965 0.569676C3.26254 0.276783 3.73741 0.276783 4.03031 0.569676ZM10.9696 8.56968C11.2625 8.27678 11.7374 8.27678 12.0303 8.56967L14.4303 10.9697C14.571 11.1103 14.65 11.3011 14.65 11.5C14.65 11.6989 14.571 11.8897 14.4303 12.0303L12.0303 14.4303C11.7374 14.7232 11.2625 14.7232 10.9696 14.4303C10.6768 14.1374 10.6768 13.6626 10.9696 13.3697L12.0893 12.25H1.09998C0.685762 12.25 0.349976 11.9142 0.349976 11.5C0.349976 11.0858 0.685762 10.75 1.09998 10.75H12.0893L10.9696 9.63034C10.6768 9.33744 10.6768 8.86257 10.9696 8.56968Z" fill="currentColor"/>
</svg>
