<svg width="29" height="29" viewBox="0 0 29 29" fill="none" xmlns="http://www.w3.org/2000/svg">
<path d="M17.787 10.7148L23.289 5.7358L23.801 6.31579C23.866 6.38579 23.804 6.4228 23.759 6.4658C23.376 6.8188 22.994 7.1738 22.609 7.5238C21.3662 8.65272 20.1229 9.78105 18.879 10.9088L17.802 11.8808C17.654 12.0158 17.625 12.0178 17.505 11.8508C17.2436 11.487 16.9862 11.1203 16.733 10.7508C16.363 10.2078 16.001 9.6618 15.633 9.1208C15.563 9.0178 15.567 8.9528 15.676 8.8838C15.828 8.7878 15.975 8.6838 16.121 8.5738C16.214 8.5048 16.271 8.5158 16.339 8.6138C16.771 9.2488 17.209 9.8798 17.647 10.5138C17.687 10.5758 17.731 10.6368 17.787 10.7148ZM2.715 19.8278H1.837C1.832 19.7778 1.824 19.7278 1.824 19.6778C1.824 18.8988 1.826 18.1208 1.821 17.3418C1.821 17.2118 1.863 17.1718 1.994 17.1768C2.232 17.1868 2.471 17.1788 2.714 17.1788V19.8288L2.715 19.8278ZM2.717 15.4098V16.2828H2.107C1.823 16.2828 1.823 16.2828 1.823 16.0108V15.4128C2.127 15.4108 2.413 15.4098 2.717 15.4098ZM5.465 19.4098L5.468 19.4468L5.526 19.4398C5.593 19.4308 5.661 19.4238 5.729 19.4198L7.632 19.1798C8.049 19.1268 8.466 19.0748 8.882 19.0268C9.072 19.0048 9.078 19.0098 9.078 19.1948V19.5928C9.078 19.8588 9.08 20.1258 9.085 20.3908C9.085 20.4928 9.047 20.5538 8.967 20.6108C8.703 20.8018 8.44 20.9948 8.177 21.1888L7.783 21.4788C7.733 21.5148 7.677 21.5488 7.621 21.5838C7.49 21.6638 7.359 21.7448 7.299 21.8608C7.238 21.9838 7.249 22.1408 7.261 22.2978C7.266 22.3608 7.271 22.4228 7.271 22.4828C7.273 22.7738 7.277 23.0648 7.284 23.3558C7.286 23.4658 7.326 23.5078 7.453 23.4758C7.889 23.3598 8.329 23.2528 8.77 23.1488C8.842 23.1318 8.915 23.1118 8.988 23.0928C9.203 23.0278 9.424 22.9858 9.648 22.9678C10.156 22.9488 10.662 22.9538 11.168 22.9578L11.702 22.9618C11.771 22.9618 11.844 22.9718 11.912 22.9878L13.057 23.2678L13.287 23.3248C13.52 23.3818 13.753 23.4378 14.001 23.4958L14.051 23.5078C14.051 23.4708 14.055 23.4378 14.057 23.4048C14.06 23.3568 14.064 23.3128 14.064 23.2688V22.7838C14.064 22.5138 14.064 22.2438 14.068 21.9738C14.07 21.8838 14.038 21.8308 13.966 21.7788L13.173 21.1988C12.909 21.0038 12.645 20.8098 12.38 20.6188C12.292 20.5518 12.25 20.4868 12.252 20.3738C12.257 20.0838 12.256 19.7968 12.255 19.5088L12.254 19.1618V19.0028L14.48 19.2758H14.484L15.869 19.4458C15.869 19.4218 15.871 19.3988 15.872 19.3778L15.876 19.2948V18.7248C15.875 18.1528 15.874 17.5818 15.878 17.0128C15.878 16.9058 15.844 16.8608 15.742 16.8228C15.182 16.6208 14.624 16.4168 14.065 16.2128L12.387 15.6028C12.285 15.5658 12.252 15.5208 12.252 15.4138C12.245 14.5108 12.234 13.6108 12.222 12.7108C12.2262 12.6596 12.2179 12.6081 12.198 12.5608L12.168 12.5028C12.0932 12.3541 12.0077 12.211 11.912 12.0748C11.442 11.4418 10.506 11.1528 9.757 11.7378C9.322 12.0778 9.105 12.5118 9.107 13.0678C9.107 13.5178 9.101 13.9688 9.094 14.4198C9.089 14.7468 9.084 15.0748 9.083 15.4028C9.083 15.5228 9.04 15.5708 8.93 15.6098C8.262 15.8508 7.594 16.0948 6.926 16.3398L5.59 16.8258C5.499 16.8608 5.457 16.8958 5.457 17.0018C5.46 17.5778 5.459 18.1548 5.459 18.7318V19.3098C5.459 19.3398 5.461 19.3708 5.465 19.4098ZM11.349 21.8848C11.349 21.1298 11.349 20.3728 11.347 19.6188C11.34 17.3238 11.331 15.0308 11.32 12.7358C11.32 12.6798 11.314 12.6058 11.28 12.5658C11.06 12.3118 10.775 12.2268 10.444 12.2928C10.302 12.3208 10.142 12.4668 10.054 12.6238C10.142 12.4668 10.302 12.3218 10.444 12.2938C10.776 12.2278 11.06 12.3138 11.28 12.5678C11.313 12.6078 11.32 12.6778 11.32 12.7378C11.33 15.0318 11.34 17.3248 11.346 19.6198C11.349 20.3748 11.349 21.1298 11.349 21.8848ZM6.394 18.4618H6.386C6.416 18.4618 6.439 18.4618 6.463 18.4598C6.893 18.4048 7.323 18.3508 7.753 18.2938L7.827 18.2838C8.213 18.2338 8.601 18.1818 8.987 18.1268C8.99903 18.1246 9.01056 18.1202 9.021 18.1138C9.00943 18.1212 8.99652 18.1263 8.983 18.1288C8.573 18.1868 8.163 18.2418 7.75 18.2958C7.32 18.3528 6.89 18.4068 6.459 18.4618C6.43738 18.4638 6.41562 18.4638 6.394 18.4618ZM8.152 16.8098L8.805 16.5708L7.66 16.9908L8.152 16.8108V16.8098ZM6.352 17.5268C6.352 17.4988 6.395 17.4568 6.432 17.4408C6.395 17.4558 6.348 17.4988 6.348 17.5278C6.345 17.7578 6.345 17.9878 6.346 18.2238V18.4618H6.348V18.2718C6.347 18.0198 6.347 17.7728 6.352 17.5268ZM12.274 18.1288V16.4898V18.1248L14.989 18.4658V18.4688L12.282 18.1288H12.274ZM12.881 16.7028C12.719 16.6453 12.5566 16.5886 12.394 16.5328L12.668 16.6278L12.881 16.7028ZM8.187 22.3428L8.162 22.2988L8.312 22.1838L8.164 22.2988L8.19 22.3428C8.197 22.3428 8.203 22.3448 8.21 22.3468L8.23 22.3518C8.21978 22.3511 8.2097 22.3491 8.2 22.3458L8.187 22.3418V22.3428ZM8.797 21.8058L9.032 21.6218L9.034 21.6238L8.798 21.8058H8.797ZM12.271 21.6438L12.289 21.6338H12.291L12.268 21.6468L12.255 21.6548V21.7768C12.252 21.8855 12.2536 21.9943 12.26 22.1028C12.262 22.1398 12.322 22.1928 12.364 22.2028L12.387 22.2098L12.36 22.2028C12.318 22.1898 12.258 22.1398 12.256 22.1028C12.2493 21.9946 12.2477 21.8861 12.251 21.7778V21.6548C12.2578 21.6518 12.2645 21.6485 12.271 21.6448V21.6438ZM0 13.8998C0.009 13.6748 0.02 13.4508 0.024 13.2248L0.064 10.3248C0.064 10.2928 0.064 10.2598 0.069 10.2268C0.113 9.8508 0.763 9.2348 1.147 9.2288C2.357 9.2048 3.567 9.1788 4.777 9.1768C7.677 9.1698 10.577 9.1738 13.477 9.1738H13.681C13.449 6.8748 14.207 4.9678 16.001 3.4878C17.14 2.5478 18.471 2.0578 19.97 2.0698C21.886 2.0878 23.472 2.8448 24.734 4.2428C26 5.6458 26.474 7.3028 26.25 9.1798C26.448 9.1798 26.614 9.1778 26.78 9.1798C27.233 9.1898 27.541 9.4448 27.82 9.7538C28.007 9.9608 28.082 10.1908 28.089 10.4718C28.169 14.9158 28.144 19.3598 28.109 23.8058C28.107 24.1908 28.089 24.5758 28.082 24.9608C28.078 25.1848 27.94 25.3438 27.805 25.5018C27.728 25.5918 27.643 25.6758 27.552 25.7498C27.379 25.8938 27.204 26.0118 26.956 26.0138C25.414 26.0218 23.876 26.0538 22.334 26.0588C19.438 26.0698 16.544 26.0718 13.647 26.0698C10.455 26.0678 7.263 26.0608 4.071 26.0498C3.132 26.0478 2.194 26.0178 1.256 26.0158C1.01649 26.0154 0.786017 25.9243 0.611 25.7608C0.511 25.6738 0.417 25.5808 0.327 25.4828C0.239246 25.3917 0.170525 25.284 0.124853 25.1661C0.0791817 25.0481 0.0574745 24.9222 0.061 24.7958C0.061 23.7858 0.041 22.7768 0.025 21.7698C0.023 21.6238 0.012 21.4798 0.003 21.3348C0 18.8548 0 16.3768 0 13.8998ZM4.54 25.1838H23.125V13.6738C23.1024 13.6769 23.08 13.6816 23.058 13.6878C22.925 13.7478 22.79 13.8118 22.657 13.8748C21.5154 14.4172 20.237 14.6036 18.988 14.4098C18.341 14.3148 17.731 14.1058 17.137 13.8398C17.0564 13.8061 16.9675 13.7977 16.882 13.8158C15.937 14.0428 14.992 14.2758 14.049 14.5038C13.848 14.5518 13.644 14.5938 13.418 14.6438C13.446 14.5468 13.464 14.4798 13.486 14.4138C13.821 13.4938 14.156 12.5718 14.493 11.6518C14.5091 11.6141 14.5167 11.5733 14.5151 11.5323C14.5136 11.4913 14.503 11.4512 14.484 11.4148C14.298 11.0098 14.114 10.6048 13.945 10.1898C13.899 10.0798 13.85 10.0418 13.732 10.0418C10.727 10.0448 7.722 10.0448 4.717 10.0448C4.662 10.0448 4.604 10.0508 4.542 10.0548C4.54 15.1018 4.54 20.1338 4.54 25.1838ZM14.82 13.3878L14.94 13.3728C15.572 13.2268 16.204 13.0878 16.832 12.9308C17.032 12.8808 17.198 12.8878 17.386 12.9848C18.4736 13.5659 19.7257 13.7622 20.939 13.5418C22.359 13.2938 23.512 12.6088 24.363 11.4688C25.301 10.2118 25.603 8.7958 25.323 7.2708C25.123 6.10713 24.5202 5.05086 23.62 4.2868C22.238 3.0968 20.623 2.7228 18.827 3.0568C16.376 3.5038 14.194 5.8138 14.562 8.9288C14.662 9.7808 14.942 10.5708 15.46 11.2688C15.522 11.3518 15.52 11.4188 15.487 11.5128C15.291 12.0348 15.101 12.5608 14.912 13.0848C14.879 13.1748 14.857 13.2698 14.822 13.3878H14.82ZM3.646 17.6158V15.8128C3.646 13.9448 3.646 12.0778 3.648 10.2098C3.648 10.1098 3.642 10.0418 3.506 10.0448C2.774 10.0548 2.043 10.0548 1.311 10.0658C1.056 10.0708 0.958 10.1658 0.947 10.4188C0.934 10.7188 0.918 11.0188 0.918 11.3188C0.908 15.6088 0.909 19.8988 0.923 24.1888C0.923 24.4308 0.938 24.6748 0.965 24.9188C0.982 25.0888 1.067 25.1538 1.24 25.1658C1.397 25.1798 1.555 25.1898 1.712 25.1928C2.291 25.1968 2.87 25.1948 3.449 25.1948C3.649 25.1948 3.649 25.1948 3.649 24.9948C3.646 22.5348 3.646 20.0748 3.646 17.6158ZM27.221 18.0098C27.201 18.0078 27.183 18.0038 27.163 18.0008C26.877 18.6738 26.413 19.1328 25.628 19.1278C24.846 19.1238 24.384 18.6678 24.116 17.9778L24.076 17.9928V25.1928C24.548 25.1928 25.027 25.1968 25.504 25.1928C25.959 25.1878 26.414 25.1798 26.866 25.1658C27.094 25.1598 27.181 25.0658 27.196 24.8458C27.206 24.7098 27.221 24.5728 27.221 24.4378L27.219 18.9628C27.221 18.6448 27.221 18.3278 27.221 18.0098ZM27.183 17.2878C27.192 17.2138 27.196 17.1898 27.196 17.1638C27.206 16.7898 27.221 16.4138 27.221 16.0388C27.225 14.3888 27.225 12.7368 27.225 11.0838C27.225 10.8488 27.21 10.6168 27.196 10.3818C27.186 10.1838 27.081 10.0768 26.884 10.0658C26.64 10.0528 26.396 10.0558 26.152 10.0458C26.065 10.0458 26.028 10.0768 25.997 10.1558C25.909 10.3928 25.811 10.6258 25.704 10.8558C25.329 11.6498 24.774 12.3158 24.147 12.9288C24.0897 12.9864 24.0549 13.0627 24.049 13.1438C24.047 14.3208 24.052 15.4998 24.059 16.6768C24.059 16.8668 24.076 17.0548 24.085 17.2448C24.385 16.5718 24.852 16.1128 25.628 16.1068C26.413 16.1048 26.888 16.5668 27.183 17.2878ZM25.637 18.2978C25.987 18.3518 26.34 17.9818 26.343 17.6248C26.343 17.2728 26.01 16.9378 25.646 16.9348C25.265 16.9328 24.943 17.2918 24.941 17.6188C24.936 17.9688 25.291 18.3488 25.637 18.2968V18.2978Z" fill="black"/>
</svg>
