<svg xmlns="http://www.w3.org/2000/svg" width="20" height="20" fill="currentColor" viewBox="0 0 20 20">
  <path fill="currentColor" d="m18.599 18.826 1.176-2.353H.225L1.4 18.826H0v1.176h20v-1.176h-1.401ZM16.667 5.882h1.176c0-.283.088-.393.264-.613a2.004 2.004 0 0 0 0-2.695c-.176-.22-.264-.33-.264-.613-.015-.652.781-.764.785-1.961H17.45c0 .284-.088.394-.263.613a2.004 2.004 0 0 0 0 2.696c.175.219.263.329.263.612.016.652-.779.764-.783 1.961Zm-3.53 0h1.177c0-.283.088-.393.263-.613a2.004 2.004 0 0 0 0-2.695c-.175-.22-.263-.33-.263-.613-.016-.652.78-.764.784-1.961h-1.177c0 .284-.087.394-.263.613a2.004 2.004 0 0 0 0 2.696c.176.219.264.329.264.612.015.652-.781.764-.785 1.961Zm-8.235 0h1.176c0-.283.088-.393.264-.613a2.004 2.004 0 0 0 0-2.695c-.176-.22-.264-.33-.264-.613-.015-.652.781-.764.785-1.961H5.686c0 .284-.088.394-.263.613a2.002 2.002 0 0 0 0 2.696c.175.219.263.329.263.612.016.652-.78.764-.784 1.961Zm-3.529 0h1.176c0-.283.088-.393.263-.613a2.004 2.004 0 0 0 0-2.695c-.175-.22-.263-.33-.263-.613-.016-.652.78-.764.784-1.961H2.157c0 .284-.088.394-.263.613a2.002 2.002 0 0 0 0 2.696c.175.219.263.329.263.612.016.652-.78.764-.784 1.961Zm14.867 4.35a8.758 8.758 0 0 0-5.652-2.564V6.47h1.177V5.295h-3.53V6.47h1.177v1.197c-4.074.191-7.692 3.583-8.158 7.627h17.492a8.757 8.757 0 0 0-2.507-5.063l.001.001Zm-3.887 3.886H5.294v-1.176h7.059v1.176Zm2.353 0H13.53v-1.176h1.176v1.176Z"/>
</svg>
