<svg width="28" height="28" viewBox="0 0 28 28" fill="none" xmlns="http://www.w3.org/2000/svg">
<path d="M6.72 0C3.045 0 1.68 1.21406 1.68 4.48V22.96C1.68 23.7213 1.90313 24.2703 2.24 24.675V26.32C2.24 27.2453 2.99469 28 3.92 28H6.16C7.08531 28 7.84 27.2453 7.84 26.32V25.76H20.16V26.32C20.16 27.2453 20.9147 28 21.84 28H24.08C25.0053 28 25.76 27.2453 25.76 26.32V24.675C26.0969 24.2703 26.32 23.7213 26.32 22.96V5.04C26.32 2.60094 26.0181 0 22.4 0H6.72ZM8.4 2.24H20.16C20.4706 2.24 20.72 2.49156 20.72 2.8V3.92C20.72 4.22844 20.4706 4.48 20.16 4.48H8.4C8.09156 4.48 7.84 4.22844 7.84 3.92V2.8C7.84 2.49156 8.09156 2.24 8.4 2.24ZM6.16 6.16H21.84C22.96 6.16 23.52 6.72 23.52 7.84V14.56C23.52 15.68 22.4263 16.205 21.84 16.205L6.16 16.24C5.04 16.24 4.48 15.68 4.48 14.56V7.84C4.48 6.72 5.04 6.16 6.16 6.16ZM1.12 6.72C0.503125 6.72 0 7.22313 0 7.84V12.32C0 12.9369 0.503125 13.44 1.12 13.44V6.72ZM26.88 6.72V13.44C27.4991 13.44 28 12.9369 28 12.32V7.84C28 7.22313 27.4991 6.72 26.88 6.72ZM6.44 19.04C7.52281 19.04 8.4 19.9172 8.4 21C8.4 22.0828 7.52281 22.96 6.44 22.96C5.35719 22.96 4.48 22.0828 4.48 21C4.48 19.9172 5.35719 19.04 6.44 19.04ZM21.56 19.04C22.6428 19.04 23.52 19.9172 23.52 21C23.52 22.0828 22.6428 22.96 21.56 22.96C20.4772 22.96 19.6 22.0828 19.6 21C19.6 19.9172 20.4772 19.04 21.56 19.04Z" fill="currentColor"/>
</svg>
