<svg width="18" height="18" viewBox="0 0 18 18" fill="none" xmlns="http://www.w3.org/2000/svg">
<path fill-rule="evenodd" clip-rule="evenodd" d="M4.58429 0.666016C4.91376 0.666016 5.18329 0.935547 5.18329 1.26495V1.66626H3.98535V1.26495C3.98535 0.935547 4.25488 0.666016 4.58429 0.666016ZM5.18329 1.66626H10.6211V1.26495C10.6211 0.935547 10.8906 0.666016 11.2201 0.666016C11.5555 0.666016 11.819 0.935547 11.819 1.26495V1.66626L10.6217 1.66602V3.84024C10.4719 3.94806 10.3701 4.12772 10.3701 4.33139C10.3701 4.6608 10.6337 4.93036 10.9691 4.93036H11.2206C11.5561 4.93036 11.8196 4.6608 11.8196 4.33139V1.66602H13.5207C14.4131 1.66602 15.1378 2.39078 15.1378 3.28922V5.9426H0.666992V3.28922C0.666992 2.39078 1.39172 1.66602 2.29016 1.66602H3.98523V3.84024C3.82953 3.94806 3.73364 4.12772 3.73364 4.33139C3.73364 4.6608 3.99719 4.93036 4.33264 4.93036H4.58417C4.91364 4.93036 5.18311 4.6608 5.18311 4.33139L5.18329 1.66626ZM13.0115 7.38019C13.7662 7.38019 14.485 7.52994 15.1378 7.79947V7.14062H0.666992V13.5195C0.666992 14.412 1.39172 15.1367 2.29016 15.1367H7.8006C7.53107 14.4839 7.38135 13.7651 7.38135 13.0104C7.38135 9.90781 9.90887 7.38019 13.0115 7.38019ZM8.5791 13.0104C8.5791 10.5667 10.5676 8.57812 13.0114 8.57812C15.4491 8.57812 17.4377 10.5667 17.4377 13.0104C17.4377 15.4482 15.4491 17.4367 13.0114 17.4367C10.5676 17.4367 8.5791 15.4482 8.5791 13.0104ZM13.5025 14.8612L14.922 13.4417C15.1616 13.2021 15.1616 12.8128 14.922 12.5792L13.5025 11.1537C13.3887 11.0399 13.233 10.98 13.0713 10.98C12.5262 10.98 12.2567 11.6328 12.64 12.0162L13.0294 12.4115H10.915C10.5856 12.4115 10.3161 12.675 10.3161 13.0104C10.3161 13.3399 10.5856 13.6094 10.915 13.6094H13.0294L12.64 13.9987C12.2567 14.382 12.5262 15.0409 13.0713 15.0409C13.233 15.0409 13.3887 14.975 13.5025 14.8612Z" fill="currentColor"/>
</svg>
