<svg xmlns="http://www.w3.org/2000/svg" width="18" height="18" fill="currentColor" viewBox="0 0 18 18">
  <path d="M4.584.667c.33 0 .6.27.6.599v.401H3.984v-.401a.6.6 0 0 1 .6-.6Zm6.038 1v2.174a.607.607 0 0 0-.252.491c0 .33.264.6.599.6h.252c.335 0 .599-.27.599-.6V1.667h1.7a1.62 1.62 0 0 1 1.618 1.623v2.654H.667V3.29A1.62 1.62 0 0 1 2.29 1.667h1.695v2.174a.591.591 0 0 0-.251.491c0 .33.263.6.599.6h.251a.6.6 0 0 0 .6-.6V1.667h5.438Zm0 0v-.401a.6.6 0 0 1 .598-.6c.335 0 .6.27.6.6v.401h-1.198Zm2.39 5.714c.754 0 1.473.15 2.126.42v-.66H.667v6.38a1.62 1.62 0 0 0 1.623 1.616H7.8a5.562 5.562 0 0 1-.419-2.126 5.639 5.639 0 0 1 5.63-5.63Zm4.425 5.624a4.438 4.438 0 0 1-4.432 4.432 4.436 4.436 0 0 1-4.426-4.432 4.435 4.435 0 0 1 4.426-4.426 4.436 4.436 0 0 1 4.432 4.426Zm-4.923-1.85-1.42 1.419a.607.607 0 0 0 0 .862l1.42 1.426a.59.59 0 0 0 .431.174.606.606 0 0 0 .431-1.037l-.389-.395h2.115c.329 0 .598-.263.598-.599a.6.6 0 0 0-.598-.599h-2.115l.39-.39a.61.61 0 0 0-.863-.862Z"/>
</svg>
