<svg width="18" height="17" viewBox="0 0 18 17" fill="none" xmlns="http://www.w3.org/2000/svg">
<path d="M15.25 1.5H13.375V0.875C13.375 0.70924 13.3092 0.55027 13.1919 0.43306C13.0747 0.31585 12.9158 0.25 12.75 0.25C12.5842 0.25 12.4253 0.31585 12.3081 0.43306C12.1908 0.55027 12.125 0.70924 12.125 0.875V1.5H5.875V0.875C5.875 0.70924 5.80915 0.55027 5.69194 0.43306C5.57473 0.31585 5.41576 0.25 5.25 0.25C5.08424 0.25 4.92527 0.31585 4.80806 0.43306C4.69085 0.55027 4.625 0.70924 4.625 0.875V1.5H2.75C2.41848 1.5 2.10054 1.6317 1.86612 1.86612C1.6317 2.10054 1.5 2.41848 1.5 2.75V15.25C1.5 15.5815 1.6317 15.8995 1.86612 16.1339C2.10054 16.3683 2.41848 16.5 2.75 16.5H15.25C15.5815 16.5 15.8995 16.3683 16.1339 16.1339C16.3683 15.8995 16.5 15.5815 16.5 15.25V2.75C16.5 2.41848 16.3683 2.10054 16.1339 1.86612C15.8995 1.6317 15.5815 1.5 15.25 1.5ZM7.125 13.6875C6.62759 13.687 6.15041 13.4905 5.79688 13.1406C5.67999 13.0235 5.61435 12.8647 5.61435 12.6992C5.61435 12.5337 5.67999 12.375 5.79688 12.2578C5.85436 12.199 5.92302 12.1523 5.99882 12.1203C6.07462 12.0884 6.15604 12.072 6.23828 12.072C6.32053 12.072 6.40194 12.0884 6.47774 12.1203C6.55354 12.1523 6.6222 12.199 6.67969 12.2578C6.79966 12.3725 6.95904 12.4368 7.125 12.4375C7.29076 12.4375 7.44973 12.3717 7.56694 12.2544C7.68415 12.1372 7.75 11.9783 7.75 11.8125C7.75 11.6467 7.68415 11.4878 7.56694 11.3706C7.44973 11.2533 7.29076 11.1875 7.125 11.1875H6.92969L6.89844 11.1719H6.875L6.83594 11.1562H6.82812L6.78125 11.125H6.76562L6.73438 11.1016L6.70312 11.0781L6.6875 11.0625L6.66406 11.0391C6.62311 10.992 6.58893 10.9394 6.5625 10.8828C6.54005 10.8413 6.52423 10.7964 6.51562 10.75C6.50781 10.7422 6.50781 10.7344 6.50781 10.7188C6.50817 10.7145 6.50766 10.7103 6.50632 10.7062C6.50498 10.7022 6.50283 10.6985 6.5 10.6953V10.5625V10.5078C6.5 10.4922 6.50781 10.4844 6.50781 10.4766V10.4453C6.51403 10.4361 6.51679 10.4251 6.51562 10.4141C6.52344 10.4062 6.52344 10.3984 6.52344 10.3828L6.53906 10.3594C6.53906 10.3437 6.53906 10.3359 6.54688 10.3281L6.5625 10.2969V10.2734L6.57812 10.2422L6.59375 10.2188L6.61719 10.1875L6.63281 10.1719L7.07031 9.625H6.1875C6.02174 9.625 5.86277 9.5592 5.74556 9.4419C5.62835 9.3247 5.5625 9.1658 5.5625 9C5.5625 8.83424 5.62835 8.67527 5.74556 8.55806C5.86277 8.44085 6.02174 8.375 6.1875 8.375H8.375C8.49245 8.37566 8.60734 8.4094 8.70649 8.47235C8.80565 8.53531 8.88506 8.62493 8.93562 8.73094C8.98618 8.83696 9.0058 8.95507 8.99236 9.0717C8.97887 9.1884 8.93278 9.2989 8.85938 9.3906L8.17188 10.2578C8.50477 10.4822 8.75684 10.8076 8.89099 11.186C9.0251 11.5644 9.0343 11.9759 8.91707 12.3599C8.79986 12.7439 8.56248 13.0801 8.23988 13.3191C7.91728 13.5581 7.52648 13.6872 7.125 13.6875ZM12.125 13.0625C12.125 13.2283 12.0592 13.3872 11.9419 13.5044C11.8247 13.6217 11.6658 13.6875 11.5 13.6875C11.3342 13.6875 11.1753 13.6217 11.0581 13.5044C10.9408 13.3872 10.875 13.2283 10.875 13.0625V10.25L10.625 10.4375C10.4917 10.535 10.3255 10.5764 10.1621 10.5531C9.9986 10.5297 9.8507 10.4434 9.75 10.3125C9.6505 10.1799 9.6078 10.0132 9.6313 9.8491C9.6547 9.685 9.7424 9.537 9.875 9.4375L11.125 8.5C11.2179 8.43036 11.3283 8.38795 11.4439 8.37753C11.5595 8.3671 11.6757 8.38908 11.7795 8.44098C11.8833 8.49289 11.9706 8.57268 12.0317 8.67142C12.0927 8.77015 12.125 8.88393 12.125 9V13.0625ZM15.25 5.25H2.75V2.75H4.625V3.375C4.625 3.54076 4.69085 3.69973 4.80806 3.81694C4.92527 3.93415 5.08424 4 5.25 4C5.41576 4 5.57473 3.93415 5.69194 3.81694C5.80915 3.69973 5.875 3.54076 5.875 3.375V2.75H12.125V3.375C12.125 3.54076 12.1908 3.69973 12.3081 3.81694C12.4253 3.93415 12.5842 4 12.75 4C12.9158 4 13.0747 3.93415 13.1919 3.81694C13.3092 3.69973 13.375 3.54076 13.375 3.375V2.75H15.25V5.25Z" fill="currentColor"/>
</svg>
