<svg xmlns="http://www.w3.org/2000/svg" width="20" height="20" fill="currentColor" viewBox="0 0 20 20">
  <path fill="currentColor" d="M1.124 17.5h.997c.625 0 1.115-.46 1.115-1.06v-1.358c1.876.113 4.588.194 6.76.194 2.18 0 4.892-.08 6.768-.194v1.359c0 .598.482 1.059 1.115 1.059h.997c.634 0 1.124-.46 1.124-1.06v-4.664c0-1.359-.287-2.127-1.073-3.097l-.71-.881c-.312-1.456-.87-2.984-1.166-3.583-.448-.913-1.326-1.455-2.45-1.6-.566-.067-2.417-.115-4.605-.115-2.18 0-4.03.057-4.597.113-1.124.13-2.002.688-2.45 1.601-.296.599-.854 2.127-1.166 3.583l-.71.88C.287 9.649 0 10.418 0 11.776v4.666c0 .597.49 1.058 1.124 1.058ZM3.49 7.125c.202-.89.608-2.045.887-2.514.228-.38.473-.542.93-.599.641-.089 2.078-.137 4.689-.137 2.62 0 4.056.032 4.698.137.448.065.693.218.93.599.287.46.667 1.625.886 2.514.076.3-.05.413-.38.388a95.111 95.111 0 0 0-6.134-.17c-3.05 0-4.723.09-6.126.17-.33.025-.448-.088-.38-.388Zm.346 6.057c-.803 0-1.403-.582-1.403-1.342 0-.769.6-1.343 1.403-1.343s1.404.574 1.404 1.343c0 .76-.601 1.342-1.404 1.342Zm12.328 0c-.803 0-1.403-.582-1.403-1.342 0-.769.6-1.343 1.403-1.343.794 0 1.403.574 1.403 1.343 0 .76-.609 1.342-1.403 1.342Zm-8.407-.372c-.592 0-1.006-.404-1.006-.97 0-.574.414-.97 1.006-.97h4.486c.592 0 1.006.396 1.006.97 0 .566-.414.97-1.006.97H7.757Z"/>
</svg>
