<svg width="18" height="18" viewBox="0 0 18 18" fill="none" xmlns="http://www.w3.org/2000/svg">
<path d="M6.96047 2.6752C6.96047 1.30827 8.05245 0.200195 9.39965 0.200195C10.7468 0.200195 11.8388 1.30827 11.8388 2.6752C11.8388 4.04208 10.7468 5.15019 9.39965 5.15019C8.05245 5.15019 6.96047 4.04208 6.96047 2.6752ZM15.5865 2.72239C15.1632 2.29281 14.4767 2.29281 14.0534 2.72239L11.1187 5.70018H7.68045L4.74584 2.72239C4.32252 2.29281 3.6361 2.29281 3.21278 2.72239C2.78942 3.15198 2.78942 3.84845 3.21278 4.27803L6.41844 7.5308V16.7002C6.41844 17.3077 6.9038 17.8002 7.50255 17.8002H8.04455C8.64325 17.8002 9.12855 17.3077 9.12855 16.7002V12.8502H9.67065V16.7002C9.67065 17.3077 10.156 17.8002 10.7547 17.8002H11.2968C11.8955 17.8002 12.3808 17.3077 12.3808 16.7002V7.5308L15.5865 4.278C16.0098 3.84841 16.0098 3.15198 15.5865 2.72239Z" fill="currentColor"/>
</svg>
