<svg xmlns="http://www.w3.org/2000/svg" width="78" height="32" fill="currentColor" viewBox="0 0 78 32">
  <path fill="currentColor" d="M10.06 9a1.553 1.553 0 0 1 .117-1.146 1.488 1.488 0 0 1 .868-.722c1.646-.496 3.986-1.22 6.566-2.018 4.65-1.438 10.076-3.116 13.612-4.133 2.366-.682 4.545-1.008 6.487-.98 5.37-.066 8.854 2.4 9.265 7.032.343 3.868-2.795 9.107-12.012 16.253l-.003.004C31.034 26.335 22 32 22 32s.044-1.071.41-2.64L25.887 7c.588 0 1.17.13 1.704.384a4.13 4.13 0 0 1 1.399 1.083c.386.461.672 1.003.84 1.588.167.586.212 1.202.13 1.807l-1.08 7.708.103-.066C39.34 15.301 42.688 12.809 43.71 8.331c.605-2.657-.665-5.042-3.162-6.44-2.364-.643-5.456-.466-8.935.537-5.84 1.68-18.386 5.586-21.051 6.416h-.002l-.5.156Zm34.053 19.306a5.12 5.12 0 0 1-1.793 1.252 5.349 5.349 0 0 1-2.098.442 5.164 5.164 0 0 1-1.837-.313 3.725 3.725 0 0 1-1.395-.916c-.38-.403-.66-.89-.82-1.42a4.217 4.217 0 0 1-.117-1.853 4.92 4.92 0 0 1 .634-1.854 5.245 5.245 0 0 1 1.22-1.421 5.402 5.402 0 0 1 1.656-.909 5.906 5.906 0 0 1 1.927-.313 4.005 4.005 0 0 1 1.642.313c.458.198.858.511 1.16.909.31.423.52.908.615 1.421.114.612.123 1.239.026 1.854l-.124.825h-6.21c.037.507.213.91.528 1.209.316.299.735.449 1.258.45.403.01.8-.09 1.15-.29a3.88 3.88 0 0 0 .902-.751l1.676 1.365Zm-1.73-3.778a1.38 1.38 0 0 0-.286-1.148c-.262-.317-.636-.476-1.125-.477a2.176 2.176 0 0 0-.802.142c-.226.088-.437.21-.625.361-.348.29-.592.684-.694 1.125l3.532-.003Zm3.747 3.561a6.328 6.328 0 0 1-.108-1.808C46.342 23.02 47.987 11 47.987 11c1.303.224 2.19 1.683 1.983 3.279l-1.59 12.425c-.052 1.285.284 2.167 1.348 3.296h-2.764c-.365-.551-.724-1.326-.834-1.911Zm12.675 1.698h-2.532l.159-1.196h-.035a3.67 3.67 0 0 1-.432.506c-.18.176-.38.328-.597.452-.24.138-.497.247-.763.325a3.141 3.141 0 0 1-.896.126c-.668 0-1.195-.107-1.582-.32a1.91 1.91 0 0 1-.844-.877 3.254 3.254 0 0 1-.282-1.32c-.01-.551.026-1.102.104-1.646L51.773 21h2.636l-.597 4.303c-.034.254-.065.516-.087.787-.026.25-.008.504.053.749.05.218.168.413.333.56.165.145.416.214.756.214.295.01.588-.055.853-.19.22-.12.41-.294.553-.506.145-.219.255-.46.325-.715.078-.272.134-.55.168-.832l.597-4.37H60l-1.195 8.787Zm4.3-4.604L60.766 21h3.186l1.207 2.443L66.994 21H70l-3.42 4.183L69.298 30h-3.186L64.6 27l-2.448 3H59l4.106-4.817Zm14.013 3.123c-.5.54-1.111.968-1.794 1.252A5.337 5.337 0 0 1 73.23 30a5.165 5.165 0 0 1-1.838-.313 3.716 3.716 0 0 1-1.4-.91 3.56 3.56 0 0 1-.821-1.42 4.197 4.197 0 0 1-.116-1.854c.085-.653.3-1.283.633-1.854a5.237 5.237 0 0 1 1.222-1.42c.494-.4 1.056-.71 1.66-.915a5.902 5.902 0 0 1 1.926-.313 4.003 4.003 0 0 1 1.642.313 2.9 2.9 0 0 1 1.16.909c.308.423.516.909.61 1.421.114.612.123 1.239.027 1.854l-.12.825h-6.21c.036.506.212.909.529 1.209.316.299.738.45 1.258.45.403.01.8-.091 1.15-.29.338-.204.642-.457.9-.751l1.677 1.365h-.001Zm-1.731-3.778a1.378 1.378 0 0 0-.285-1.148c-.262-.317-.636-.476-1.124-.477a2.171 2.171 0 0 0-.803.142c-.226.087-.437.21-.625.361a2.073 2.073 0 0 0-.444.517 2 2 0 0 0-.25.608l3.53-.003ZM5.18 14.931c.184-.326.49-.566.85-.668L24 9l-.251 1.54L5.054 16a1.391 1.391 0 0 1 .126-1.069Zm17.565 1.607L.055 23a1.38 1.38 0 0 1 .128-1.073c.092-.163.217-.305.367-.42.149-.115.32-.201.504-.252L23 15l-.255 1.538Zm-1.005 6.131L1.057 29h-.001c-.107-.39-.06-.807.132-1.163a1.495 1.495 0 0 1 .89-.727L22 21l-.26 1.669Z"/>
</svg>
