<svg xmlns="http://www.w3.org/2000/svg" width="37" height="26" fill="currentColor" viewBox="0 0 37 26">
  <path fill="currentColor" d="M16.78 6.208 28.442 0a2.841 2.841 0 0 1-.306 3.185c-.242.293-.54.536-.875.714l-9.785 5.209a7.356 7.356 0 0 0-2.134-1.739c.4-.473.888-.868 1.438-1.161Zm4.679 8.518a4.977 4.977 0 0 1-5.342-.425l11.067-5.894c.369.671.45 1.459.23 2.19a2.888 2.888 0 0 1-1.408 1.71l-4.547 2.42v-.001Zm-3.64-5.202 9.994-5.32a2.84 2.84 0 0 1-.305 3.182c-.242.293-.54.535-.875.713l-7.341 3.91a12.325 12.325 0 0 0-1.473-2.485Zm-.572 8.645a8.057 8.057 0 0 0-1.597 1.17c-.29.259-.555.545-.79.854a5.485 5.485 0 0 1-.866.891c-1.092 1.061-2.461 1.592-4.11 1.592a5.721 5.721 0 0 1-2.387-.486 5.643 5.643 0 0 1-1.957-1.432c-1.183-1.265-1.774-2.825-1.773-4.68.002-1.854.595-3.414 1.782-4.679a5.667 5.667 0 0 1 1.955-1.417 5.748 5.748 0 0 1 2.38-.482 5.605 5.605 0 0 1 2.357.48c.736.336 1.392.82 1.927 1.42-.856.473-1.648.914-2.376 1.321l-.895.499c-.3.167-.578.32-.838.46-.26.141-.48.262-.652.365l-.36.211c-.91.486-1.565 1.006-1.968 1.563a4.555 4.555 0 0 0-.78 1.563 3.624 3.624 0 0 0-.02 1.708l12.584-6.864c-.936-1.903-2.175-3.366-3.72-4.391a9.268 9.268 0 0 0-5.221-1.517 10.045 10.045 0 0 0-3.74.726 9.763 9.763 0 0 0-3.135 2.149 10.011 10.011 0 0 0-2.142 3.183 10.883 10.883 0 0 0-.536 1.833 9.632 9.632 0 0 0-.185 1.904 9.778 9.778 0 0 0 1.28 4.902 9.97 9.97 0 0 0 3.577 3.637c.72.454 1.506.793 2.33 1.006a9.352 9.352 0 0 0 2.514.341c2.479 0 4.595-.78 6.35-2.34.413-.38.797-.79 1.148-1.227.34-.426.636-.884.886-1.366.26-.506.48-1.032.654-1.573.193-.611.348-1.233.466-1.862a2.387 2.387 0 0 0-.972.058c-.408.115-.8.276-1.17.48Zm3.526.114c0-2.28 1.3-3.415 3.887-3.415 1.908 0 3.122.732 3.618 2.18.12.35-.015.6-.37.75l-.745.233c-.356.15-.591.034-.744-.342-.288-.753-.912-1.124-1.842-1.124-1.235 0-1.844.55-1.844 1.633v2.466c0 1.083.61 1.631 1.844 1.631.93 0 1.56-.382 1.842-1.148.135-.341.388-.449.744-.341l.76.217c.39.148.508.4.348.748-.591 1.482-1.842 2.22-3.768 2.22-2.486 0-3.736-1.132-3.736-3.416l.006-2.292Zm9.265-2.528c-.676.583-1.013 1.4-1.013 2.448v2.463c0 1.048.336 1.83 1.013 2.43.676.6 1.62.9 2.874.9 1.252 0 2.215-.3 2.908-.9.65-.582.997-1.382.997-2.43v-2.463c0-1.049-.338-1.865-.997-2.447-.694-.583-1.675-.883-2.908-.883-1.234 0-2.198.299-2.874.882Zm2.874.866c1.302 0 1.944.533 1.944 1.582v2.463c0 1.048-.66 1.581-1.944 1.581-1.284 0-1.927-.533-1.927-1.581v-2.463c0-1.049.624-1.582 1.927-1.582Z"/>
</svg>
