<svg xmlns="http://www.w3.org/2000/svg" width="44" height="32" fill="currentColor" viewBox="0 0 44 32">
  <path fill="currentColor" d="M19.47 24.4c.05.054.08.071.083.094.22 1.862.237 3.706-.663 5.426-.812 1.554-2.409 2.307-4.142 2.02-1.954-.324-3.557-1.335-5.054-2.555-.454-.371-.878-.78-1.303-1.187-.148-.142-.275-.194-.464-.09-.822.456-1.627.279-2.403-.115-1.372-.697-2.399-1.78-3.268-3.023C1.146 23.383.34 21.662.074 19.73c-.114-.831-.134-1.675.216-2.476.17-.385.4-.727.786-.92.21-.106.26-.243.198-.464a16.765 16.765 0 0 1-.579-3.605c-.08-1.546.077-3.056.842-4.444.77-1.398 2.222-2.117 3.908-1.914 1.81.218 3.317 1.104 4.81 2.23-.254.032-.377-.073-.507-.137-.623-.306-1.258-.563-1.952-.666-1.9-.284-3.38.732-3.855 2.596-.422 1.66-.292 3.304.08 4.933.783 3.442 2.366 6.508 4.56 9.254 1.34 1.677 2.87 3.154 4.806 4.147.832.427 1.701.703 2.657.693 1.39-.013 2.28-.725 2.853-1.923.342-.716.43-1.492.52-2.266.012-.113.03-.226.05-.37l.002.003.001-.001ZM7.146 26.902c-2.37-2.79-4.119-5.848-5.36-9.278-.218.4-.278.739-.3 1.092-.06.99.174 1.927.525 2.835.742 1.912 1.835 3.571 3.551 4.76.448.31.943.512 1.585.59v.001Zm6.344-6.052v.044c.022.676-.07 1.344-.723 1.685-.649.34-1.31.136-1.867-.272-1.995-1.464-3.143-3.412-3.277-5.913-.02-.373.06-.73.245-1.061.295-.524.83-.76 1.42-.62.886.212 1.55.78 2.131 1.426a8.38 8.38 0 0 1 2.014 3.964c.05.243.048.496.07.745h-.015l.001.003.001-.001Zm.153 5.04c.103-.1.217-.034.325-.014.963.161 1.826-.237 2.305-1.097.259-.464.41-.98.446-1.509.173-2.427-.61-4.61-1.74-6.69-1.004-1.851-2.268-3.504-3.987-4.762-.766-.56-1.587-1.024-2.554-1.116-1.108-.106-1.824.308-2.325 1.295-.046.089-.06.2-.173.242-.048-1.374 1.11-3.078 3.064-2.75 1.367.228 2.488.95 3.497 1.855 2.733 2.45 4.47 5.5 5.337 9.046.305 1.245.4 2.51.071 3.794-.419 1.645-1.752 2.49-3.397 2.067a9.104 9.104 0 0 1-.715-.22c-.06-.021-.143-.042-.154-.14v-.001ZM11.031 6.88c.32-1.865 1.082-3.296 2.29-4.3 1.206-1.002 2.991-1.504 5.352-1.504h6.23l-.507 2.928h-6.23c-.888 0-1.628.208-2.223.626-.595.418-.98 1.168-1.158 2.25l-.084.469h7.934l-.532 2.928H14.17l-1.648 9.435H8.768L11.03 6.879h.002v.001Zm7.277 6.903a.635.635 0 0 1-.47-.189.646.646 0 0 1-.176-.458c0-.227.094-.431.282-.611a.89.89 0 0 1 .647-.282c.18 0 .33.062.446.188a.586.586 0 0 1 .188.446c0 .228-.098.435-.294.623-.188.188-.395.283-.623.283Zm-.752 6.57c-.282-.172-.49-.352-.623-.54a1.238 1.238 0 0 1-.188-.682 2 2 0 0 1 .035-.364l.717-4.08h1.282l-.706 4.056c-.015.094-.023.16-.023.2 0 .117.027.227.082.329.063.102.157.212.282.33l-.858.751Zm5.991-5.807c.494 0 .882.13 1.164.388.282.251.423.608.423 1.07 0 .141-.012.29-.035.447l-.658 3.761h-1.27l.623-3.632c.018-.093.026-.187.024-.282 0-.243-.067-.427-.2-.552-.126-.134-.314-.2-.564-.2-.635 0-1.148.4-1.54 1.199l-.612 3.467h-1.28l.716-4.055c.008-.047.012-.11.012-.188a.706.706 0 0 0-.082-.341 1.262 1.262 0 0 0-.283-.33l.86-.752c.25.142.437.294.563.459.125.157.204.337.235.54.478-.665 1.113-.998 1.904-.998v-.001Zm7.333 4.197c-.016.11-.024.184-.024.223a.64.64 0 0 0 .082.33c.055.086.15.188.282.305l-.858.753c-.438-.251-.697-.55-.775-.894-.22.267-.494.482-.823.647-.347.17-.73.255-1.117.247-.517 0-.925-.122-1.223-.365-.29-.243-.434-.584-.434-1.023 0-.658.22-1.136.658-1.434.446-.305 1.066-.501 1.857-.587l.694-.071c.274-.031.466-.078.576-.141a.482.482 0 0 0 .235-.33c.023-.305-.043-.54-.2-.704-.15-.165-.388-.247-.717-.247-.353 0-.639.047-.858.14-.212.095-.443.26-.694.494l-.776-.623a2.71 2.71 0 0 1 1-.693c.376-.149.873-.223 1.492-.223.66 0 1.164.14 1.517.423.352.274.53.662.53 1.163 0 .134-.013.27-.037.412l-.387 2.198Zm-2.857.67c.47 0 .85-.11 1.14-.33a1.38 1.38 0 0 0 .53-.869l.117-.635c-.173.063-.443.114-.81.153l-.542.059c-.376.04-.674.14-.893.305-.22.165-.33.404-.33.718 0 .4.263.599.788.599Zm5.11.941c-.282-.173-.49-.353-.623-.541a1.238 1.238 0 0 1-.188-.682c0-.118.012-.24.036-.364l1.01-5.666a.971.971 0 0 0 .012-.177.637.637 0 0 0-.094-.34 1.54 1.54 0 0 0-.27-.341l.858-.753c.274.165.474.345.6.541.133.188.2.407.2.658 0 .118-.012.247-.036.388l-.987 5.666c-.008.047-.012.11-.012.188 0 .125.027.24.082.341.055.102.145.212.27.33l-.858.752Zm-7.49.829h2.514c.906 0 1.577.198 2.013.593.443.395.664 1.001.664 1.819 0 .995-.15 1.846-.45 2.555-.299.708-.735 1.25-1.307 1.625-.566.375-1.247.562-2.044.562h-2.647l1.257-7.154Zm1.42 6.387c.586 0 1.09-.153 1.513-.46.422-.313.742-.766.96-1.359.225-.593.338-1.305.338-2.136 0-.572-.147-.991-.44-1.257-.293-.272-.742-.409-1.349-.409h-1.604l-.992 5.621h1.574Zm5.326-.92c-.014.062-.02.15-.02.266 0 .559.35.838 1.052.838.28 0 .532-.04.757-.122a2.17 2.17 0 0 0 .674-.399l.46.5c-.241.239-.53.424-.848.543-.344.12-.708.18-1.073.173-.634 0-1.114-.116-1.44-.347-.328-.232-.492-.58-.492-1.043 0-.15.014-.29.04-.419l.267-1.522c.095-.532.334-.947.715-1.247.388-.3.886-.45 1.492-.45.58 0 1.036.136 1.37.409.333.266.5.637.5 1.114 0 .49-.098.845-.296 1.063-.198.218-.518.327-.96.327H32.44l-.05.316Zm1.564-2.534c-.355 0-.648.095-.88.286-.224.184-.367.443-.428.777l-.092.51h1.737c.232 0 .398-.054.5-.163.103-.109.154-.3.154-.572 0-.266-.089-.47-.266-.613-.17-.15-.412-.225-.725-.225Zm6.553 3.148c-.014.082-.02.14-.02.174 0 .088.02.166.06.235.048.068.12.15.215.245l-.603.531a1.671 1.671 0 0 1-.409-.357.903.903 0 0 1-.163-.42c-.19.239-.433.43-.726.573-.293.136-.63.204-1.01.204-.465 0-.826-.105-1.085-.317-.252-.21-.378-.504-.378-.878 0-.552.184-.958.552-1.217.375-.258.896-.422 1.564-.49l.715-.082c.3-.034.5-.088.603-.163.11-.075.174-.208.194-.399v.02c.014-.272-.06-.483-.225-.633-.156-.15-.388-.225-.695-.225-.354 0-.633.044-.838.133a2.19 2.19 0 0 0-.633.45l-.532-.44c.24-.272.518-.47.838-.593.32-.13.73-.194 1.227-.194.558 0 .991.12 1.298.358.306.238.46.565.46.98 0 .11-.01.222-.03.338l-.379 2.167Zm-2.422.521c.442 0 .81-.112 1.103-.337.3-.225.48-.511.542-.859l.123-.684c-.15.075-.406.132-.767.173l-.613.062c-.382.034-.678.143-.89.327a.887.887 0 0 0-.316.715c0 .198.068.348.205.45.143.102.347.153.613.153Zm4.351.665a1.515 1.515 0 0 1-.44-.41.883.883 0 0 1-.143-.5c0-.082.01-.174.031-.276l.92-5.233c.013-.082.02-.136.02-.163a.447.447 0 0 0-.07-.246 1.021 1.021 0 0 0-.206-.245l.603-.531c.198.13.34.265.43.409.095.143.142.31.142.5 0 .123-.006.215-.02.276l-.92 5.233c-.013.082-.02.136-.02.163 0 .089.02.17.061.246.048.075.12.156.215.245l-.603.531v.001ZM6.155 0l-.06 4.005L4.48.38 6.155 0Zm3.52 2.004L7.996 4.309l.127-2.834 1.552.529ZM2.661 3.683l1.661.95-.763-1.71-.898.76Z"/>
</svg>
