<svg xmlns="http://www.w3.org/2000/svg" width="157" height="28" fill="currentColor" viewBox="0 0 157 28">
  <path fill="currentColor" d="M18.228 13.529c.514.322.97.729 1.346 1.204l.003.005a5.87 5.87 0 0 1 .903 1.63c.228.64.337 1.316.322 1.995-.015 1.03-.255 2.097-.715 3.17-.46 1.07-1.05 1.977-1.758 2.697-1.056 1.075-2.394 1.863-3.976 2.345-1.549.47-3.363.71-5.393.71h-.011c-1.646 0-3.157-.132-4.493-.392-1.362-.266-2.477-.647-3.313-1.134l-.313-.183L5.845 2.149l.222-.106c1.007-.475 2.2-.849 3.553-1.11 1.34-.256 2.816-.388 4.386-.388h.013c1.396 0 2.642.148 3.7.437 1.07.294 1.98.706 2.7 1.223.739.532 1.298 1.176 1.665 1.912a5.25 5.25 0 0 1 .534 2.427 6.885 6.885 0 0 1-.51 2.526c-.319.78-.77 1.5-1.334 2.126a8.626 8.626 0 0 1-1.911 1.583 7.82 7.82 0 0 1-1.021.527c.131.07.26.144.386.223Zm-6.648 8.852a3.728 3.728 0 0 0 1.553-1.17c.341-.433.613-.972.803-1.6a6.728 6.728 0 0 0 .307-1.844c.01-.825-.245-1.408-.78-1.785-.585-.409-1.597-.618-3.01-.618h-1L7.93 22.586c.128.039.258.07.389.094.296.054.667.083 1.103.083.801 0 1.525-.127 2.158-.382Zm-1.248-10.834c.369-.014.599-.019.694-.019h-.001c.943 0 1.732-.113 2.345-.334a4.05 4.05 0 0 0 1.535-.969c.367-.395.665-.915.874-1.536a6.066 6.066 0 0 0 .336-1.867c.009-.59-.137-1.028-.444-1.338-.416-.417-1.152-.628-2.19-.628h-.004a7.52 7.52 0 0 0-1.184.084c-.214.034-.427.08-.637.135l-1.36 6.472h.036ZM123.993 5.87c-.406.172-.77.428-1.07.75h-.009a2.898 2.898 0 0 0-.602 1.01c-.14.395-.213.8-.218 1.205-.005.475.111.86.355 1.185.31.4.678.75 1.092 1.041.502.36 1.013.706 1.533 1.04a10.43 10.43 0 0 1 1.629 1.299c.316.308.597.647.841 1.012a259.148 259.148 0 0 1 2.033-5.827c1.625-4.375 6.364-7.173 11.508-7.209 1.878-.012 3.756-.017 5.634-.016h.746l-.002-.003h.215c4.405.003 8.756.017 8.756.017l-.297 1.39c-.556 2.641-2.275 3.347-4.087 3.412-.606.024-3.311.017-5.755.005l-.95-.003a217.41 217.41 0 0 0-3.256-.002c-1.208.045-2.399.299-3.15.788l3.83-.001c3.211-.002 6.849-.004 7.95.001-.065.272-.131.572-.2.88-.101.457-.207.933-.317 1.364-.587 2.286-2.271 2.897-4.947 2.93-.946.014-2.757.009-4.448.004-.803-.002-1.578-.004-2.221-.004-1.025 0-1.909.205-2.809.715h9.826c-.109 3.1-.26 5.205-4.793 5.205-.506 0-1.133-.002-1.79-.004-1.421-.005-2.989-.01-3.811.004-2.347.038-4.67.461-6.875 1.251a11.678 11.678 0 0 1-.419 1.588 9.323 9.323 0 0 1-1.769 3.09c-.805.948-1.873 1.748-3.168 2.38-1.303.638-2.904.96-4.754.96h-.007c-1.466 0-2.754-.134-3.829-.397-1.104-.271-1.999-.662-2.655-1.162l-.341-.261 1.132-2.065a9.912 9.912 0 0 1-.429.543c-.805.948-1.871 1.748-3.168 2.38-1.303.637-2.904.96-4.754.96h-.007c-1.466 0-2.754-.134-3.829-.398-1.106-.27-1.999-.661-2.656-1.162l-.34-.261 2.615-4.771.466.347c.282.21.706.412 1.26.6.552.186 1.193.283 1.911.283 1.075 0 1.928-.309 2.61-.939.675-.623 1.009-1.416 1.023-2.422.005-.456-.102-.835-.332-1.164a4.596 4.596 0 0 0-.987-1.018 37.14 37.14 0 0 0-1.428-1.04 9.91 9.91 0 0 1-1.523-1.303 6.304 6.304 0 0 1-1.182-1.776c-.312-.691-.466-1.548-.452-2.538.014-.947.213-1.973.597-3.05a9.015 9.015 0 0 1 1.771-2.982c.789-.894 1.798-1.648 2.999-2.244 1.21-.599 2.669-.905 4.334-.905h.006c1.313 0 2.452.148 3.387.443.931.29 1.729.662 2.373 1.1l.377.256-2.439 4.412-.46-.32c-.31-.214-.73-.414-1.243-.592-.505-.174-1.111-.264-1.803-.264a3.18 3.18 0 0 0-1.352.277c-.4.189-.736.431-.999.72-.266.29-.467.628-.602 1.012a3.682 3.682 0 0 0-.22 1.204c-.005.473.111.861.355 1.185.31.4.678.751 1.092 1.042.502.36 1.012.707 1.532 1.04.585.379 1.131.814 1.63 1.3a6.3 6.3 0 0 1 1.295 1.816c.341.71.507 1.573.493 2.568-.012.969-.206 2.016-.576 3.114-.028.084-.06.168-.091.25l-.016.044.249-.452.467.348c.282.21.705.412 1.26.6.552.186 1.193.282 1.911.282 1.075 0 1.928-.306 2.61-.936.675-.622 1.009-1.416 1.023-2.422.005-.456-.102-.834-.332-1.164a4.717 4.717 0 0 0-.99-1.016 37.06 37.06 0 0 0-1.428-1.042 10.07 10.07 0 0 1-1.523-1.303 6.314 6.314 0 0 1-1.181-1.776c-.313-.694-.467-1.55-.453-2.54.015-.945.213-1.973.597-3.05a9.018 9.018 0 0 1 1.772-2.982c.788-.894 1.8-1.649 2.998-2.244 1.21-.602 2.667-.905 4.332-.905h.006c1.313 0 2.452.148 3.387.442.931.291 1.729.663 2.373 1.101l.377.256-2.439 4.412-.46-.32c-.308-.213-.727-.413-1.241-.593-.504-.173-1.113-.263-1.802-.263a3.129 3.129 0 0 0-1.282.248ZM36.951.913H43.3l-.002.004-3.924 18.239c-.286 1.265-.748 2.412-1.376 3.412a9.577 9.577 0 0 1-2.338 2.569 10.42 10.42 0 0 1-3.092 1.604 11.76 11.76 0 0 1-3.61.55h-.005c-1.101-.003-2.128-.151-3.052-.445-.934-.296-1.75-.731-2.424-1.293a5.775 5.775 0 0 1-1.59-2.108c-.37-.827-.55-1.773-.536-2.81.004-.295.027-.588.069-.88.04-.291.086-.582.137-.872L25.404.91h6.732l-3.85 18.128a4.78 4.78 0 0 0-.107.543 3.544 3.544 0 0 0-.038.487c-.009.604.13 1.028.426 1.294.313.28.737.416 1.293.416a3.16 3.16 0 0 0 2.068-.741c.607-.491 1.015-1.232 1.215-2.204L36.951.913ZM81.68.936V.934l-.004.002h.004Zm-2.793 13.117L81.68.936h5.816L81.944 26.95h-4.952L71.78 12.582a32.464 32.464 0 0 1-.21-.602c-.04.22-.082.436-.13.65l-3.052 14.315h-5.82L68.12.932h5.62l4.842 13.13.187.553c.035-.179.073-.365.118-.562Zm-23.843 1.138c.341.708.507 1.571.493 2.566l-.003.012c-.012.966-.205 2.015-.575 3.114a9.35 9.35 0 0 1-1.768 3.09c-.806.948-1.872 1.747-3.17 2.38-1.303.635-2.903.957-4.753.957h-.007c-1.466 0-2.754-.134-3.83-.398-1.103-.27-1.999-.663-2.655-1.164l-.34-.261 2.614-4.772.466.348c.282.21.706.412 1.26.6.552.186 1.194.282 1.912.282 1.075 0 1.927-.308 2.61-.938.675-.623 1.009-1.416 1.023-2.422.004-.457-.102-.835-.332-1.165a4.703 4.703 0 0 0-.99-1.018 35.309 35.309 0 0 0-1.428-1.039 9.942 9.942 0 0 1-1.523-1.303 6.25 6.25 0 0 1-1.181-1.776c-.313-.694-.467-1.55-.453-2.54.014-.948.213-1.973.597-3.05a9.06 9.06 0 0 1 1.772-2.982c.793-.894 1.802-1.649 3-2.244 1.21-.6 2.669-.905 4.334-.905h.007c1.312 0 2.451.148 3.387.442.931.291 1.729.663 2.373 1.1l.378.257-2.44 4.412-.46-.32c-.311-.214-.73-.414-1.244-.593-.504-.173-1.112-.263-1.802-.263-.507 0-.962.091-1.352.277-.4.188-.737.43-1 .72a2.927 2.927 0 0 0-.601 1.011c-.14.386-.215.793-.22 1.204-.004.476.111.861.356 1.186.309.4.676.75 1.09 1.041.5.36 1.01.707 1.53 1.04.585.377 1.131.812 1.63 1.298a6.273 6.273 0 0 1 1.295 1.816Zm37.019.926L90.81 21.99l6.695.002-1.082 4.962L83 26.95 88.549.934l13.424.006-1.037 4.962-6.693-.002-1.141 5.363 5.848.002-1.04 4.854-5.847-.002ZM54.686 26.938 60.236.922l6.771.002-5.551 26.016-6.77-.002Z"/>
</svg>
