<svg xmlns="http://www.w3.org/2000/svg" width="121" height="30" fill="currentColor" viewBox="0 0 121 30">
  <path fill="currentColor" d="M87.013 4.394c-.458.22-.841.5-1.144.84h-.001a3.364 3.364 0 0 0-.686 1.181 4.253 4.253 0 0 0-.228 1.368c0 .586.158 1.087.474 1.5a5.65 5.65 0 0 0 1.211 1.15 36.8 36.8 0 0 0 1.564 1.06c.56.363 1.085.779 1.565 1.243.093.088.18.182.268.278a242.108 242.108 0 0 1 1.814-5.24c1.724-4.706 6.752-7.713 12.214-7.75a663.19 663.19 0 0 1 4.938-.017l1.043-.001h1.017c4.672.003 9.29.018 9.29.021l-.313 1.493c-.592 2.837-2.417 3.598-4.338 3.668-.641.023-3.513.015-6.106.003l-.903-.003c-1.801-.006-3.302-.011-3.563 0-1.281.051-2.547.323-3.342.848l4.064-.001a3915.9 3915.9 0 0 1 8.438.001c-.066.283-.134.593-.203.913a43.778 43.778 0 0 1-.344 1.499c-.622 2.456-2.407 3.112-5.249 3.149-1.002.012-2.924.008-4.719.004-.852-.002-1.675-.004-2.358-.004-1.086 0-2.025.219-2.981.766h10.429c-.116 3.331-.277 5.594-5.089 5.594-.537 0-1.202-.002-1.901-.005a259.47 259.47 0 0 0-4.043.005 22.463 22.463 0 0 0-6.674 1.128c-.047.155-.096.31-.146.466l-.064.199a8.795 8.795 0 0 1-1.636 2.94c-.75.901-1.743 1.658-2.973 2.266-1.23.61-2.738.916-4.52.916-1.43 0-2.669-.129-3.71-.383-1.044-.256-1.87-.616-2.48-1.08l.677-1.273c-.692.705-1.549 1.313-2.572 1.82-1.233.61-2.738.916-4.521.916-1.43 0-2.665-.129-3.71-.383-1.044-.256-1.87-.616-2.48-1.08l2.077-3.909c.328.242.798.471 1.406.675.61.208 1.302.312 2.076.312 1.196 0 2.174-.36 2.936-1.078.764-.717 1.144-1.649 1.144-2.797 0-.559-.145-1.047-.44-1.46a5.264 5.264 0 0 0-1.108-1.132 38.102 38.102 0 0 0-1.46-1.06 9.891 9.891 0 0 1-1.46-1.243 5.84 5.84 0 0 1-.887-1.211 29.393 29.393 0 0 1-.795 3.789 24.916 24.916 0 0 1-1.16 3.27c-.417.973-.93 1.903-1.53 2.775-.984 1.39-2.186 2.495-3.604 3.31-1.418.818-3.078 1.225-4.976 1.225-1.288 0-2.408-.211-3.358-.639a6.15 6.15 0 0 1-2.356-1.807c-.622-.782-1.083-1.714-1.39-2.794a8.092 8.092 0 0 1-.112-.434l-.06.157-.016.039c-.422 1.026-.963 1.878-1.619 2.562-.987 1.019-2.227 1.765-3.727 2.226-1.503.466-3.25.696-5.24.696-1.622 0-3.085-.128-4.4-.382-1.311-.256-2.368-.617-3.163-1.081l4.572-22.955c.963-.461 2.098-.822 3.413-1.078C39.095.128 40.525 0 42.075 0c1.36 0 2.552.14 3.571.422 1.02.28 1.87.665 2.547 1.15.683.486 1.193 1.066 1.533 1.738.34.669.51 1.404.51 2.211 0 .467-.046.918-.14 1.358.393-.808.856-1.58 1.384-2.308 1.03-1.389 2.25-2.498 3.656-3.325C56.541.418 58.172.003 60.023.003c1.337 0 2.472.22 3.41.657.938.44 1.713 1.04 2.323 1.81.61.764 1.056 1.677 1.338 2.739.046.168.085.336.125.51.354-1 .895-1.924 1.594-2.721.738-.851 1.676-1.566 2.814-2.137C72.763.29 74.126.004 75.723.004c1.266 0 2.346.14 3.236.42.892.278 1.642.626 2.252 1.042l-1.9 3.545c-.352-.245-.807-.464-1.372-.66-.562-.192-1.22-.29-1.97-.29-.586 0-1.109.113-1.564.33-.458.22-.838.5-1.144.84a3.352 3.352 0 0 0-.687 1.19c-.154.449-.23.908-.23 1.368 0 .587.161 1.087.476 1.5.346.441.755.829 1.215 1.15.513.366 1.035.72 1.566 1.06.561.362 1.086.779 1.567 1.243a6.032 6.032 0 0 1 1.211 1.68c.319.647.477 1.431.477 2.36 0 .925-.17 1.917-.51 2.977a8.525 8.525 0 0 1-.362.928c.36.203.74.37 1.133.495.61.207 1.299.311 2.073.311 1.199 0 2.177-.36 2.939-1.078.762-.717 1.142-1.649 1.142-2.796 0-.56-.146-1.048-.437-1.46a5.19 5.19 0 0 0-1.109-1.133 38.575 38.575 0 0 0-1.457-1.06 9.692 9.692 0 0 1-1.46-1.242 6.003 6.003 0 0 1-1.108-1.646c-.292-.632-.44-1.414-.44-2.339 0-.901.176-1.872.528-2.907a8.484 8.484 0 0 1 1.636-2.83c.738-.852 1.676-1.567 2.814-2.138C85.377.293 86.74.007 88.337.007c1.266 0 2.344.14 3.236.42.89.278 1.64.626 2.25 1.042l-1.901 3.545c-.352-.245-.81-.464-1.372-.66-.564-.192-1.22-.29-1.97-.29-.589 0-1.108.113-1.567.33Zm-45.15 16.188c.373-.488.662-1.077.862-1.77a7.071 7.071 0 0 0 .297-1.991c0-.998-.34-1.734-1.02-2.21-.68-.477-1.782-.712-3.305-.712H37.29l-1.581 8.077c.28.127.574.218.877.271.328.062.726.092 1.197.092.868 0 1.648-.141 2.34-.422.69-.28 1.291-.74 1.74-1.335Zm-.122-9.904a4.464 4.464 0 0 0 1.704-1.096c.422-.462.746-1.042.968-1.735a6.579 6.579 0 0 0 .334-2.027c0-1.659-1.054-2.489-3.164-2.489a7.923 7.923 0 0 0-1.266.092c-.379.064-.707.14-.986.238l-1.442 7.383c.063.015.181.025.361.025.088 0 .188-.003.306-.007.353-.012.574-.018.668-.018 1.008 0 1.847-.122 2.517-.366Zm6.202 3.142.757-3.344c.136-.445.279-.888.434-1.325-.17.253-.356.495-.556.723a7.876 7.876 0 0 1-1.776 1.5 7.05 7.05 0 0 1-2.092.876v.073a5.74 5.74 0 0 1 1.476.653c.47.294.887.666 1.232 1.1.148.186.284.382.407.586.037-.274.076-.558.118-.842Zm13.35-1.169c.21-.926.382-1.839.51-2.74.118-.785.183-1.578.194-2.372 0-1.047-.178-1.912-.528-2.596-.349-.68-.984-1.022-1.898-1.022-.889 0-1.654.354-2.286 1.062-.631.706-1.196 1.606-1.688 2.702-.282.608-.561 1.353-.844 2.229-.289.9-.535 1.815-.737 2.739a41.274 41.274 0 0 0-.528 2.798c-.14.912-.21 1.721-.21 2.43 0 1.047.179 1.912.543 2.592.365.681 1.026 1.023 1.989 1.023.893 0 1.657-.36 2.304-1.078.644-.72 1.2-1.64 1.67-2.76.318-.743.588-1.506.807-2.284.26-.9.495-1.809.702-2.723ZM22.465 30h-3.16l2.507-4.274-1.223-10.733h3.106l.17 6.232a14.874 14.874 0 0 1-.04 1.173c-.012.174-.033.33-.058.48h.04c.039-.15.082-.31.134-.48.051-.147.115-.324.191-.528.076-.205.167-.422.267-.648l2.821-6.232h2.893L22.465 30ZM11.891 10.092h2.95l-1.916 9.617h.04l3.832-4.72h3.062l-4.31 4.919 2.532 5.814h-3.297l-1.955-5.417h-.037l-1.075 5.417H8.77l3.121-15.63ZM2.905 25.923h-.066a6.201 6.201 0 0 1-1.622-.219c-.516-.156-.923-.342-1.217-.568l1.112-1.872c.212.155.449.273.7.348.304.1.644.15 1.027.15.482 0 .865-.153 1.147-.458.282-.306.422-.651.422-1.036a.96.96 0 0 0-.2-.625 2.247 2.247 0 0 0-.51-.452 11.135 11.135 0 0 0-.662-.397 3.462 3.462 0 0 1-.662-.489 2.373 2.373 0 0 1-.507-.708c-.133-.278-.2-.623-.2-1.035a3.67 3.67 0 0 1 1.062-2.58 4.1 4.1 0 0 1 1.294-.855c.504-.217 1.08-.327 1.734-.33h.054a5.314 5.314 0 0 1 1.545.208c.438.127.853.325 1.227.586l-1.017 1.652a2.195 2.195 0 0 0-.632-.318 2.685 2.685 0 0 0-.862-.14c-.41 0-.759.134-1.047.4a1.29 1.29 0 0 0-.432.995.913.913 0 0 0 .219.626c.16.178.343.332.546.458.23.148.463.29.699.427.248.146.482.316.698.507.223.201.408.442.546.709.149.278.222.614.222 1.014 0 .519-.1 1.019-.298 1.502a3.557 3.557 0 0 1-.88 1.276c-.388.363-.874.66-1.457.886-.571.223-1.233.336-1.983.338Z"/>
</svg>
