<svg xmlns="http://www.w3.org/2000/svg" width="90" height="32" fill="currentColor" viewBox="0 0 90 32">
  <path fill="currentColor" d="M21.83 9.614c.477-3.086 1.618-5.46 3.42-7.122C27.056.832 29.72 0 33.248 0h9.309L41.8 4.851h-9.31c-1.326 0-2.433.347-3.32 1.036-.89.692-1.466 1.934-1.732 3.727l-.124.777h11.854l-.796 4.85H26.517L24.056 30.87h-5.61l3.38-21.255.004-.001Zm42.266 12.848h3.28c1.676 0 2.514.79 2.514 2.368 0 .671-.134 1.256-.401 1.753a2.81 2.81 0 0 1-1.133 1.15c-.48.262-1.043.393-1.688.393h-2.065l-.566 3.492h-1.393l1.452-9.156Zm2.726 4.448c.51 0 .916-.188 1.215-.563.307-.384.46-.872.46-1.465 0-.4-.098-.702-.295-.902-.196-.2-.483-.301-.861-.301H65.3l-.508 3.23 2.03.001Zm5.23 4.865c-.731 0-1.298-.17-1.7-.51-.392-.349-.59-.829-.59-1.439 0-.148.013-.3.037-.458l.26-1.648c.125-.776.42-1.369.884-1.778.464-.419 1.09-.628 1.876-.628.724 0 1.279.17 1.664.51.386.34.578.81.578 1.412 0 .149-.011.31-.035.484l-.271 1.648c-.118.776-.402 1.374-.85 1.792-.448.41-1.066.615-1.853.615Zm.024-1.112c.393 0 .708-.113.944-.34.236-.235.386-.553.448-.955l.272-1.648c.016-.14.023-.24.023-.3 0-.314-.086-.559-.26-.733-.164-.174-.416-.262-.754-.262-.394 0-.712.118-.956.354-.236.226-.386.54-.45.941l-.26 1.648a1.746 1.746 0 0 0-.022.327c0 .305.083.545.248.72.173.165.429.248.767.248Zm5.634-6.199a.61.61 0 0 1-.472-.21.763.763 0 0 1-.177-.51c0-.253.094-.48.283-.68.189-.21.405-.314.65-.314.18 0 .33.07.448.21.126.13.188.296.188.497 0 .252-.098.483-.295.693-.188.209-.397.314-.625.314Zm-.755 7.311c-.283-.192-.492-.392-.626-.602a1.489 1.489 0 0 1-.188-.758c0-.131.01-.266.035-.406l.72-4.538h1.286l-.708 4.512c-.013.073-.02.148-.024.222 0 .131.028.253.083.367.063.113.157.235.283.366l-.861.837Zm6.014-6.461c.496 0 .885.144 1.168.431.283.28.425.676.425 1.19 0 .158-.012.323-.035.498l-.661 4.185H82.59l.626-4.041c.016-.079.023-.184.023-.314 0-.27-.066-.476-.2-.615-.126-.148-.315-.223-.567-.223-.637 0-1.152.445-1.545 1.335l-.614 3.858h-1.286l.72-4.512c.007-.053.01-.122.01-.21a.859.859 0 0 0-.081-.379 1.383 1.383 0 0 0-.283-.366l.86-.837c.253.157.44.327.567.51.126.174.205.375.236.601.48-.74 1.118-1.111 1.913-1.111Zm3.989 4.172c-.023.13-.034.26-.035.392 0 .236.05.406.153.51.102.105.26.157.472.157h.838l-.177 1.1h-.838c-.59 0-1.03-.11-1.322-.328-.29-.227-.436-.614-.436-1.164 0-.165.02-.388.059-.667l.814-5.127c.008-.052.012-.122.012-.21a.856.856 0 0 0-.083-.379 1.223 1.223 0 0 0-.271-.366l.873-.837c.283.175.488.366.614.576.126.209.188.457.188.745 0 .087-.015.236-.047.445l-.177 1.138h1.593l-.177 1.111h-1.593l-.46 2.904Zm-55.813-8.369a.907.907 0 0 1-.703-.312 1.136 1.136 0 0 1-.263-.76c0-.376.14-.713.42-1.012.282-.311.604-.467.967-.467.27 0 .492.104.668.312.187.194.28.441.28.74 0 .376-.146.72-.438 1.031-.281.312-.592.468-.931.468ZM30.02 32c-.422-.285-.732-.584-.931-.896a2.216 2.216 0 0 1-.281-1.129c0-.195.017-.396.052-.603l1.072-6.756h1.914l-1.054 6.717c-.019.11-.03.22-.035.33 0 .195.04.377.123.546.094.169.234.35.422.545L30.02 32Zm7.58-4.731 2.003 4.497H37.67l-1.405-3.154-2.301 3.154h-1.95l3.513-4.79-1.932-4.36h1.932l1.335 2.998 2.213-2.998h1.932L37.6 27.269H37.6Zm5.038 1.207a2.466 2.466 0 0 0-.053.506c0 .922.52 1.383 1.563 1.383.457 0 .855-.065 1.195-.195.34-.143.696-.383 1.07-.72l.967 1.168c-.445.48-.93.83-1.458 1.051-.527.22-1.147.331-1.862.331-2.271 0-3.407-.915-3.407-2.745 0-.156.023-.415.07-.779l.457-2.842c.164-1.013.58-1.805 1.247-2.376.68-.57 1.55-.856 2.617-.856 1.007 0 1.803.26 2.389.778.597.52.896 1.24.896 2.162 0 .973-.176 1.674-.527 2.102-.34.428-.89.643-1.651.643h-3.46l-.053.389Zm2.318-4.458c-.515 0-.942.162-1.282.486-.328.312-.533.74-.615 1.285l-.123.837h2.442c.363 0 .626-.084.79-.253.176-.181.264-.512.264-.992 0-.442-.13-.78-.387-1.013-.246-.234-.61-.35-1.09-.35Zm12.369 5.315a3.631 3.631 0 0 0-.035.35c0 .208.04.39.123.545.082.156.222.331.42.526L56.553 32c-.62-.415-.99-.902-1.107-1.46-.76.973-1.733 1.46-2.916 1.46-.96 0-1.72-.318-2.283-.954-.55-.636-.826-1.5-.826-2.59 0-.337.024-.655.07-.953l.088-.623c.118-.87.363-1.642.738-2.317.387-.688.878-1.22 1.476-1.597a3.703 3.703 0 0 1 2.037-.584c.586 0 1.09.117 1.51.35.422.234.75.54.985.916l.58-3.66c.01-.065.017-.163.017-.293 0-.207-.041-.395-.123-.564a1.927 1.927 0 0 0-.422-.565l1.3-1.226c.422.26.726.545.913.856.2.312.299.688.299 1.13 0 .181-.018.389-.053.623l-1.51 9.384ZM55.99 25.77c-.07-.597-.27-1.032-.597-1.305-.328-.285-.738-.428-1.23-.428-.69 0-1.282.273-1.774.818-.48.545-.78 1.22-.896 2.025l-.088.623c-.034.22-.051.44-.052.662 0 .662.152 1.194.456 1.596.305.39.756.584 1.353.584 1.077 0 1.868-.578 2.37-1.733l.458-2.842Zm-37.6-9.789c-.605 2.465-.437 2.17-2.02 1.688-4.137-1.265-8.26-2.565-12.393-3.838-.46-.14-.81-.38-1.048-.805C1.572 10.62.966 7.781.494 4.864.472 4.723.433 4.552.6 4.436c.215-.15.363 0 .513.068 1.826.857 3.648 1.72 5.47 2.583 3.918 1.858 7.827 3.729 11.764 5.56.544.254.694.588.48 1.307-.231.777-.34 1.56-.437 2.027h-.001Zm-10.613 6.41c-1.035.267-1.742-.256-2.373-.955-.917-1.016-1.686-2.16-2.337-3.41-.086-.166-.31-.327-.12-.576.17-.224.42-.123.617-.108 2.067.168 4.13.342 6.194.523 2.13.186 4.249.412 6.39.563 1.648.116 1.668.076 1.71 1.818.042 1.876.376 1.81-1.725 1.866-2.745.073-5.497.181-8.356.277v.002Zm.57 3.289c.242-.329.47-.336.683-.4 2.752-.811 5.504-1.626 8.258-2.434.672-.196 1.559.66 1.45 1.374-.043.284-.252.344-.443.422-2.08.85-4.163 1.698-6.246 2.54-.143.058-.304.11-.43.093-1.307-.178-2.313-.84-3.272-1.59v-.005Z"/>
</svg>
