<svg width="28" height="28" viewBox="0 0 28 28" fill="none" xmlns="http://www.w3.org/2000/svg">
<path fill-rule="evenodd" clip-rule="evenodd" d="M13.726 6.58824H15.373C15.373 5.5154 14.992 4.9437 14.6857 4.48439L14.6855 4.48416C14.4383 4.11327 14.275 3.86822 14.275 3.29412C14.275 2.72002 14.4383 2.47498 14.6855 2.10408L14.6857 2.10384C14.992 1.64453 15.373 1.07289 15.373 0H13.726C13.726 0.57385 13.5627 0.818978 13.3157 1.18966L13.3153 1.19027C13.009 1.64958 12.6279 2.22122 12.6279 3.29412C12.6279 4.36701 13.009 4.93865 13.3153 5.39796L13.3158 5.39868C13.5627 5.76931 13.726 6.01439 13.726 6.58824ZM18.9408 9.88316H20.5879C20.5879 8.81026 20.2068 8.23862 19.9005 7.77931L19.9005 7.77924C19.6532 7.40831 19.4898 7.16323 19.4898 6.58904C19.4898 6.01494 19.6531 5.76989 19.9003 5.399L19.9005 5.39877C20.2068 4.93946 20.5879 4.36776 20.5879 3.29492H18.9408C18.9408 3.86902 18.7775 4.11406 18.5303 4.48496L18.5301 4.4852C18.2238 4.94451 17.8428 5.5162 17.8428 6.58904C17.8428 7.66188 18.2238 8.23357 18.5301 8.69288L18.5302 8.69302C18.7774 9.06397 18.9408 9.30906 18.9408 9.88316ZM9.05917 9.88316H7.41211C7.41211 8.81026 7.79318 8.23862 8.09948 7.77931L8.0998 7.77883C8.34685 7.40808 8.51015 7.16301 8.51015 6.58904C8.51015 6.01486 8.34678 5.76977 8.09953 5.39885L8.09948 5.39877C7.79318 4.93946 7.41211 4.36776 7.41211 3.29492H9.05917C9.05917 3.86894 9.2225 4.114 9.46963 4.48481L9.46989 4.4852C9.77613 4.94451 10.1572 5.51615 10.1572 6.58904C10.1572 7.66193 9.77613 8.23357 9.46989 8.69288L9.46969 8.69317C9.22252 9.06404 9.05917 9.30914 9.05917 9.88316ZM0 23.0586V24.7057H1.96159L3.60865 27.9998H24.3913L26.0384 24.7057H28V23.0586H0ZM16.4709 12.3534V12.6195C20.8281 13.573 24.2909 16.9874 25.2614 21.4122H2.73926C3.7102 16.9851 7.17457 13.5726 11.5297 12.6195V12.3534C11.5297 10.9883 12.6354 9.88281 14.0003 9.88281C15.3626 9.88281 16.4709 10.9911 16.4709 12.3534Z" fill="currentColor"/>
</svg>
