<svg width="17" height="17" viewBox="0 0 17 17" fill="none" xmlns="http://www.w3.org/2000/svg">
<path fill-rule="evenodd" clip-rule="evenodd" d="M5.87219 2.71875H15.858C16.4382 2.71875 16.9091 3.1907 16.9091 3.76987V13.2301C16.9091 13.8103 16.4382 14.2812 15.858 14.2812H5.87219C5.73242 14.2812 5.59888 14.2255 5.50012 14.1267L4.82104 13.4477L4.14203 14.1278C4.04321 14.2255 3.90973 14.2812 3.7699 14.2812H1.14209C0.562927 14.2812 0.0909424 13.8103 0.0909424 13.2301V3.76987C0.0909424 3.1907 0.562927 2.71875 1.14209 2.71875H3.7699C3.90973 2.71875 4.04321 2.77448 4.14203 2.87222L4.82104 3.55231L5.50012 2.87222C5.59888 2.77448 5.73242 2.71875 5.87219 2.71875ZM4.29547 11.1278V12.1789H5.34662V11.1278H4.29547ZM4.29547 9.02554V10.0767H5.34662V9.02554H4.29547ZM4.29547 6.92328V7.97443H5.34662V6.92328H4.29547ZM4.29547 4.82101V5.87216H5.34662V4.82101H4.29547ZM10.6024 6.39771C10.6024 5.52844 9.89496 4.82101 9.02563 4.82101C8.15631 4.82101 7.44891 5.52844 7.44891 6.39771C7.44891 7.267 8.15631 7.97443 9.02563 7.97443C9.89496 7.97443 10.6024 7.267 10.6024 6.39771ZM7.63812 12.057C7.73694 12.139 7.85571 12.1789 7.97449 12.1789C8.12476 12.1789 8.27405 12.1138 8.37708 11.9908L13.6328 5.68399C13.8187 5.46011 13.7894 5.129 13.5665 4.94296C13.3447 4.759 13.0137 4.78632 12.8265 5.01022L7.57086 11.317C7.38477 11.5399 7.41528 11.871 7.63812 12.057ZM10.6024 10.6022C10.6024 11.4715 11.3098 12.1789 12.179 12.1789C13.0483 12.1789 13.7557 11.4715 13.7557 10.6022C13.7557 9.73294 13.0483 9.02554 12.179 9.02554C11.3098 9.02554 10.6024 9.73294 10.6024 10.6022ZM8.84113 6.88608C9.07123 6.88608 9.25775 6.69952 9.25775 6.46939C9.25775 6.23929 9.07123 6.05273 8.84113 6.05273C8.61096 6.05273 8.42444 6.23929 8.42444 6.46939C8.42444 6.69952 8.61096 6.88608 8.84113 6.88608ZM12.1746 11.0521C12.4047 11.0521 12.5912 10.8655 12.5912 10.6354C12.5912 10.4053 12.4047 10.2188 12.1746 10.2188C11.9445 10.2188 11.7579 10.4053 11.7579 10.6354C11.7579 10.8655 11.9445 11.0521 12.1746 11.0521Z" fill="currentColor"/>
</svg>
