<svg width="18" height="18" viewBox="0 0 18 18" fill="none" xmlns="http://www.w3.org/2000/svg">
<path fill-rule="evenodd" clip-rule="evenodd" d="M7.08204 0.847214L15.0265 2.63299C15.1612 2.66328 15.2813 2.73713 15.3673 2.8425C15.4533 2.94787 15.5001 3.07852 15.5001 3.21314V15.1183C15.5001 15.253 15.4533 15.3836 15.3673 15.489C15.2813 15.5944 15.1612 15.6682 15.0265 15.6985L7.08204 17.4843C7.03689 17.4942 6.99076 17.4993 6.94448 17.4994C6.78244 17.4993 6.62706 17.4365 6.51248 17.3249C6.3979 17.2133 6.33348 17.062 6.33337 16.9041V1.42736C6.33339 1.33785 6.35413 1.24949 6.39407 1.16887C6.43401 1.08825 6.4921 1.01744 6.56403 0.96173C6.63625 0.906414 6.7202 0.867441 6.80979 0.847635C6.89939 0.827828 6.99238 0.827684 7.08204 0.847214ZM9.20994 10.7772C9.32454 10.6656 9.38893 10.5142 9.38893 10.3563V7.97521C9.38893 7.81733 9.32454 7.66593 9.20994 7.55429C9.09533 7.44266 8.93989 7.37995 8.77781 7.37995C8.61574 7.37995 8.4603 7.44266 8.34569 7.55429C8.23109 7.66593 8.1667 7.81733 8.1667 7.97521V10.3563C8.1667 10.5142 8.23109 10.6656 8.34569 10.7772C8.4603 10.8888 8.61574 10.9515 8.77781 10.9515C8.93989 10.9515 9.09533 10.8888 9.20994 10.7772ZM2.16687 15.226V3.10475C2.16687 2.94401 2.23711 2.78986 2.36213 2.6762C2.48716 2.56254 2.65673 2.49869 2.83353 2.49869H5.5002V15.8321H2.83353C2.65673 15.8321 2.48716 15.7682 2.36213 15.6546C2.23711 15.5409 2.16687 15.3867 2.16687 15.226Z" fill="currentColor"/>
</svg>
