<svg xmlns="http://www.w3.org/2000/svg" width="15" height="15" fill="currentColor" viewBox="0 0 15 15">
  <path fill="currentColor" d="M14.956 7.3c-.019-.05-.55-1.225-1.725-2.406C11.662 3.33 9.681 2.5 7.501 2.5c-.46 0-.92.037-1.376.112a.506.506 0 0 0-.288.832l6.332 6.962a.503.503 0 0 0 .706.037c1.425-1.281 2.056-2.681 2.081-2.737a.513.513 0 0 0 0-.406ZM2.87 1.663a.5.5 0 1 0-.738.675l1.2 1.318C1.062 5.05.087 7.2.043 7.3a.513.513 0 0 0 0 .406c.02.044.55 1.219 1.725 2.4 1.57 1.563 3.55 2.393 5.731 2.393a7.93 7.93 0 0 0 3.256-.675l1.375 1.514a.5.5 0 1 0 .738-.675l-9.999-11ZM7.5 9.75a2.25 2.25 0 0 1-1.844-3.537l2.95 3.243A2.212 2.212 0 0 1 7.5 9.75Z"/>
</svg>
