<svg width="12" height="12" viewBox="0 0 12 12" fill="none" xmlns="http://www.w3.org/2000/svg">
<path d="M0.75 2.00079C0.551088 2.00079 0.360322 2.07981 0.21967 2.22046C0.0790176 2.36112 0 2.55188 0 2.75079C0 2.94971 0.0790176 3.14047 0.21967 3.28112C0.360322 3.42178 0.551088 3.50079 0.75 3.50079H8.39062H9.71289H11.1484C11.3473 3.50079 11.5381 3.42178 11.6788 3.28112C11.8194 3.14047 11.8984 2.94971 11.8984 2.75079C11.8984 2.55188 11.8194 2.36112 11.6788 2.22046C11.5381 2.07981 11.3473 2.00079 11.1484 2.00079H9.71289H8.39062H0.75ZM2.34961 5.20001C2.1507 5.20001 1.95993 5.27903 1.81928 5.41968C1.67863 5.56033 1.59961 5.7511 1.59961 5.95001C1.59961 6.14892 1.67863 6.33969 1.81928 6.48034C1.95993 6.62099 2.1507 6.70001 2.34961 6.70001H9.54883C9.74774 6.70001 9.93851 6.62099 10.0792 6.48034C10.2198 6.33969 10.2988 6.14892 10.2988 5.95001C10.2988 5.7511 10.2198 5.56033 10.0792 5.41968C9.93851 5.27903 9.74774 5.20001 9.54883 5.20001H2.34961ZM4.75 8.39923C4.55109 8.39923 4.36032 8.47825 4.21967 8.6189C4.07902 8.75955 4 8.95032 4 9.14923C4 9.34814 4.07902 9.53891 4.21967 9.67956C4.36032 9.82021 4.55109 9.89923 4.75 9.89923H7.14844C7.34735 9.89923 7.53812 9.82021 7.67877 9.67956C7.81942 9.53891 7.89844 9.34814 7.89844 9.14923C7.89844 8.95032 7.81942 8.75955 7.67877 8.6189C7.53812 8.47825 7.34735 8.39923 7.14844 8.39923H4.75Z" fill="currentColor"/>
</svg>
