<svg width="21" height="22" viewBox="0 0 21 22" fill="none" xmlns="http://www.w3.org/2000/svg">
<path fill-rule="evenodd" clip-rule="evenodd" d="M9.94221 10.1493C9.8295 10.1624 9.73831 10.0478 9.76241 9.92343L10.3535 6.60599L8.47941 6.4455L7.94262 7.35829C7.8866 7.45363 7.79007 7.51813 7.68053 7.53348L7.37798 7.57589C7.29125 7.58804 7.21901 7.51002 7.23776 7.42449L7.47517 6.3412C7.44494 6.33187 7.41507 6.32127 7.38636 6.30775C7.24629 6.24175 7.07855 6.10506 7.07697 5.84613L7.077 5.84257C7.07858 5.58365 7.24632 5.44695 7.38636 5.38099C7.4151 5.36744 7.44494 5.35686 7.47517 5.34754L7.23776 4.26424C7.21901 4.17871 7.29125 4.10069 7.37798 4.11284L7.68053 4.15526C7.7901 4.17057 7.88663 4.23514 7.94268 4.33045L8.47951 5.24323L10.3535 5.08274L9.76241 1.76538C9.73841 1.64084 9.82951 1.5263 9.94231 1.53942L10.5289 1.60766C10.6705 1.6241 10.7949 1.72063 10.8588 1.86367L12.229 4.92205L13.6294 4.80209C14.2698 4.71887 14.6801 4.84372 14.9428 5.03252C15.5033 5.43544 15.5034 6.24959 14.944 6.65415C14.6813 6.84407 14.2708 6.96992 13.6294 6.88655L12.229 6.76663L10.8588 9.82503C10.7949 9.96813 10.6705 10.0646 10.5289 10.0811L9.94221 10.1493ZM5.93041 17.4934C5.29001 17.5766 4.87975 17.4517 4.61705 17.2629C4.05651 16.86 4.05645 16.0459 4.61584 15.6412C4.8785 15.4513 5.28904 15.3254 5.93044 15.4088L7.33084 15.5287L8.701 12.4703C8.7649 12.3272 8.8893 12.2307 9.0309 12.2142L9.6175 12.146C9.7302 12.1329 9.8214 12.2475 9.7974 12.372L9.2063 15.6894L11.0803 15.8498L11.6171 14.9371C11.6732 14.8417 11.7697 14.7772 11.8793 14.7619L12.1818 14.7195C12.2685 14.7073 12.3408 14.7853 12.322 14.8709L12.0846 15.9542C12.1149 15.9635 12.1447 15.9741 12.1735 15.9876C12.3135 16.0536 12.4812 16.1903 12.4828 16.4492V16.4528C12.4812 16.7118 12.3135 16.8485 12.1735 16.9145C12.1447 16.928 12.1149 16.9387 12.0846 16.9479L12.3221 18.0312C12.3408 18.1168 12.2686 18.1948 12.1818 18.1826L11.8793 18.1402C11.7698 18.1249 11.6732 18.0604 11.6171 17.965L11.0803 17.0523L9.2063 17.2128L9.7974 20.5301C9.8215 20.6546 9.7303 20.7692 9.6175 20.756L9.0309 20.6878C8.8893 20.6714 8.7649 20.5748 8.701 20.4318L7.33081 17.3734L5.93041 17.4934ZM2.01445 15.2987C2.20936 15.4936 2.41952 15.6767 2.64408 15.8462L3.34297 14.9207C2.14807 14.0181 1.46296 12.6437 1.46302 11.1488C1.46305 8.81751 3.19986 6.8081 5.50305 6.47479L5.33697 5.32703C3.95088 5.52756 2.67793 6.22194 1.75254 7.28211C0.817944 8.35283 0.303254 9.72615 0.303284 11.1489C0.303254 12.7298 0.918274 14.2025 2.01445 15.2987ZM20.6985 11.1482C20.6985 14.392 18.0595 17.0309 14.8158 17.0309L14.2487 17.031V15.8712H14.8157C17.42 15.8711 19.5387 13.7524 19.5387 11.1482C19.5387 9.12297 18.2513 7.32511 16.3348 6.67466L16.7076 5.57642C19.0945 6.38672 20.6986 8.62574 20.6985 11.1482Z" fill="currentColor"/>
</svg>
