<svg width="15" height="15" viewBox="0 0 15 15" fill="none" xmlns="http://www.w3.org/2000/svg">
<path fill-rule="evenodd" clip-rule="evenodd" d="M4.50984 14.9965C4.23734 14.9753 3.98921 14.8372 3.82796 14.6165L2.49171 12.784L2.4881 12.7791L2.4872 12.78C2.44658 12.725 2.3972 12.6762 2.34095 12.6344L0.380326 11.1912C0.196489 11.056 0.0702588 10.86 0.021693 10.6403C0.0118739 10.5963 0.00516016 10.5515 0.00171239 10.5059C-0.0189126 10.234 0.0798374 9.96716 0.272962 9.77466C0.562337 9.48591 0.991087 9.40591 1.36359 9.56841L2.95796 10.2653L6.05984 6.92278C6.1044 6.87483 6.13436 6.8166 6.14764 6.75417C6.15596 6.71385 6.15742 6.67188 6.15158 6.63C6.13658 6.52187 6.07408 6.42812 5.98095 6.37187L0.774076 3.61562C0.497201 3.44937 0.326576 3.185 0.289701 2.8825C0.2806 2.80769 0.279989 2.73322 0.287481 2.66024C0.310081 2.43729 0.408376 2.22784 0.571087 2.06466C0.777337 1.85778 1.06921 1.77216 1.35609 1.83466L8.95484 3.44403C9.08234 3.47216 9.21109 3.43091 9.29671 3.33841L12.0205 0.444657C12.2811 0.169032 12.7286 0.00715739 13.2486 -0.000967604C13.7892 -0.0165926 14.2817 0.154657 14.5636 0.435907C14.8448 0.717157 15.008 1.20903 15.0005 1.75091C14.993 2.27091 14.8305 2.71841 14.5548 2.97903L11.6523 5.71466C11.5573 5.80403 11.5173 5.93653 11.5467 6.06216L12.1286 8.62074L12.214 8.59086C12.2837 8.56607 12.3596 8.56607 12.4292 8.59086L14.773 9.41087C14.9091 9.45817 15.0002 9.58902 15.0002 9.73686V11.5817C15.0002 13.8333 12.5565 14.9274 12.4524 14.9733C12.3681 15.01 12.2748 15.01 12.1908 14.9733C12.0868 14.9278 9.64307 13.8333 9.64307 11.5817V10.8748L8.62859 8.99966C8.58046 8.92216 8.48671 8.86153 8.37984 8.84653C8.27171 8.83153 8.16609 8.86591 8.08671 8.93903L4.75109 12.039L5.44734 13.634C5.61046 14.0084 5.52984 14.4365 5.24171 14.7253C5.04984 14.9178 4.78484 15.0172 4.50984 14.9965ZM12.4631 12.7087L13.8228 11.3448C13.9919 11.1757 13.9543 10.9306 13.7392 10.7985C13.5241 10.6648 13.2136 10.6948 13.045 10.8639L12.0043 11.9079L11.5306 11.588C11.3239 11.4481 11.0114 11.4668 10.8339 11.6301C10.6554 11.7933 10.6797 12.0396 10.8873 12.1795L11.7526 12.7641C11.9657 12.9083 12.2895 12.8829 12.4631 12.7087Z" fill="currentColor"/>
</svg>
