<svg width="17" height="18" viewBox="0 0 17 18" fill="none" xmlns="http://www.w3.org/2000/svg">
<path fill-rule="evenodd" clip-rule="evenodd" d="M1.75593 5.65525L1.96896 10.7649L13.006 13.7223C14.0063 13.9903 15.0344 13.3967 15.3025 12.3964C15.5705 11.3962 14.9769 10.368 13.9766 10.1L10.1533 9.07557L8.15331 2.8222C8.08167 2.5982 7.91871 2.4149 7.70465 2.31751L6.40776 1.72753C6.11207 1.59302 5.78302 1.83358 5.82149 2.15614L6.531 8.10499L4.11619 7.45794L3.49448 5.90907C3.39726 5.66688 3.1922 5.48422 2.94042 5.41554L2.28189 5.23591C2.00984 5.1617 1.74419 5.3735 1.75593 5.65525ZM0.166504 16.4994C0.166504 16.0391 0.5396 15.666 0.999837 15.666H15.9998C16.4601 15.666 16.8332 16.0391 16.8332 16.4994C16.8332 16.9596 16.4601 17.3327 15.9998 17.3327H0.999837C0.5396 17.3327 0.166504 16.9596 0.166504 16.4994Z" fill="currentColor"/>
</svg>
