
<svg width="17" height="17" viewBox="0 0 17 17" fill="none" xmlns="http://www.w3.org/2000/svg">
<path fill-rule="evenodd" clip-rule="evenodd" d="M0.9062 7.68882L3.64551 12.0074L14.6826 9.05006C15.6829 8.78202 16.2764 7.75388 16.0084 6.75362C15.7404 5.75336 14.7123 5.15977 13.712 5.42778L9.88868 6.45224L5.02996 2.03664C4.85592 1.87847 4.62315 1.80121 4.38907 1.8239L2.97094 1.96141C2.64761 1.99276 2.48292 2.36562 2.67752 2.62573L6.2664 7.42282L3.85159 8.06987L2.53874 7.03937C2.33345 6.87823 2.06452 6.82258 1.81214 6.88899L1.15202 7.06269C0.87932 7.13445 0.75516 7.4507 0.9062 7.68882ZM0 15.8407C0 15.3805 0.373096 15.0074 0.833336 15.0074H15.8333C16.2936 15.0074 16.6667 15.3805 16.6667 15.8407C16.6667 16.3009 16.2936 16.674 15.8333 16.674H0.833336C0.373096 16.674 0 16.3009 0 15.8407Z" fill="currentColor"/>
</svg>






