<svg xmlns="http://www.w3.org/2000/svg" width="20" height="20" fill="currentColor" viewBox="0 0 20 20">
  <path d="M7 2a1 1 0 0 0-1 1h2a1 1 0 0 0-1-1ZM4 3a3 3 0 0 1 6 0 3 3 0 1 1 6 0h2a2 2 0 0 1 2 2v1a2 2 0 0 1-2 2H2a2 2 0 0 1-2-2V5a2 2 0 0 1 2-2h2Zm10 0a1 1 0 1 0-2 0h2ZM4 9a2 2 0 0 0-2 2v5a4 4 0 0 0 4 4h8a4 4 0 0 0 4-4v-5a2 2 0 0 0-2-2H4Zm7.354 2.927a.5.5 0 0 0 .222.18l.005.002 1.523.449c.018.005.034.01.05.017a.5.5 0 0 1 .249.783l-.969 1.258a.5.5 0 0 0-.103.319l.043 1.587a.5.5 0 0 1-.667.485l-1.496-.532a.499.499 0 0 0-.335 0l-1.496.532A.495.495 0 0 1 8.023 17a.5.5 0 0 1-.354-.492l.044-1.588a.5.5 0 0 0-.104-.318l-.968-1.259a.5.5 0 0 1 .255-.784l1.523-.45a.5.5 0 0 0 .27-.196l.899-1.31a.5.5 0 0 1 .604-.18.494.494 0 0 1 .264.195l.898 1.31Z"/>
</svg>
