<svg width="28" height="28" viewBox="0 0 28 28" fill="none" xmlns="http://www.w3.org/2000/svg">
<path fill-rule="evenodd" clip-rule="evenodd" d="M24.4358 7.62037L22.2801 7.60927C24.1829 6.44416 25.032 4.1866 24.1874 2.33105C23.54 0.908742 22.0212 0 20.4114 0C19.7288 0 19.0298 0.163406 18.3737 0.520406C16.929 1.30632 15.8134 2.40882 14.9589 3.5297L14.9375 3.55749L14.9138 3.58821C14.7828 3.7619 14.6589 3.93493 14.5406 4.1084L14.5012 4.16511C14.4663 4.21534 14.4313 4.26554 14.397 4.31709C14.3593 4.3743 14.324 4.43068 14.2886 4.48722L14.2886 4.48726L14.2507 4.54759C14.2281 4.58279 14.2055 4.6178 14.1828 4.65279L14.1828 4.65281C14.1179 4.75286 14.0532 4.85281 13.9906 4.95709C13.083 3.41048 11.6782 1.64292 9.61452 0.520352C8.95855 0.163406 8.25959 0 7.57692 0C5.96709 0 4.44841 0.908742 3.80102 2.33105C3.09747 3.87641 3.57139 5.69926 4.84791 6.93913C5.10253 7.19059 5.38784 7.42082 5.70562 7.62037H0.988281V13.4596C0.988281 13.5773 1.08366 13.6725 1.20123 13.6725H12.37V7.65942H15.6183V13.6725H26.7871C26.9047 13.6725 27 13.5772 27 13.4595V7.62037H24.4358ZM10.8045 6.15043C9.49913 6.15043 8.33959 5.92402 7.35817 5.47734C6.8615 5.25131 6.46403 4.86467 6.26765 4.41667C6.17856 4.21351 6.05497 3.81598 6.228 3.43574C6.43084 2.99009 6.99822 2.66667 7.57714 2.66667C7.8444 2.66667 8.10105 2.73268 8.3402 2.86278C9.60829 3.55255 10.5647 4.60234 11.2621 5.62855C11.3689 5.789 11.4736 5.95366 11.5755 6.12456C11.3267 6.1408 11.069 6.15043 10.8045 6.15043ZM21.7207 4.41667C21.5242 4.86467 21.1267 5.25131 20.6301 5.47734C19.6487 5.92402 18.4892 6.15043 17.1838 6.15043C16.9499 6.15043 16.7237 6.14059 16.502 6.12757C16.4891 6.12615 16.4761 6.12513 16.4631 6.12411L16.4631 6.12411C16.4452 6.12271 16.4272 6.1213 16.4093 6.11882C17.1236 4.9473 18.177 3.66302 19.6481 2.86278C19.8872 2.73268 20.1441 2.66667 20.4113 2.66667C20.9901 2.66667 21.5574 2.99009 21.7602 3.43574C21.9334 3.81593 21.8097 4.21351 21.7207 4.41667ZM4.15918 24.8981C4.15918 26.6116 5.54824 28.0005 7.2616 28.0005H12.3699V15.3164H4.15918V24.8981ZM20.7266 28.0005H15.6181V15.3164H23.8289V24.8981C23.8289 26.6116 22.44 28.0005 20.7266 28.0005Z" fill="currentColor"/>
</svg>
