<svg xmlns="http://www.w3.org/2000/svg" width="20" height="20" fill="currentColor" viewBox="0 0 20 20">
  <path fill="currentColor" d="M19.713 18.59h-.248c-.136 0-.136-.195-.136-.195V4.775c0-.342-.232-.623-.516-.623h-3.99c-.143 0-.135-.164-.135-.164V1.363c0-.026.012-.055.083-.055.158 0 .287-.156.287-.347V.346c0-.19-.129-.346-.287-.346H5.508c-.157 0-.286.156-.286.346v.615c0 .19.129.347.286.347.083 0 .084.09.084.1v2.52s.014.224-.108.224H1.175c-.283 0-.515.281-.515.624v13.662c0 .13-.058.151-.176.151H.286c-.157 0-.286.156-.286.347v.718c0 .19.129.346.286.346h19.428c.157 0 .286-.156.286-.346v-.718c0-.191-.129-.346-.287-.346ZM11.236 7.138h1.715c.126 0 .229.124.229.277v2.072c0 .153-.103.277-.23.277h-1.714c-.126 0-.23-.124-.23-.277V7.416c0-.153.104-.278.23-.278Zm-.23-1.286V3.78c0-.152.104-.277.23-.277h1.715c.126 0 .229.125.229.277v2.073c0 .152-.103.277-.23.277h-1.714c-.126 0-.23-.126-.23-.278Zm.23 4.793h1.715c.126 0 .229.124.229.277v2.072c0 .153-.103.277-.23.277h-1.714c-.126 0-.23-.124-.23-.277v-2.072c0-.152.104-.277.23-.277Zm.254 4.167c.126 0 .23.124.23.277v3.209c0 .152-.104.277-.23.277H8.834c-.126 0-.229-.125-.229-.277v-3.21c0-.152.103-.276.23-.276h2.655Zm-2.212-8.96c0 .152-.103.277-.23.277H7.334c-.126 0-.23-.125-.23-.277V3.78c0-.152.104-.277.23-.277h1.715c.126 0 .229.125.229.277v2.072ZM7.333 7.139h1.715c.126 0 .229.124.229.277v2.072c0 .153-.103.277-.23.277H7.334c-.126 0-.23-.124-.23-.277V7.416c0-.153.103-.277.229-.277Zm0 3.507h1.715c.126 0 .229.124.229.277v2.072c0 .153-.103.277-.23.277H7.334c-.126 0-.23-.124-.23-.277v-2.072c0-.152.103-.277.229-.277Zm8.03-3.294c0-.153.103-.278.23-.278h1.714c.126 0 .23.125.23.278v2.072c0 .153-.104.277-.23.277h-1.715c-.126 0-.229-.124-.229-.277V7.352Zm0 3.635c0-.152.103-.277.23-.277h1.714c.126 0 .23.124.23.277v2.072c0 .153-.104.278-.23.278h-1.715c-.126 0-.229-.125-.229-.277v-2.073Zm0 3.507c0-.152.103-.277.23-.277h1.714c.126 0 .23.125.23.277v2.073c0 .152-.104.277-.23.277h-1.715c-.126 0-.229-.125-.229-.277v-2.073ZM2.453 7.352c0-.153.103-.278.229-.278h1.714c.126 0 .23.125.23.278v2.072c0 .153-.104.277-.23.277H2.682c-.126 0-.23-.124-.23-.277V7.352h.001Zm0 3.635c0-.152.103-.277.229-.277h1.714c.126 0 .23.124.23.277v2.072c0 .153-.104.278-.23.278H2.682c-.126 0-.23-.125-.23-.277v-2.073h.001Zm0 3.507c0-.152.103-.277.229-.277h1.714c.126 0 .23.125.23.277v2.073c0 .152-.104.277-.23.277H2.682c-.126 0-.23-.125-.23-.277v-2.073h.001Z"/>
</svg>
