<svg width="28" height="28" viewBox="0 0 28 28" fill="none" xmlns="http://www.w3.org/2000/svg">
<path d="M6.50783 0L5.82186 1.4195L4.26089 1.60615L5.44737 2.65472L5.1347 4.26087L6.50783 3.45839L7.88215 4.26087L7.56948 2.65472L8.75596 1.60615L7.19499 1.4195L6.50783 0ZM7.88215 4.26087H5.1347H4.44397C2.63615 4.26087 1.21741 5.67961 1.21741 7.48743V27.3913C1.21741 27.7261 1.49132 28 1.8261 28H12.1739V21.913H15.8261V28H26.1739C26.5087 28 26.7826 27.7261 26.7826 27.3913V7.48743C26.7826 5.67961 25.3639 4.26087 23.5561 4.26087H22.8653H20.1179H17.8709H15.1235H12.8765H10.1291H7.88215ZM10.1291 4.26087L11.5022 3.45839L12.8765 4.26087L12.5639 2.65472L13.7503 1.60615L12.1894 1.4195L11.5022 0L10.8163 1.4195L9.25528 1.60615L10.4418 2.65472L10.1291 4.26087ZM15.1235 4.26087L16.4978 3.45839L17.8709 4.26087L17.5583 2.65472L18.7447 1.60615L17.1838 1.4195L16.4978 0L15.8106 1.4195L14.2497 1.60615L15.4362 2.65472L15.1235 4.26087ZM20.1179 4.26087L21.4922 3.45839L22.8653 4.26087L22.5527 2.65472L23.7391 1.60615L22.1782 1.4195L21.4922 0L20.805 1.4195L19.2441 1.60615L20.4305 2.65472L20.1179 4.26087ZM4.86958 7.30435H8.52176V9.73913H4.86958V7.30435ZM12.1739 7.30435H15.8261V9.73913H12.1739V7.30435ZM19.4783 7.30435H23.1304V9.73913H19.4783V7.30435ZM4.86958 12.1739H8.52176V14.6087H4.86958V12.1739ZM12.1739 12.1739H15.8261V14.6087H12.1739V12.1739ZM19.4783 12.1739H23.1304V14.6087H19.4783V12.1739ZM4.86958 17.0435H8.52176V19.4783H4.86958V17.0435ZM12.1739 17.0435H15.8261V19.4783H12.1739V17.0435ZM19.4783 17.0435H23.1304V19.4783H19.4783V17.0435ZM4.86958 21.913H8.52176V24.3478H4.86958V21.913ZM19.4783 21.913H23.1304V24.3478H19.4783V21.913Z" fill="currentColor"/>
</svg>
