<svg xmlns="http://www.w3.org/2000/svg" width="24" height="24" fill="currentColor" viewBox="0 0 24 24">
  <path d="M19.811 7.377a1.87 1.87 0 0 0 .566-.647c.134-.254.204-.535.205-.82V1.833a1.79 1.79 0 0 0-.564-1.297 1.977 1.977 0 0 0-1.362-.537H5.174c-.51 0-1 .193-1.362.537a1.79 1.79 0 0 0-.564 1.297v4.125c.001.284.071.564.205.819.134.254.327.476.566.647l2.178 1.559 4.117 2.933-6.295 4.492a1.868 1.868 0 0 0-.566.647 1.773 1.773 0 0 0-.205.82v4.124c0 .487.203.953.564 1.297.362.343.851.537 1.362.537h13.482c.51 0 1-.194 1.362-.537a1.79 1.79 0 0 0 .564-1.297V17.92c-.001-.284-.071-.565-.205-.82a1.87 1.87 0 0 0-.566-.646l-6.295-4.538 2.732-1.97 3.563-2.568ZM5.174 1.832h13.482V5.91l-.698.504H5.812l-.638-.458V1.832Zm13.482 16.087V22H5.174v-4.126l5.778-4.125v2.75c0 .243.101.477.282.648.18.172.426.269.681.269.255 0 .5-.097.68-.268a.895.895 0 0 0 .283-.649V13.76l5.778 4.16Z"/>
</svg>
