<svg width="16" height="16" viewBox="0 0 16 16" fill="none" xmlns="http://www.w3.org/2000/svg">
<path d="M7.99948 5C9.47298 5 10.6665 3.88125 10.6665 2.5C10.6665 1.11875 9.47298 0 7.99948 0C6.52598 0 5.33255 1.11875 5.33255 2.5C5.33255 3.88125 6.52598 5 7.99948 5ZM6.21928 12.775L7.07278 11.775L5.02251 10.175L3.49234 11.9687C3.1123 12.4125 3.1023 13.0437 3.46567 13.5L5.06585 15.5C5.32921 15.8281 5.72926 16 6.13268 16C6.40938 16 6.69268 15.9187 6.93278 15.75C7.52278 15.3375 7.63948 14.5531 7.19938 14L6.21928 12.775ZM10.9765 10.175L8.92628 11.775L9.77968 12.775L8.79958 14C8.35958 14.5531 8.47628 15.3375 9.06628 15.75C9.30638 15.9187 9.58638 16 9.86638 16C10.2731 16 10.6732 15.8281 10.9332 15.5L12.5334 13.5C12.8968 13.0437 12.8868 12.4125 12.5067 11.9687L10.9765 10.175ZM14.1569 4.53125C13.7335 3.96562 12.9034 3.83125 12.3 4.225L10.9465 5.11562C9.18968 6.2719 6.80608 6.2719 5.05252 5.11562L3.69903 4.22812C3.09563 3.83125 2.26553 3.96875 1.84215 4.53125C1.41877 5.09687 1.56545 5.875 2.16552 6.2719L3.51901 7.1625C4.08574 7.5344 4.69914 7.8156 5.33255 8.0344V9H10.6665V8.0375C11.2999 7.8187 11.9133 7.5375 12.48 7.1656L13.8335 6.275C14.4369 5.875 14.5803 5.09687 14.1569 4.53125Z" fill="currentColor"/>
</svg>
