<svg width="16" height="16" viewBox="0 0 16 16" fill="none" xmlns="http://www.w3.org/2000/svg">
<path d="M6.85714 1.14285C5.71429 1.14285 4.57143 2.30968 4.57143 3.42856V4.57142H3.71429V14.8572H12.2857V4.57142H11.4286V3.42856C11.4286 2.28571 10.2737 1.14285 9.14286 1.14285H6.85714ZM7.42857 2.57142H8.57143C9.55419 2.57142 10 3.25647 10 3.99999V4.57142H6V3.99999C6 3.2809 6.34947 2.57142 7.42857 2.57142ZM2.28571 4.57142C0.735372 4.57142 0 5.30679 0 6.85713V12.5714C0 14.1218 0.855221 14.8572 2.28571 14.8572V4.57142ZM13.7143 4.57142V14.8572C15.1448 14.8572 16 14.0019 16 12.5714V6.85713C16 5.35473 15.2886 4.57142 13.7143 4.57142Z" fill="currentColor"/>
</svg>
