<svg width="18" height="18" viewBox="0 0 18 18" fill="none" xmlns="http://www.w3.org/2000/svg">
<path d="M3 2.33691C1.4901 2.33691 0.25 3.57702 0.25 5.08691V12.9131C0.25 14.4229 1.49007 15.6631 3 15.6631H15C16.5099 15.6631 17.75 14.4229 17.75 12.9131V5.08691C17.75 3.57703 16.5099 2.33691 15 2.33691H3ZM3 3.83691H15C15.1071 3.83691 15.1728 3.92383 15.2715 3.94824L9.01367 7.7041L3 3.83691ZM1.83789 4.87402L8.59375 9.21777C8.71163 9.29363 8.8484 9.33493 8.98856 9.337C9.12872 9.33907 9.26665 9.30183 9.38672 9.22949L16.25 5.1123V12.9131C16.25 13.6122 15.6992 14.1631 15 14.1631H3C2.30079 14.1631 1.75 13.6122 1.75 12.9131V5.08691C1.75 5.00304 1.82274 4.95293 1.83789 4.87402Z" fill="currentColor"/>
</svg>
