<svg width="17" height="17" viewBox="0 0 17 17" fill="none" xmlns="http://www.w3.org/2000/svg">
<path d="M12.9575 1.71991C12.1486 1.07639 11.2027 0.615321 10.1882 0.369947C9.17366 0.124573 8.11573 0.101013 7.0907 0.300967C5.77272 0.563501 4.5602 1.18858 3.59757 2.10176C2.63493 3.01494 1.96276 4.17772 1.66113 5.45159C1.3595 6.72546 1.44111 8.05673 1.89625 9.2868C2.35139 10.5168 3.16087 11.5939 4.22827 12.3896C5.44695 13.2562 6.48456 14.3404 7.28563 15.5843L7.83145 16.4661C7.90077 16.5781 7.99874 16.6708 8.11583 16.7351C8.23293 16.7995 8.36516 16.8333 8.49969 16.8333C8.63421 16.8333 8.76644 16.7995 8.88354 16.7351C9.00063 16.6708 9.0986 16.5781 9.16792 16.4661L9.69113 15.6191C10.3887 14.4277 11.3399 13.3947 12.4811 12.5888C13.3759 11.9907 14.1154 11.1986 14.6413 10.2753C15.1672 9.35195 15.465 8.32248 15.5112 7.26815C15.5575 6.21381 15.351 5.16345 14.9079 4.19993C14.4649 3.23642 13.7974 2.38612 12.9583 1.71612L12.9575 1.71991ZM8.49891 10.0161C7.88203 10.0161 7.27902 9.83844 6.76611 9.50544C6.2532 9.17246 5.85343 8.69919 5.61736 8.14547C5.3813 7.59176 5.31953 6.98246 5.43988 6.39464C5.56022 5.80682 5.85727 5.26687 6.29347 4.84307C6.72966 4.41928 7.28541 4.13067 7.89043 4.01374C8.49545 3.89682 9.12256 3.95683 9.69248 4.18618C10.2624 4.41554 10.7495 4.80394 11.0923 5.30227C11.435 5.80061 11.6179 6.38649 11.6179 6.98582C11.6179 7.78951 11.2893 8.56028 10.7044 9.12857C10.1194 9.69684 9.3261 10.0161 8.49891 10.0161Z" fill="currentColor"/>
</svg>
