<svg width="15" height="16" viewBox="0 0 15 16" fill="none" xmlns="http://www.w3.org/2000/svg">
<path fill-rule="evenodd" clip-rule="evenodd" d="M4.75 6.5C4.75 4.98122 5.98122 3.75 7.5 3.75C9.01878 3.75 10.25 4.98122 10.25 6.5C10.25 8.01878 9.01878 9.25 7.5 9.25C5.98122 9.25 4.75 8.01878 4.75 6.5ZM7.5 5.25C6.80964 5.25 6.25 5.80964 6.25 6.5C6.25 7.19036 6.80964 7.75 7.5 7.75C8.19036 7.75 8.75 7.19036 8.75 6.5C8.75 5.80964 8.19036 5.25 7.5 5.25ZM7.5 2.25C6.37283 2.25 5.29183 2.69776 4.4948 3.4948L4.4948 3.4948C3.69776 4.29183 3.25 5.37283 3.25 6.5C3.25 8.47996 4.35889 10.3072 5.56595 11.6954C6.16033 12.3789 6.75662 12.9307 7.20449 13.3114C7.31271 13.4033 7.41194 13.4851 7.5 13.556C7.58806 13.4851 7.68729 13.4033 7.79551 13.3114C8.24338 12.9307 8.83967 12.3789 9.43405 11.6954C10.6411 10.3072 11.75 8.47996 11.75 6.5C11.75 5.37284 11.3022 4.29184 10.5052 3.49481L10.5051 3.49477C9.70822 2.69777 8.62718 2.25 7.5 2.25ZM7.5 14.5C7.0699 15.1144 7.0697 15.1143 7.06948 15.1141L7.06895 15.1138L7.06753 15.1128L7.06335 15.1098L7.04963 15.1001C7.03816 15.0919 7.02206 15.0803 7.00164 15.0654C6.96081 15.0356 6.90268 14.9925 6.82973 14.9367C6.68389 14.8252 6.47836 14.6628 6.23301 14.4543C5.74338 14.0381 5.08967 13.4336 4.43405 12.6796C3.14111 11.1928 1.75 9.02004 1.75 6.5C1.75 4.97501 2.35579 3.51248 3.43414 2.43414C3.43414 2.43414 3.43414 2.43414 3.43414 2.43414M3.43414 2.43414C4.51248 1.35579 5.97501 0.75 7.5 0.75C9.02498 0.75 10.4876 1.35579 11.5659 2.43417C12.6442 3.51249 13.25 4.97502 13.25 6.5C13.25 9.02004 11.8589 11.1928 10.566 12.6796C9.91033 13.4336 9.25662 14.0381 8.76699 14.4543C8.52164 14.6628 8.31611 14.8252 8.17027 14.9367C8.09732 14.9925 8.03919 15.0356 7.99836 15.0654C7.97794 15.0803 7.96184 15.0919 7.95037 15.1001L7.93665 15.1098L7.93247 15.1128L7.93105 15.1138L7.93052 15.1141C7.9303 15.1143 7.9301 15.1144 7.5 14.5L7.9301 15.1144C7.67186 15.2952 7.32814 15.2952 7.0699 15.1144L7.5 14.5" fill="currentColor"/>
</svg>
