<svg xmlns="http://www.w3.org/2000/svg" width="20" height="20" fill="currentColor" viewBox="0 0 20 20">
  <path d="M10.04 20c4.27 0 8.06-2.76 9.43-6.81a.587.587 0 0 0-.923-.644 6.95 6.95 0 0 1-4.406 1.556c-3.878 0-7.07-3.154-7.07-7.032 0-2.424 1.27-4.687 3.331-5.986.221-.14.298-.409.225-.66A.618.618 0 0 0 10.04 0C4.546 0 0 4.507 0 10s4.546 10 10.04 10Zm8.788-18.242a.586.586 0 1 1-1.172 0 .586.586 0 0 1 1.172 0ZM20 6.484a.586.586 0 1 1-1.172 0 .586.586 0 0 1 1.172 0Zm-7.031 0a1.76 1.76 0 0 0-1.758-1.757.586.586 0 1 1 0-1.172c.97 0 1.758-.828 1.758-1.797a.586.586 0 1 1 1.172 0c0 .97.788 1.797 1.757 1.797a.586.586 0 1 1 0 1.172 1.76 1.76 0 0 0-1.757 1.757.586.586 0 1 1-1.172 0Z"/>
</svg>
