<svg xmlns="http://www.w3.org/2000/svg" width="22" height="22" fill="currentColor" viewBox="0 0 22 22">
  <path fill="currentColor" d="m9.385 3.537-4.043-.87a1.422 1.422 0 0 0-1.558.738A11.847 11.847 0 0 0 2.77 6.303c-.525 2.468-.41 6.406 1.86 7.395L3.536 18.82c-.874.158-2.083.982-2.49 1.272a.44.44 0 0 0-.177.457.457.457 0 0 0 .348.354l4.474.955c.032.01.064.01.095.01a.453.453 0 0 0 .394-.68c-.253-.43-1.028-1.685-1.76-2.183l1.095-5.117c.01 0 .013.005.022.005 1.957 0 3.958-2.495 4.705-5.99.222-1.047.313-2.08.263-3.062a1.411 1.411 0 0 0-1.12-1.304Zm.136 3.16h-5.9c.013-.068.023-.136.036-.203.208-.97.52-1.87.933-2.677a.5.5 0 0 1 .453-.27.44.44 0 0 1 .108.008l4.044.865c.227.05.394.24.403.466.032.59 0 1.195-.077 1.811Zm11.434 13.395c-.403-.29-1.616-1.11-2.49-1.272l-1.096-5.122c2.775-1.209 2.584-6.906.847-10.293a1.42 1.42 0 0 0-1.553-.738l-4.049.87a1.411 1.411 0 0 0-1.118 1.304c-.212 4.165 2.13 9.052 4.967 9.052.01 0 .014-.005.023-.005l1.096 5.117c-.734.498-1.508 1.753-1.762 2.183a.454.454 0 0 0 .394.68c.032 0 .064 0 .095-.01l4.474-.955a.458.458 0 0 0 .33-.61.441.441 0 0 0-.158-.2ZM12.727 8.06c-.24-1.04-.384-2.008-.326-3.174a.505.505 0 0 1 .403-.466l4.044-.865c.036-.01.073-.01.11-.01a.5.5 0 0 1 .452.272c.615 1.204 1.046 2.71 1.154 4.243h-5.837Zm-3.89-5.566a.453.453 0 0 0 .735-.528L8.85.958a.453.453 0 1 0-.736.528l.723 1.008ZM11 .134a.453.453 0 0 0-.453.452v1.248a.453.453 0 1 0 .905 0V.586A.453.453 0 0 0 11 .133v.001Zm2.164 2.36.723-1.008a.453.453 0 0 0-.736-.528l-.723 1.008a.454.454 0 0 0 .736.528Z"/>
</svg>
