<svg width="17" height="17" viewBox="0 0 17 17" fill="none" xmlns="http://www.w3.org/2000/svg">
<path d="M16.8333 13.6041C16.8333 13.7975 16.7535 13.983 16.6114 14.1197C16.4693 14.2565 16.2766 14.3333 16.0757 14.3333H6.98481C6.78388 14.3333 6.59119 14.2565 6.44912 14.1197C6.30705 13.983 6.22723 13.7975 6.22723 13.6041C6.22723 12.4438 6.70613 11.331 7.55856 10.5106C8.411 9.69009 9.56712 9.22916 10.7727 9.22916H12.2878C13.4933 9.22916 14.6495 9.69009 15.5019 10.5106C16.3544 11.331 16.8333 12.4438 16.8333 13.6041ZM11.5302 2.66666C10.9309 2.66666 10.345 2.83772 9.84672 3.1582C9.34838 3.47869 8.95998 3.93421 8.73063 4.46716C8.50127 5.00011 8.44126 5.58656 8.55818 6.15234C8.67511 6.71811 8.96372 7.23781 9.38751 7.64572C9.81132 8.05362 10.3512 8.33141 10.9391 8.44395C11.5269 8.55649 12.1362 8.49873 12.6899 8.27797C13.2436 8.05722 13.7169 7.68338 14.0498 7.20373C14.3828 6.72409 14.5605 6.16018 14.5605 5.58332C14.5605 4.80977 14.2413 4.06791 13.673 3.52093C13.1047 2.97395 12.3339 2.66666 11.5302 2.66666ZM4.71208 2.66666C4.11274 2.66666 3.52686 2.83772 3.02853 3.1582C2.5302 3.47869 2.1418 3.93421 1.91244 4.46716C1.68309 5.00011 1.62308 5.58656 1.74 6.15234C1.85693 6.71811 2.14554 7.23781 2.56933 7.64572C2.99313 8.05362 3.53307 8.33141 4.1209 8.44395C4.70872 8.55649 5.31801 8.49873 5.87173 8.27797C6.42544 8.05722 6.89871 7.68338 7.23168 7.20373C7.56466 6.72409 7.74238 6.16018 7.74238 5.58332C7.74238 4.80977 7.42312 4.06791 6.85483 3.52093C6.28653 2.97395 5.51577 2.66666 4.71208 2.66666ZM4.71208 13.6041C4.71095 12.8382 4.86773 12.0797 5.17332 11.3726C5.47892 10.6654 5.92726 10.0236 6.49238 9.48436C6.02991 9.3163 5.53975 9.22985 5.04541 9.22916H4.37875C3.26224 9.23108 2.19203 9.65884 1.40254 10.4187C0.613052 11.1786 0.168629 12.2087 0.166626 13.2833V13.6041C0.166626 13.7975 0.246442 13.983 0.388515 14.1197C0.530592 14.2565 0.723282 14.3333 0.924202 14.3333H4.84844C4.76024 14.0995 4.71413 13.8529 4.71208 13.6041Z" fill="currentColor"/>
</svg>
