<svg width="16" height="16" viewBox="0 0 16 16" fill="none" xmlns="http://www.w3.org/2000/svg">
<path fill-rule="evenodd" clip-rule="evenodd" d="M1.7793 2.98999V11.945C1.78107 12.6048 2.04395 13.2372 2.51056 13.7038C2.97711 14.1703 3.60944 14.4332 4.26929 14.435H7.63928C7.68726 14.0888 7.78668 13.7518 7.93433 13.435C8.33807 12.5444 9.0683 11.8428 9.97437 11.475C9.64783 11.2491 9.38116 10.9472 9.19733 10.5953C9.01361 10.2434 8.91815 9.85202 8.91931 9.45499C8.91992 8.7988 9.18091 8.16965 9.64496 7.70563C10.1089 7.24161 10.738 6.98065 11.3943 6.98001C11.6332 6.9791 11.8709 7.0145 12.0994 7.08499C12.4741 7.19589 12.817 7.39474 13.0994 7.66501V2.98999C13.0992 2.32962 12.8369 1.69632 12.3699 1.22937C11.903 0.762421 11.2697 0.500061 10.6093 0.5H4.26929C3.60919 0.500916 2.97638 0.76355 2.50958 1.23032C2.04285 1.69708 1.78021 2.3299 1.7793 2.98999ZM4.79932 2.98001H10.0793C10.2119 2.98001 10.3391 3.03268 10.4329 3.12646C10.5266 3.22021 10.5793 3.34738 10.5793 3.48001C10.5793 3.61261 10.5266 3.73978 10.4329 3.83356C10.3391 3.92731 10.2119 3.98001 10.0793 3.98001H4.79932C4.74036 3.98001 4.6825 3.9696 4.62817 3.9498C4.56024 3.92505 4.4978 3.88565 4.44574 3.83356C4.35199 3.73978 4.29932 3.61261 4.29932 3.48001C4.29932 3.34738 4.35199 3.22021 4.44574 3.12646C4.53949 3.03268 4.66669 2.98001 4.79932 2.98001ZM4.79932 5.64001H10.0793C10.2119 5.64001 10.3391 5.69269 10.4329 5.78644C10.5266 5.88022 10.5793 6.00739 10.5793 6.14001C10.5793 6.27261 10.5266 6.39978 10.4329 6.49356C10.3391 6.58731 10.2119 6.64001 10.0793 6.64001H4.79932C4.66669 6.64001 4.53949 6.58731 4.44574 6.49356C4.35199 6.39978 4.29932 6.27261 4.29932 6.14001C4.29932 6.00739 4.35199 5.88022 4.44574 5.78644C4.53949 5.69269 4.66669 5.64001 4.79932 5.64001ZM4.79932 8.29501H7.19928C7.33191 8.29501 7.45911 8.34769 7.55286 8.44144C7.64661 8.53522 7.69928 8.66238 7.69928 8.79501C7.69928 8.92761 7.64661 9.05478 7.55286 9.14856C7.53143 9.16998 7.50824 9.18927 7.48364 9.20627C7.46765 9.21735 7.45099 9.22745 7.4339 9.23654C7.3623 9.2746 7.28186 9.29501 7.19928 9.29501H4.79932C4.66669 9.29501 4.53949 9.24231 4.44574 9.14856C4.35199 9.05478 4.29932 8.92761 4.29932 8.79501C4.29932 8.66238 4.35199 8.53522 4.44574 8.44144C4.53949 8.34769 4.66669 8.29501 4.79932 8.29501ZM11.3944 11.1805C12.3471 11.1805 13.1194 10.4082 13.1194 9.45547C13.1194 8.50278 12.3471 7.73047 11.3944 7.73047C10.4417 7.73047 9.66943 8.50278 9.66943 9.45547C9.66943 10.4082 10.4417 11.1805 11.3944 11.1805ZM14.0887 15.4796C14.0438 15.4927 13.9969 15.4996 13.9492 15.4998H8.84424C8.71173 15.4994 8.58478 15.4466 8.49109 15.3529C8.3974 15.2592 8.3446 15.1323 8.34424 14.9998C8.34424 14.1902 8.66583 13.4138 9.23834 12.8413C9.81073 12.2689 10.5872 11.9473 11.3967 11.9473C12.2064 11.9473 12.9827 12.2689 13.5551 12.8413C14.1276 13.4138 14.4492 14.1902 14.4492 14.9998C14.4489 15.1323 14.3961 15.2592 14.3024 15.3529C14.2423 15.4129 14.1686 15.4561 14.0887 15.4796Z" fill="currentColor"/>
</svg>
