<svg xmlns="http://www.w3.org/2000/svg" width="22" height="22" fill="currentColor" viewBox="0 0 22 22">
  <path fill="currentColor" d="M20.163 1.003c.128.048.262.082.383.148.367.196.55.523.607.945.116.843.242 1.68.36 2.524.137 1.002.271 2.005.404 3.007.035.266.084.533.084.798 0 .525-.45 1.054-.945 1.133a547.628 547.628 0 0 1-5.252.803c-.218.033-.434.064-.652.086-.09.009-.13.04-.132.138-.005.153-.027.305-.03.458-.011.582-.26 1.039-.69 1.39-.44.362-.914.675-1.456.842a2.209 2.209 0 0 1-.554.076c-.141.007-.156-.034-.105-.18.36-1.022.973-1.821 1.881-2.383.534-.33 1.034-.723 1.556-1.075.101-.07.239-.091.363-.11.873-.133 1.748-.255 2.622-.386.75-.114 1.5-.234 2.25-.358a.673.673 0 0 0 .285-.126c.134-.103.178-.257.155-.434-.155-1.183-.31-2.365-.46-3.55-.015-.12-.066-.138-.163-.124-.816.114-1.633.224-2.447.338-.89.124-1.776.25-2.665.379-.936.137-1.873.282-2.81.423l-2.31.35c-.277.043-.554.095-.848.145.035.296.064.575.099.852.087.682.18 1.363.267 2.045.047.368.05.382-.283.522-.616.256-1.24.498-1.857.744-.103.04-.207.077-.31.122-.081.036-.131.114-.085.195.028.052.12.11.167.098.252-.064.51-.126.75-.227a57.08 57.08 0 0 0 2.223-.986c.17-.08.296-.263.44-.406.47-.47.923-.958 1.411-1.406.569-.518 1.218-.9 1.961-1.076.287-.067.573-.08.851.036.389.162.575.49.62.894.11.994-.338 1.714-1.09 2.255-.365.26-.751.494-1.127.739-.748.485-1.267 1.166-1.611 2.013-.416 1.027-.864 2.038-1.448 2.977-.564.906-1.238 1.696-2.146 2.244-.62.374-1.294.65-1.998.818-.122.03-.21.012-.297-.101-1.067-1.382-2.14-2.758-3.21-4.138a5.474 5.474 0 0 1-.305-.425.212.212 0 0 1-.013-.176c.373-.756.747-1.512 1.133-2.262.718-1.395 1.463-2.773 2.314-4.085.028-.043.06-.085.084-.131.307-.586.805-.9 1.397-1.077.373-.112.749-.215 1.126-.306.13-.031.165-.092.149-.216-.051-.406-.104-.814-.15-1.223-.035-.317-.103-.64-.081-.954.044-.608.526-1.05 1.118-1.13.754-.1 1.502-.222 2.254-.332.535-.08 1.07-.157 1.603-.236.747-.11 1.494-.224 2.241-.333.77-.112 1.54-.222 2.31-.33.595-.081 1.19-.157 1.784-.237.011-.001.022-.013.032-.022.08.004.163.004.246.004ZM9.338 4.582l11.24-1.645c-.023-.334-.038-.655-.17-.95a.483.483 0 0 0-.503-.275c-.475.067-.95.138-1.425.209l-3.46.516c-1.163.174-2.327.348-3.49.524-.625.095-1.248.19-1.873.288-.218.034-.42.237-.41.448.016.285.057.573.09.885Zm-9.34 10.67c.079-.097.143-.207.234-.29.36-.33.727-.655 1.1-.973a.642.642 0 0 1 .265-.14c.165-.036.305.012.424.16.864 1.086 1.738 2.162 2.602 3.246.475.596.93 1.207 1.409 1.8.203.25.184.622-.065.823-.397.322-.778.667-1.177.989-.248.2-.462.177-.681-.07-.218-.244-.42-.505-.624-.764-1.114-1.42-2.23-2.838-3.343-4.261-.064-.083-.095-.191-.143-.29v-.23Zm11.59-.686c.122-.283.226-.543.343-.796.017-.036.084-.06.129-.064.276-.022.561 0 .83-.063.45-.105.84-.366 1.226-.622l.164-.105c.01-.007.024-.007.056-.018-.002.06-.002.107-.01.155-.005.038-.02.075-.026.11-.099.518-.412.824-.86 1.05-.542.272-1.1.408-1.695.379-.043-.002-.087-.014-.156-.026Zm2.264-.131c-.087.424-.316.73-.674.937-.31.18-.644.28-.996.28-.34.003-.683-.034-1.026-.056-.03-.002-.059-.02-.115-.036.11-.203.214-.396.325-.586.016-.026.072-.034.11-.034.233-.007.467-.02.7-.01.537.025 1.012-.173 1.477-.42.053-.027.107-.054.162-.08.007-.003.017.002.037.005Z"/>
</svg>
