<svg width="10" height="10" viewBox="0 0 10 10" fill="none" xmlns="http://www.w3.org/2000/svg">
<path fill-rule="evenodd" clip-rule="evenodd" d="M5.75 1.5625C5.75 1.14829 5.41421 0.8125 5 0.8125C4.58579 0.8125 4.25 1.14829 4.25 1.5625V4.25H1.5625C1.14829 4.25 0.8125 4.58579 0.8125 5C0.8125 5.41421 1.14829 5.75 1.5625 5.75H4.25V8.4375C4.25 8.85171 4.58579 9.1875 5 9.1875C5.41421 9.1875 5.75 8.85171 5.75 8.4375V5.75H8.4375C8.85171 5.75 9.1875 5.41421 9.1875 5C9.1875 4.58579 8.85171 4.25 8.4375 4.25H5.75V1.5625Z" fill="currentColor"/>
</svg>
