<svg width="20" height="20" viewBox="0 0 20 20" fill="none" xmlns="http://www.w3.org/2000/svg">
<path fill-rule="evenodd" clip-rule="evenodd" d="M7.65617 1.21094H12.3437C13.3129 1.21094 14.1015 1.99951 14.1015 2.96875V3.55469H18.992L16.7819 10.1854C16.7018 10.4251 16.4781 10.5859 16.2257 10.5859H12.9296V10C12.9296 9.67621 12.6675 9.41406 12.3437 9.41406H7.65617C7.33237 9.41406 7.07023 9.67621 7.07023 10V10.5859H3.77418C3.5218 10.5859 3.2981 10.4251 3.218 10.1854L1.00806 3.55469H5.89835V2.96875C5.89835 1.99951 6.68693 1.21094 7.65617 1.21094ZM7.07023 2.96875V3.55469H12.9296V2.96875C12.9296 2.64542 12.667 2.38281 12.3437 2.38281H7.65617C7.33283 2.38281 7.07023 2.64542 7.07023 2.96875ZM16.2258 11.7578H12.9297V12.3437C12.9297 12.6675 12.6676 12.9297 12.3438 12.9297H7.65625C7.33246 12.9297 7.07031 12.6675 7.07031 12.3437V11.7578H3.77426C3.01666 11.7578 2.34665 11.2748 2.10678 10.5562L0 4.23474V17.0312C0 18.0005 0.788572 18.789 1.75781 18.789H18.2422C19.2115 18.789 20 18.0005 20 17.0312V4.2352L17.8931 10.5562C17.6534 11.2748 16.9834 11.7578 16.2258 11.7578ZM8.24219 10.5859H11.7578V11.7578H8.24219V10.5859Z" fill="currentColor"/>
</svg>
