<svg width="16" height="16" viewBox="0 0 16 16" fill="none" xmlns="http://www.w3.org/2000/svg">
<path fill-rule="evenodd" clip-rule="evenodd" d="M11.4454 1.26971H13.2332C13.3128 1.26971 13.3773 1.33418 13.3773 1.41381V2.61647C13.1294 2.47012 12.7532 2.37668 12.3319 2.37668C11.9188 2.37668 11.5492 2.46656 11.3013 2.608V1.41381C11.3013 1.33425 11.3658 1.26971 11.4454 1.26971ZM2.90062 1.65839C2.24868 1.65839 1.72021 2.18689 1.72021 2.83879C1.72021 3.49026 2.24925 4.0192 2.90062 4.0192C3.55325 4.0192 4.08103 3.49011 4.08103 2.83879C4.08103 2.19064 3.55631 1.65839 2.90062 1.65839ZM13.4231 3.12259C13.3972 3.10726 13.3714 3.09154 13.3454 3.07568C13.1195 2.93789 12.8758 2.78925 12.3317 2.78925C11.7983 2.78925 11.5514 2.93488 11.3314 3.06464L11.3313 3.06466C11.3061 3.07957 11.2812 3.09426 11.2562 3.1085C11.2117 3.74409 11.7148 4.27153 12.3391 4.27153C12.9595 4.2715 13.459 3.751 13.4231 3.12259ZM8.39124 4.827L9.04105 5.02606C9.16559 5.06422 9.23559 5.19609 9.19746 5.32059L8.9544 6.11403C8.74809 5.81656 8.40509 5.62647 8.0239 5.62644C7.98181 5.62644 7.93952 5.62912 7.89746 5.63384L8.09671 4.98341C8.13487 4.85887 8.26671 4.78884 8.39124 4.827ZM8.25842 13.1716H8.83271C9.03733 13.1716 9.20321 13.3374 9.20327 13.5421V15.6293C9.20327 15.8339 9.03739 15.9998 8.83277 15.9998H5.76552C5.56089 15.9998 5.39502 15.8339 5.39502 15.6293V13.5421C5.39502 13.3374 5.56089 13.1716 5.76552 13.1716H6.3398V12.6528C6.3398 12.3834 6.55896 12.1642 6.82836 12.1642H7.76986C8.03924 12.1642 8.25842 12.3834 8.25842 12.6528V13.1716ZM6.83389 13.1716H7.76418V12.6584H6.83389V13.1716ZM13.7414 4.61825C14.4217 4.61825 14.9779 5.17175 14.9814 5.85203L14.9906 7.68737H13.9426L13.9334 5.85672C13.9334 5.79615 13.8843 5.74709 13.8238 5.74709C13.7632 5.74712 13.7141 5.79618 13.7141 5.85675V7.68737H10.9387V5.8579C10.9387 5.80212 10.8936 5.75684 10.8378 5.75672C10.782 5.75659 10.7367 5.80159 10.7364 5.85737L10.7272 7.68728H9.6792L9.68842 5.85203C9.69186 5.17172 10.2481 4.61825 10.9284 4.61825H11.4604C11.6345 5.07942 11.7203 5.31009 11.7803 5.47143L11.7804 5.47161L11.7804 5.47164C11.8729 5.7204 11.9042 5.80441 12.1033 6.31518L12.0709 6.15258C11.9551 5.57154 11.9466 5.52876 11.9919 5.44628L12.203 5.06237L12.0161 4.72234C12.0031 4.69875 12.0036 4.67009 12.0173 4.64693C12.0309 4.62378 12.0559 4.60956 12.0828 4.60956H12.5959C12.6228 4.60956 12.6477 4.62375 12.6614 4.64693C12.6751 4.67009 12.6755 4.69875 12.6626 4.72234L12.4756 5.06237L12.6859 5.44487C12.7109 5.49022 12.7187 5.54306 12.708 5.59375L12.5548 6.31518L13.2044 4.61825H13.7414ZM12.1462 7.06175C12.1462 7.16606 12.2315 7.24825 12.3327 7.24825C12.4304 7.24825 12.5192 7.16815 12.5192 7.06175C12.5192 6.95597 12.4309 6.87525 12.3327 6.87525C12.2311 6.87525 12.1462 6.9579 12.1462 7.06175ZM15.4546 8.34198H4.96631V9.43264H15.4546C15.7557 9.43264 15.9999 9.18848 15.9999 8.88733C15.9999 8.58611 15.7558 8.34198 15.4546 8.34198ZM7.92035 6.20036C8.22979 6.14352 8.52663 6.34846 8.58345 6.65767C8.64023 6.96705 8.43554 7.26386 8.12616 7.32071L6.08082 7.69639C5.84304 7.74011 5.60254 7.62877 5.48254 7.41727L4.4561 5.62664C4.4497 5.61542 4.43654 5.60999 4.42404 5.6133C4.41157 5.61661 4.40288 5.62792 4.40288 5.64083C4.40295 8.16892 4.4054 8.59411 4.40811 9.06434C4.41152 9.65536 4.41533 10.3175 4.41535 15.3157C4.41535 15.6932 4.10935 15.9992 3.73188 15.9992C3.35441 15.9992 3.04841 15.6932 3.04841 15.3157V9.8528H2.75332V15.3157C2.75332 15.6932 2.44729 15.9992 2.06985 15.9992C1.69238 15.9992 1.38638 15.6931 1.38638 15.3157L1.38613 5.74199C1.3861 5.67974 1.33576 5.62917 1.27345 5.62899C1.21116 5.6288 1.16048 5.67911 1.16013 5.74142L1.1391 9.92571C1.13754 10.2393 0.88282 10.4924 0.569632 10.4924H0.566695C0.252132 10.4908 -0.00158628 10.2345 7.46747e-06 9.91996L0.0209762 5.73574C0.0246637 4.9963 0.62932 4.39471 1.36879 4.39471H4.48341C4.84973 4.39471 5.18951 4.59261 5.37026 4.91117L6.27338 6.50289L7.92035 6.20036Z" fill="currentColor"/>
</svg>
