<svg width="17" height="16" viewBox="0 0 17 16" fill="none" xmlns="http://www.w3.org/2000/svg">
<path fill-rule="evenodd" clip-rule="evenodd" d="M3.43322 0.00778831C4.15688 0.0797911 4.68516 0.724807 4.61315 1.44847C4.54115 2.17214 3.89614 2.70041 3.17247 2.62841C2.44881 2.55641 1.92053 1.91139 1.99253 1.18773C2.06454 0.464061 2.70955 -0.0642145 3.43322 0.00778831ZM10.9785 9.57723C10.9785 9.86711 10.7435 10.1021 10.4536 10.1021L6.39148 10.1022C6.69684 9.93116 6.90421 9.6063 6.90869 9.23248H10.223C10.326 9.23248 10.4095 9.14898 10.4095 9.04594C10.4095 8.94291 10.326 8.85941 10.223 8.85941H6.909V8.23761H10.223C10.326 8.23761 10.4095 8.15411 10.4095 8.05108C10.4095 7.94805 10.326 7.86454 10.223 7.86454H6.909V7.21166H10.223C10.326 7.21166 10.4095 7.12815 10.4095 7.02512C10.4095 6.92209 10.326 6.83858 10.223 6.83858H6.909V6H10.4536C10.7435 6 10.9785 6.23501 10.9785 6.52489V6.59257C10.9845 6.59198 10.9905 6.59164 10.9967 6.59164H11.0941C11.1979 6.59164 11.282 6.6758 11.282 6.7796V7.25173C11.282 7.35554 11.1979 7.4397 11.0941 7.4397H10.9967C10.9905 7.4397 10.9845 7.43933 10.9785 7.43877V8.66336C10.9845 8.66276 10.9905 8.66242 10.9967 8.66242H11.0941C11.1979 8.66242 11.282 8.74658 11.282 8.85039V9.32252C11.282 9.42633 11.1979 9.51049 11.0941 9.51049H10.9967C10.9905 9.51049 10.9845 9.51014 10.9785 9.50955V9.57723ZM5.89882 9.85561C6.24976 9.85561 6.53423 9.57114 6.53423 9.2202V4.54889C6.5301 3.7239 5.84504 3.05273 5.00711 3.05273H1.59589C0.756598 3.05273 0.0704191 3.7239 0.0662842 4.54889V9.2202C0.0662842 9.57114 0.350754 9.85561 0.701694 9.85561C1.05263 9.85561 1.3371 9.57114 1.3371 9.2202V4.55439C1.33832 4.43349 1.47188 4.32355 1.60637 4.32355V15.2367C1.60637 15.6578 1.9533 15.9992 2.37441 15.9992C2.79552 15.9992 3.13688 15.6578 3.13688 15.2367V9.14207H3.46609V15.2367C3.46609 15.6578 3.80745 15.9992 4.22856 15.9992C4.64967 15.9992 4.9943 15.6578 4.9943 15.2367C4.99339 13.6578 4.99474 13.2293 4.99621 12.7632C4.99869 11.9748 5.00151 11.0788 4.9943 4.32359C5.12746 4.32359 5.26205 4.43336 5.26338 4.55421V9.22024C5.26341 9.57114 5.54788 9.85561 5.89882 9.85561ZM14.7967 6.36536H15.4751C15.765 6.36536 16 6.61389 16.0001 6.90377V9.27498C16.0001 9.56486 15.7651 9.79987 15.4752 9.79987H15.4084V9.91546C15.4084 10.0193 15.3242 10.1034 15.2204 10.1034H14.7483C14.6445 10.1034 14.5603 10.0193 14.5603 9.91546V9.79987H13.3376V9.91546C13.3376 10.0193 13.2534 10.1034 13.1496 10.1034H12.6775C12.5737 10.1034 12.4895 10.0193 12.4895 9.91546V9.79987H12.4227C12.1329 9.79987 11.8978 9.56486 11.8978 9.27498V6.90377C11.8978 6.61389 12.1329 6.36536 12.4227 6.36536H13.1027C13.101 6.34431 13.101 6.30855 13.1012 6.20655V6.20652V6.20649C13.1012 6.14701 13.1013 6.06501 13.1012 5.95028C13.1012 5.74832 13.2655 5.58398 13.4675 5.58398H14.4304C14.6323 5.58398 14.7967 5.74829 14.7967 5.95028V6.36536ZM14.7967 6.36536H14.7951C14.7955 6.36039 14.7964 6.36284 14.7967 6.36536ZM13.4742 6.36536H14.4236V5.95703H13.4742V6.36536ZM16 10.5938H5.29041V11.5264H16V10.5938Z" fill="currentColor"/>
</svg>
