<svg width="17" height="16" viewBox="0 0 17 16" fill="none" xmlns="http://www.w3.org/2000/svg">
<path fill-rule="evenodd" clip-rule="evenodd" d="M9.99971 3.29413V2.5098H10.9409V3.29413H13.0585V2.58823C13.0585 1.16107 11.8974 0 10.4703 0C9.04311 0 7.88204 1.16107 7.88204 2.58823V3.29413H9.99971ZM7.88204 4.23438V4.94025C7.88204 6.36743 9.04311 7.52847 10.4703 7.52847C11.8974 7.52847 13.0585 6.36743 13.0585 4.94025V4.23438H7.88204ZM7.78658 10.3536H11.9773C13.0925 10.3536 13.9998 11.261 13.9998 12.3762V12.9037C13.9998 13.5734 13.455 14.1183 12.7852 14.1183H7.4966L7.65346 15.0595H12.5881V16.0007H6.85616L6.54238 14.1183H5.14235L3.21041 4.30991C3.13814 3.94315 3.23293 3.56726 3.47029 3.27853C3.70766 2.98981 4.05825 2.82422 4.43203 2.82422H4.49959C5.41902 2.82422 6.20455 3.4501 6.40987 4.34625L7.35518 8.47128H11.6469V9.41245H7.57088L7.78658 10.3536Z" fill="currentColor"/>
</svg>
