<svg width="17" height="16" viewBox="0 0 17 16" fill="none" xmlns="http://www.w3.org/2000/svg">
<path fill-rule="evenodd" clip-rule="evenodd" d="M10.4191 2.63073C11.145 2.57909 11.6915 1.94881 11.6399 1.22295C11.5882 0.497107 10.958 -0.0494513 10.2321 0.00218754C9.50626 0.0538263 8.9597 0.684108 9.01134 1.40996C9.06298 2.13581 9.69326 2.68237 10.4191 2.63073ZM10.6205 10.1172H10.4847V10.3819C10.5157 10.2859 10.5619 10.1967 10.6205 10.1172ZM10.4847 13.3594C10.5769 13.645 10.8038 13.8705 11.0904 13.9605C11.1811 14.1666 11.387 14.3111 11.6263 14.3111H12.0097V15.2378C12.0097 15.6589 11.6683 16.0003 11.2472 16.0003C10.8261 16.0003 10.4847 15.6589 10.4847 15.2378V13.3594ZM8.63025 15.2364C8.63025 15.6575 8.97162 15.9989 9.39275 15.9989C9.81387 15.9989 10.1553 15.6575 10.1553 15.2364V12.2162L8.63028 11.7207L8.63025 15.2364ZM9.21423 10.1172H10.1554V10.423L9.21423 10.1172ZM5.67145 10.3121L10.9394 12.0237C10.9831 12.0379 11.0276 12.0447 11.0712 12.0447C11.2509 12.0447 11.4181 11.9301 11.4766 11.7499C11.5494 11.526 11.4268 11.2854 11.2029 11.2127L5.67145 9.41543V8.96712L7.90202 9.69187H11.2048C11.4344 9.69187 11.6319 9.51543 11.6427 9.28612C11.6542 9.04129 11.4592 8.83912 11.2168 8.83912H5.67145V8.24078C5.67145 7.93196 5.42111 7.68163 5.1123 7.68163H2.58552C2.2767 7.68163 2.02636 7.93196 2.02636 8.24078V14.9451H1.78908C1.60886 14.9451 1.46277 15.0912 1.46277 15.2714V15.6496C1.46277 15.8299 1.60886 15.976 1.78908 15.976H5.90877C6.08898 15.976 6.23508 15.8299 6.23508 15.6496V15.2714C6.23508 15.0912 6.08898 14.9451 5.90877 14.9451H5.67148L5.67145 10.3121ZM4.88295 9.50259C4.88295 9.64056 4.77111 9.75243 4.63311 9.75243H3.06467C2.9267 9.75243 2.81483 9.6406 2.81483 9.50259V9.02831C2.81483 8.89034 2.92667 8.77846 3.06467 8.77846H4.63314C4.77111 8.77846 4.88298 8.89031 4.88298 9.02831L4.88295 9.50259ZM13.7766 10.1333H14.4671C14.7614 10.1333 15.0001 10.3719 15.0001 10.6663V13.0742C15.0001 13.3685 14.7615 13.6072 14.4671 13.6072H14.3993V13.7245C14.3993 13.83 14.3139 13.9154 14.2085 13.9154H13.729C13.6236 13.9154 13.5382 13.83 13.5382 13.7245V13.6072H12.2965V13.7245C12.2965 13.83 12.211 13.9154 12.1056 13.9154H11.6262C11.5208 13.9154 11.4353 13.83 11.4353 13.7245V13.6072H11.3675C11.0732 13.6072 10.8345 13.3685 10.8345 13.0742V12.436C10.9133 12.4588 10.9928 12.4704 11.0713 12.4704C11.4307 12.4704 11.765 12.2413 11.8821 11.8809C12.0276 11.433 11.7825 10.9519 11.3346 10.8064L10.8357 10.6443C10.8473 10.3602 11.0806 10.1333 11.3675 10.1333H12.058C12.0572 10.1231 12.0565 10.1128 12.0565 10.1024V9.69803C12.0565 9.53978 12.156 9.40468 12.2955 9.35103C12.2867 9.30876 12.2819 9.26503 12.2819 9.22015V4.55412C12.2806 4.43331 12.1435 4.32354 12.0104 4.32354V8.9334C11.8811 8.62701 11.5703 8.4119 11.2168 8.4119H8.63718V4.32354H8.6144C8.48128 4.32354 8.35943 4.43331 8.35809 4.55412V8.4119H7.08728V4.55207V4.54888C7.0914 3.7239 7.77646 3.05271 8.6144 3.05271H12.0256C12.8635 3.05271 13.5486 3.72387 13.5527 4.54884V4.55204V9.22012C13.5527 9.265 13.5479 9.30875 13.5391 9.351C13.6787 9.40465 13.7782 9.53975 13.7782 9.698V10.1023C13.7782 10.1128 13.7774 10.123 13.7766 10.1333ZM12.4353 10.0955H13.3993V9.70487H13.3276C13.2169 9.79872 13.0738 9.85556 12.9173 9.85556C12.7608 9.85556 12.6177 9.79872 12.507 9.70487H12.4353V10.0955Z" fill="currentColor"/>
</svg>
