<svg width="16" height="16" viewBox="0 0 16 16" fill="none" xmlns="http://www.w3.org/2000/svg">
<path d="M2.8111 12.7414C3.51679 12.7414 4.0889 13.3218 4.0889 14.0377C4.0889 14.7536 3.51682 15.334 2.8111 15.334C2.10541 15.334 1.53333 14.7536 1.53333 14.0377C1.53333 13.3218 2.10541 12.7414 2.8111 12.7414ZM11.5 12.7414C12.2057 12.7414 12.7778 13.3218 12.7778 14.0377C12.7778 14.7536 12.2057 15.334 11.5 15.334C10.7943 15.334 10.2222 14.7536 10.2222 14.0377C10.2222 13.3218 10.7943 12.7414 11.5 12.7414ZM15.3333 13.7784H13.2708C13.1468 12.8989 12.4012 12.2229 11.5 12.2229C10.5988 12.2229 9.85323 12.8989 9.72921 13.7784H4.58189C4.45787 12.8989 3.71231 12.2229 2.8111 12.2229C1.90989 12.2229 1.16433 12.8989 1.04034 13.7784H0V8.07471C0 7.50198 0.457676 7.03767 1.02223 7.03767H14.0556C14.6201 7.03767 15.0778 7.50198 15.0778 8.07471L15.3333 13.7784ZM14.6944 8.07471H13.8V11.7043H14.8222L14.6944 8.07471ZM12.7778 10.1488V8.07471H10.2222V10.1488H12.7778ZM9.7111 8.07471H7.15557V10.1488H9.7111V8.07471ZM6.64443 8.07471H4.0889V10.1488H6.64443V8.07471ZM3.57777 8.07471H1.02223V10.1488H3.57777V8.07471ZM10.4778 2.88954L8.94443 1.33398H10.9889L12.7778 2.94714V1.33398H13.8V5.48211H12.7778V3.86895L10.9889 5.48211H8.94443L10.4778 3.92655H5.5578C5.33087 4.82111 4.5304 5.48211 3.57777 5.48211C2.44865 5.48211 1.53333 4.55353 1.53333 3.40805C1.53333 2.26257 2.44865 1.33398 3.57777 1.33398C4.5304 1.33398 5.33087 1.99498 5.5578 2.88954H10.4778Z" fill="currentColor"/>
</svg>
