<svg width="16" height="16" viewBox="0 0 16 16" fill="none" xmlns="http://www.w3.org/2000/svg">
<path d="M14.95 8.72627L11.075 12.6013C10.625 13.0701 9.95 13.4013 9.2375 13.4013H6.325C5.95625 13.4013 5.625 13.5451 5.38125 13.7888L4.4125 14.7013H0L4.24375 10.4013L4.2375 10.3951C4.6875 9.94506 5.31875 9.66376 6.0125 9.65756H10.2C10.6437 9.65756 11 10.0138 11 10.4576C11 10.9013 10.6437 11.2576 10.2 11.2576H6.825C6.68125 11.2451 6.5625 11.3638 6.5625 11.5201C6.5625 11.6763 6.68125 11.7888 6.83125 11.7888H10.1875C10.5437 11.8013 10.8812 11.6513 11.1312 11.4013C11.3812 11.1513 11.5187 10.8076 11.5187 10.4576C11.5312 10.2951 11.4875 10.1201 11.4312 9.97006L13.8125 7.58877C14.1312 7.27002 14.6312 7.27002 14.9437 7.57627C15.2687 7.89502 15.2625 8.41377 14.95 8.72627ZM3.9375 4.70127C3.9375 2.37627 5.8 0.48877 8.125 0.48877C10.45 0.48877 12.325 2.36377 12.325 4.68877C12.325 7.01377 10.4437 8.88877 8.13125 8.88877C5.81875 8.88877 3.9375 7.01377 3.9375 4.70127ZM8.68125 5.67002C8.68125 5.95752 8.44375 6.17002 7.9625 6.17002C7.5125 6.17002 7.09375 6.01377 6.825 5.88252L6.6125 6.73252C6.85625 6.87002 7.3625 7.00127 7.8625 7.00127V7.63877H8.44375V6.98252C9.29375 6.79502 9.6937 6.28877 9.6937 5.63252C9.6937 4.97627 9.325 4.57002 8.53125 4.28252C7.95625 4.04502 7.6875 3.93252 7.6875 3.63877C7.6875 3.42627 7.91875 3.21377 8.34375 3.21377C8.76875 3.21377 9.08125 3.34502 9.275 3.42627L9.5125 2.59502C9.25625 2.45752 8.90625 2.35752 8.425 2.35752V1.70752H7.84375V2.40127C7.06875 2.55752 6.64375 3.05752 6.64375 3.70127C6.64375 4.39502 7.125 4.78252 7.89375 5.05127C8.45 5.26377 8.68125 5.38252 8.68125 5.67002Z" fill="currentColor"/>
</svg>
