<svg width="24" height="24" viewBox="0 0 24 24" fill="none" xmlns="http://www.w3.org/2000/svg">
<path opacity="0.5" fill-rule="evenodd" clip-rule="evenodd" d="M16.9189 1H7.08101C6.03791 1 5.16914 1.79814 5.08326 2.83533L4.00681 15.8353C4.00227 15.8901 4 15.945 4 16C4 17.1046 4.89747 18 6.00456 18H17.9953C18.0504 18 18.1055 17.9977 18.1604 17.9932C19.2637 17.9023 20.0842 16.9361 19.9931 15.8353L18.9166 2.83533C18.8307 1.79814 17.962 1 16.9189 1ZM15 19H9C7.89543 19 7 19.8954 7 21C7 22.1046 7.89543 23 9 23H15C16.1046 23 17 22.1046 17 21C17 19.8954 16.1046 19 15 19ZM24 7.5V14.5C24 15.3284 23.3284 16 22.5 16C21.6716 16 21 15.3284 21 14.5V7.5C21 6.67157 21.6716 6 22.5 6C23.3284 6 24 6.67157 24 7.5ZM3 14.5V7.5C3 6.67157 2.32843 6 1.5 6C0.671573 6 0 6.67157 0 7.5V14.5C0 15.3284 0.671573 16 1.5 16C2.32843 16 3 15.3284 3 14.5Z" fill="currentColor"/>
</svg>
