<svg width="16" height="16" viewBox="0 0 16 16" fill="none" xmlns="http://www.w3.org/2000/svg">
<path fill-rule="evenodd" clip-rule="evenodd" d="M9.71429 0C10.6181 0 11.3584 0.652702 11.4239 1.48059L11.4286 1.6V3.2H12.2857C13.1895 3.2 13.9299 3.8527 13.9953 4.68059L14 4.8V13.6C14 14.4837 13.2325 15.2 12.2857 15.2C12.2857 15.6418 11.902 16 11.4286 16C10.989 16 10.6267 15.6912 10.5772 15.2933L10.5714 15.2H5.42857C5.42857 15.6418 5.04481 16 4.57143 16C4.09805 16 3.71429 15.6418 3.71429 15.2C2.81055 15.2 2.07014 14.5473 2.0047 13.7194L2 13.6V4.8C2 3.95651 2.69932 3.26547 3.58635 3.20439L3.71429 3.2H4.57143V1.6C4.57143 0.75651 5.27075 0.0654679 6.15777 0.00438862L6.28571 0H9.71429ZM6.28571 6.4C5.81233 6.4 5.42857 6.75816 5.42857 7.2V11.2C5.42857 11.6418 5.81233 12 6.28571 12C6.75911 12 7.14286 11.6418 7.14286 11.2V7.2C7.14286 6.75816 6.75911 6.4 6.28571 6.4ZM9.71429 6.4C9.2747 6.4 8.91242 6.70882 8.86291 7.1067L8.85714 7.2V11.2C8.85714 11.6418 9.24089 12 9.71429 12C10.1539 12 10.5162 11.6912 10.5657 11.2933L10.5714 11.2V7.2C10.5714 6.75816 10.1877 6.4 9.71429 6.4ZM9.71429 1.6H6.28571V3.2H9.71429V1.6Z" fill="currentColor"/>
</svg>
