<svg width="28" height="27" viewBox="0 0 28 27" fill="none" xmlns="http://www.w3.org/2000/svg">
<path d="M16.3333 6.77689C17.6215 6.77689 18.6667 5.73176 18.6667 4.44356C18.6667 3.15537 17.6215 2.11023 16.3333 2.11023C15.0451 2.11023 14 3.15537 14 4.44356C14 5.73176 15.0451 6.77689 16.3333 6.77689ZM26.8333 22.3324C26.1917 22.3324 25.6667 22.8525 25.6667 23.4991C25.6667 24.1407 25.1417 24.6657 24.5 24.6657H21.1215L22.3611 15.9935C22.9299 15.765 23.3382 15.206 23.3382 14.5546C23.3382 13.6942 22.6431 12.9991 21.7826 12.9991H19.6438L18.375 10.413C17.7674 9.17342 16.6493 8.26439 15.3708 7.9387L11.9097 6.90814C10.534 6.57759 9.1 6.88384 7.98194 7.73939L6.05208 9.21717C5.37153 9.73731 5.24028 10.7144 5.76528 11.3998C5.79931 11.4435 5.84792 11.463 5.88194 11.5019L3.25208 24.6657H1.16667C0.525 24.6657 0 25.1859 0 25.8324C0 26.4789 0.525 26.9991 1.16667 26.9991H24.5C26.4299 26.9991 28 25.4289 28 23.4991C28 22.8574 27.475 22.3324 26.8333 22.3324ZM14.1701 24.6657H9.45972L11.5549 20.2421L10.4854 19.6102C9.89722 19.2602 9.42083 18.7887 9.05139 18.2588L6.01319 24.6657H4.83681L7.37917 11.9588C7.57847 11.9102 7.77292 11.8178 7.94792 11.6866L9.87778 10.2088C10.2521 9.92203 10.7236 9.81995 11.1076 9.91231L11.8222 10.1262L9.99931 14.3748C9.38681 15.8088 9.93611 17.4859 11.2778 18.2782L15.4097 20.7185L14.1701 24.6657ZM19.5465 24.6657H17.4271L18.5743 20.9956C18.8611 19.9845 18.4333 18.9005 17.5243 18.3512L14.5493 16.5963L16.0708 12.79L17.0576 14.8025C17.4465 15.5949 18.2681 16.1102 19.1528 16.1102H20.7715L19.5465 24.6657Z" fill="currentColor"/>
</svg>
