<svg xmlns="http://www.w3.org/2000/svg" width="20" height="20" fill="currentColor" viewBox="0 0 20 20">
  <path fill="currentColor" d="M4.026 13.026A3.504 3.504 0 0 0 3 15.5v2A3.486 3.486 0 0 0 4.058 20H.5a.5.5 0 0 1-.5-.5v-13A.5.5 0 0 1 .5 6h3V4.929A1.999 1.999 0 0 1 2 3c0-.895 1.046-3 2-3s2 2.105 2 3a1.998 1.998 0 0 1-1.5 1.929V6h3a.5.5 0 0 1 .5.5V12H6.5c-.928 0-1.818.37-2.474 1.026Zm9.474-2.028h-1a2.501 2.501 0 0 1-2.5-2.5.5.5 0 0 1 .5-.5h1a2.5 2.5 0 0 1 2.5 2.5.5.5 0 0 1-.5.5Zm2.882-3.808A3.527 3.527 0 0 0 14.5 8.722a3.527 3.527 0 0 0-1.882-1.532 3.46 3.46 0 0 1 .822-1.34l.706-.707a.514.514 0 0 1 .707 0l.707.707c.373.378.655.836.822 1.34Zm-1.236 3.662a.498.498 0 0 1-.146-.354 2.5 2.5 0 0 1 2.5-2.5h1a.5.5 0 0 1 .5.5 2.5 2.5 0 0 1-2.5 2.5h-1a.5.5 0 0 1-.354-.146ZM15.175 13H17.5a2.502 2.502 0 0 1 2.5 2.5v2a2.502 2.502 0 0 1-2.5 2.5h-11A2.502 2.502 0 0 1 4 17.5v-2A2.502 2.502 0 0 1 6.5 13H12c1.935 0 3 .71 3 2a1 1 0 0 1-1 1H9.5a.5.5 0 0 0 0 1H14a2.003 2.003 0 0 0 2-2 2.801 2.801 0 0 0-.825-2Z"/>
</svg>
