<svg width="16" height="16" viewBox="0 0 16 16" fill="none" xmlns="http://www.w3.org/2000/svg">
<path fill-rule="evenodd" clip-rule="evenodd" d="M10.7695 2.76953C10.7695 4.29662 9.52712 5.53903 8 5.53903C6.47287 5.53903 5.23047 4.29662 5.23047 2.76953C5.23047 1.24241 6.47287 0 8 0C9.52712 0 10.7695 1.24241 10.7695 2.76953ZM7.53125 1.31328V2.78672L6.74425 3.47803L7.34181 4.20041L8.46875 3.22794V1.31328H7.53125ZM5.32467 12.431V12.418V8.89148C5.32467 8.34842 4.88442 7.9082 4.34139 7.9082H2.86414C2.32108 7.9082 1.88086 8.34845 1.88086 8.89148V12.418V12.431H5.32467ZM15.0625 11.166V13.3564H0.9375V11.166H0V13.5453C0 14.251 0.464906 14.85 1.10447 15.0526V16.0003H2.04197V15.1261H13.958V16.0003H14.8955V15.0526C15.5351 14.85 16 14.251 16 13.5453V11.166H15.0625ZM9.73727 12.418V12.431H6.26221V12.418V8.89148C6.26221 8.34845 6.70243 7.9082 7.24549 7.9082H8.75399C9.29702 7.9082 9.73727 8.34842 9.73727 8.89148V12.418ZM14.1186 12.431V12.418V8.89148C14.1186 8.34842 13.6784 7.9082 13.1353 7.9082H11.6581C11.115 7.9082 10.6748 8.34845 10.6748 8.89148V12.418V12.431H14.1186Z" fill="currentColor"/>
</svg>
