<svg width="15" height="14" viewBox="0 0 15 14" fill="none" xmlns="http://www.w3.org/2000/svg">
<path fill-rule="evenodd" clip-rule="evenodd" d="M8.03139 0.758652C7.27752 0.758652 6.6642 1.37197 6.6642 2.12584V3.1649H2.8052L2.55258 2.47535C2.44851 2.19133 2.59479 1.87679 2.87903 1.77332L7.66017 0.0331406C7.72191 0.0106641 7.78508 0 7.84717 0C8.07128 0 8.28156 0.13877 8.36181 0.361894L8.50454 0.758652H8.03139ZM7.48438 2.12501C7.48438 1.82297 7.72921 1.57812 8.03125 1.57812H11.7227C12.0247 1.57812 12.2695 1.82297 12.2695 2.12501V3.16407H7.48438V2.12501ZM13.7188 11.0527H11.8047C10.6739 11.0527 9.75391 10.1328 9.75391 9.00195C9.75391 7.87115 10.6739 6.95117 11.8047 6.95117H13.7188V5.07812C13.7188 4.47406 13.2291 3.98438 12.625 3.98438H2.04297C1.43892 3.98438 0.949219 4.47406 0.949219 5.07812V12.9054C0.949219 13.5095 1.43892 13.9992 2.04297 13.9992H12.625C13.2291 13.9992 13.7188 13.5095 13.7188 12.9054V11.0527ZM11.8047 7.77148H14.5391C14.7652 7.77148 14.9492 7.95548 14.9492 8.18164V9.82228C14.9492 10.0484 14.7652 10.2324 14.5391 10.2324H11.8047C11.1262 10.2324 10.5742 9.68043 10.5742 9.00196C10.5742 8.32347 11.1262 7.77148 11.8047 7.77148ZM11.3945 9.00196C11.3945 9.22847 11.5782 9.41212 11.8047 9.41212C12.0312 9.41212 12.2148 9.22847 12.2148 9.00196C12.2148 8.77544 12.0312 8.5918 11.8047 8.5918C11.5782 8.5918 11.3945 8.77544 11.3945 9.00196Z" fill="currentColor"/>
</svg>
